<?xml version="1.0" encoding="UTF-8"?>
<svg id="Capa_2" data-name="Capa 2" xmlns="http://www.w3.org/2000/svg" viewBox="0 0 381.52 242.59">
  <defs>
    <style>
      .cls-1 {
        fill: #414042;
      }
    </style>
  </defs>
  <g id="LOGO">
    <g>
      <g>
        <path class="cls-1" d="M52.68,76.95c0-3.73,1.38-10.8-.03-14.45-2.26-5.74-4.68-10.63-7.02-14.82l.15,80.94c.02,10.95.97,22.37-2.04,33.02-2.78,10.26-12,20.37-23.74,18.84-5.21-.61-13.3-11.47-6.47-15.29-3.8,2.18-7.53,4.67-10.24,8.17-8.14,10.66.04,24.39,11,28.95,6.76,2.86,14.92,2.3,21.2-1.44,6.6-3.9,11.01-10.89,13.25-18.2.85-2.8,1.54-5.67,2.08-8.55,4.08-20.51,1.94-43.35,1.9-63.85l-.06-33.32Z"/>
        <path class="cls-1" d="M131.56,13.98c-3.39-.85-7.15-.35-10.22,1.37-6.55,3.67-8.88,12.99-9.69,19.96-.98,8.37.03,16.82.05,25.19l.06,33.51h-.45c-4.84.33-9.49,1.28-13.7,2.83-.36.14-.72.27-1.04.41l-.07-40.47c-.54,1.81-1.48,5.29-2.88,10.41-1.44,5.07-2.56,9-3.37,11.81-.81,2.8-1.84,6.15-3.01,10.13-1.21,3.94-2.29,7.33-3.24,10.18.64,1.9,1.27,3.66,1.95,5.24-.18.14-.36.32-.5.5-.36.45-.72.91-1.04,1.36-2.66,3.8-3.69,8.19-3.05,12.8.05.32.09.63.14.95-1.36-1.13-2.58-2.35-3.8-3.66-2.54-2.8-4.94-6.68-7.21-11.61-2.27-4.88-4.22-10.08-5.86-15.54-1.64-5.47-3.28-11.25-4.91-17.26-1.64-6.06-3.28-11.84-4.96-17.4-1.68-5.51-3.5-10.57-5.45-15.18-1.95-4.56-4.27-8.36-6.94-11.34-2.72-2.93-5.66-4.74-8.92-5.27-3.84-.63-7.19.33-9.99,2.91-2.84,2.58-4.15,5.61-3.92,9.14.05,2.89,1.05,5.2,3,7.05,1.9,1.85,4.21,2.21,6.88,1.12,1.94-.82,3.3-2.18,3.97-4.08.72-1.9.4-3.93-.87-6.1,1.85-.55,3.53-.64,5.02-.24,1.45.4,2.67,1.17,3.62,2.34.95,1.13,1.59,2.48,1.82,4.07.46,2.85-.49,5.43-2.83,7.69-2.35,2.27-5.65,3.45-9.94,3.45-2.8,0-5.34-.8-7.65-2.38-2.31-1.58-4.12-3.57-5.39-6-1.27-2.44-1.95-5.06-2.09-7.86-.14-3.26.49-6.38,1.84-9.27,1.35-2.94,3.52-5.39,6.54-7.38,2.98-1.99,6.51-3.04,10.58-3.09,3.12,0,6.02.44,8.77,1.34,2.76.9,5.25,2.12,7.42,3.65,2.17,1.53,4.3,3.47,6.34,5.91,1.99,2.44,3.76,4.92,5.26,7.45,1.5,2.53,2.99,5.51,4.49,8.95,1.5,3.39,2.77,6.6,3.82,9.67,1.05,3.03,2.14,6.51,3.27,10.39,1.18,3.89,2.14,7.32,2.91,10.39.82,3.03,1.73,6.46,2.73,10.4,1.05,3.89,1.91,7.1,2.69,9.72.58-1.99,2.97-10.41,7.19-25.38,4.18-14.93,7.46-25.56,9.8-31.94,2.92-7.92,7.02-17.01,14.75-21.37.41-.23.81-.45,1.22-.64,5.42-2.54,12.16-2.46,16.87,1.19Z"/>
        <path class="cls-1" d="M190.05,24.27c-.36.36-.86.5-1.49.36-3.44-.36-6.56.42-9.4,2.32-2.85,1.95-5.78,4.85-8.71,8.83-2.62,3.49-5.23,7.79-7.75,12.81-2.57,5.02-5.36,11.18-8.47,18.37-3.06,7.24-5.31,12.35-6.76,15.39.06,8.09,1.84,17.72-2.4,24.96-.91-1.31-2.08-2.62-3.4-3.88-1.86-1.71-3.8-3.11-5.93-4.24-.27-.18-.59-.32-.86-.45.76-2.67,1.08-5.43,1.03-8.19,0-2.31-.28-4.66-.87-6.87-.27-1.13-.28-3.16-.73-4.11-.14-.41-12.12-27.56-12.12-27.56-1.09-2.3-1.77-4.47-2.09-6.6-.78-5.15.39-9.09,3.51-11.76,2.39-2.04,4.97-2.59,7.59-1.69,2.94.99,4.53,3.52,4.76,7.5-1.81-.77-3.53-.9-5.02-.4-1.58.5-2.89,1.32-3.93,2.45-1.08,1.18-1.67,2.67-1.89,4.53-.22,1.85.1,3.71.91,5.56l1.95,4.65,8.26,18.8c.68-1.49,1.44-3.3,2.3-5.43.9-2.08,1.67-3.98,2.3-5.61.67-1.67,1.44-3.53,2.3-5.57.9-2.08,1.71-3.94,2.48-5.61.77-1.67,1.62-3.48,2.57-5.34.99-1.9,1.94-3.67,2.93-5.25.99-1.63,2.03-3.17,3.11-4.75,1.13-1.54,2.26-3.03,3.47-4.39,1.26-1.36,2.57-2.67,3.93-3.81,3.61-3.08,7.59-5.21,11.97-6.4,4.38-1.18,9.45-1.37,15.28-.66.77.13,1.22.4,1.45.81.18.45.09.86-.27,1.22Z"/>
        <path class="cls-1" d="M205.52,51.47c1.27,1.85,2.85,3.11,4.66,3.79,1.86.68,3.57.76,5.16.31,1.63-.45,3.03-1.32,4.2-2.59,1.22-1.27,1.94-2.76,2.16-4.44.36-3.03-.06-5.74-1.24-8.27-1.18-2.48-2.86-4.47-5.12-6-2.22-1.49-4.84-2.66-7.83-3.47-2.99-.81-6.02-1.16-9.09-1.11-3.07.1-6.1.6-9.09,1.55-3.03,1-5.6,2.36-7.77,4.17-3.34,2.72-5.37,6.16-6.18,10.23-.81,4.12-.39,8.09,1.24,11.94.82,2.17,2.45,4.61,4.9,7.27,2.4,2.66,4.98,5.24,7.7,7.67,2.67,2.44,5.39,4.87,8.02,7.36,2.67,2.48,4.89,4.97,6.62,7.49,1.77,2.53,2.63,4.83,2.64,6.87,0,3.3-.8,6.29-2.47,9-1.62,2.67-3.7,4.21-6.19,4.67-2.8.55-5.29-.13-7.42-1.93-2.17-1.85-2.77-4.02-1.87-6.55.22-.72.63-1.36,1.17-1.9s1.22-1.04,2.03-1.41c.77-.41,1.72-.64,2.71-.68-.82-2.21-2.22-3.79-4.21-4.74-1.95-.95-3.89-1.17-5.88-.67-1.99.5-3.61,1.45-4.79,2.9-1.4,1.81-1.94,3.71-1.66,5.75.28,1.99,1.05,3.93,2.36,5.78,1.27,1.81,2.85,3.25,4.67,4.29,4.07,2.34,8.6,3.33,13.44,3.05,2.8-.19,5.47-.87,8-2,2.58-1.18,4.83-2.68,6.73-4.49,1.94-1.86,3.52-4.03,4.78-6.47,1.26-2.49,1.94-5.11,2.02-7.92.09-2.8-.42-5.7-1.6-8.72-.95-2.53-2.68-5.1-5.12-7.77-2.45-2.66-4.98-5.06-7.66-7.27-2.63-2.21-5.21-4.47-7.74-6.77-2.49-2.3-4.49-4.83-6.03-7.59-1.59-2.76-2.27-5.51-2.14-8.36.18-2.98,1.26-5.56,3.24-7.65,1.94-2.08,4.47-3.13,7.55-3.13,2.85,0,5.25,1.08,7.24,3.2,1.99,2.17,2.9,4.97,2.73,8.45-.09,1.22-.58,2.4-1.4,3.53-.81,1.13-1.94,2.04-3.48,2.63Z"/>
        <path class="cls-1" d="M289.26,2.52C288.4.81,287.04,0,285.19,0c-1.99.05-3.21,1.18-3.7,3.44.23,1.27.14,2.44-.36,3.62-2.12,5.02-8.76,5.76-13.37,6.9-6.91,1.73-14.19,1.88-21.21.54-6.38-1.3-12.44-3.82-18.82-5.08-6.38-1.25-13.43-1.11-18.81,2.61-2.8,1.9-5.1,5.16-4.6,8.55.6,4.29,5.3,6.86,9.64,7.08,3.17.13,6.47-.46,7.14-4.17.31-1.76-.32-3.62-1.64-4.84.14,1.13-1.49,1.86-2.39,1.18-.95-.63-1.04-2.08-.46-3.03.59-1,1.62-1.59,2.71-1.95,3.25-1.14,6.83-.69,10.17.07,5.97,1.35,11.76,4.05,18.05,4.04h1.27s.15,6.1.15,6.1l.13,71.17c0,3.26-.26,5.29-.8,6.06-.14.18-.63.45-1.49.82-.86.36-1.31.86-1.31,1.54,0,.23.09.5.27.72.18.23.41.45.72.59.32.13.63.22,1,.22l17.54-.03c.59,0,1.08-.14,1.4-.45.32-.32.5-.68.49-1.18s-.41-.95-1.18-1.35c-.77-.41-1.27-.77-1.45-1.08-.5-.86-.73-2.85-.73-5.97l-.14-77.46c2.89-.14,5.34-.33,7.32-.51,1.99-.23,3.98-.55,5.97-1.01,1.99-.46,3.75-1.14,5.29-1.95,1.54-.86,2.89-1.9,4.11-3.17,3.43-3.62,4.46-6.79,3.15-9.5Z"/>
        <g>
          <path class="cls-1" d="M297.67,36.45v.05c.05.86-.27,1.36-.95,1.63-1.99.77-3.57,1.77-4.7,2.95-1.17,1.22-1.94,2.81-2.39,4.71-.13.77-.68,1.18-1.54,1.18-.9,0-1.45-.4-1.58-1.17-.68-3.21-3.09-5.78-7.16-7.63-.59-.32-.91-.77-.91-1.54v-.09c0-.77.36-1.22,1.04-1.45,3.48-.96,5.83-3.49,7-7.65.18-.72.72-1.09,1.53-1.09s1.36.36,1.59,1.08c1.46,4.52,3.77,7.09,6.89,7.63.77.18,1.18.63,1.18,1.4Z"/>
          <path class="cls-1" d="M299.21,104.15c0,.55-.18,1.02-.5,1.36-.36.38-.81.6-1.4.6l-17.54.03c-.54,0-1-.21-1.4-.59-.41-.34-.59-.76-.59-1.19,0-.59.18-1.06.54-1.32.36-.3.77-.55,1.26-.72.5-.21.81-.47.99-.77.54-.81.81-3.15.8-6.93l-.06-35.52c0-3.4-.42-5.74-1.28-6.97-.18-.3-.54-.59-1-.93-.5-.34-.77-.55-.82-.64-1.04-.98-1.22-1.99-.55-3.1.27-.43.59-.72.9-.85,0,.72.32,1.15.91,1.44,4.07,1.73,6.47,4.15,7.16,7.17.14.72.68,1.1,1.58,1.1s1.4-.38,1.54-1.11c.45-1.79,1.22-3.27,2.39-4.42,1.13-1.11,2.71-2.04,4.7-2.77.68-.26.99-.72.95-1.53v-.04c.63-.17,1.13.21,1.49,1.06.54,1.19.27,2.21-.81,3.02-.81.64-1.35,1.23-1.62,1.87-.72,1.45-1.08,3.7-1.07,6.67l.06,35.52c0,3.57.24,5.86.74,6.84.18.34.63.72,1.45,1.19.77.47,1.18.93,1.18,1.53Z"/>
        </g>
        <path class="cls-1" d="M351.82,61.2c-2.9-3.93-7.25-6.14-13.03-6.58-8.95-.8-16.55,1.21-22.73,5.92-5.92,4.4-9.52,10.19-10.82,17.38-1.39,7.28.02,13.66,4.19,19.12,1.99,2.62,4.4,4.74,7.25,6.36.86-.95,1.81-1.86,2.84-2.72,1.4-1.13,2.89-2.18,4.52-3.04-2.54-3.3-3.95-7.18-4.27-11.61-.37-4.52-.02-9,1.02-13.43.99-4.43,3.15-8.05,6.49-10.86,3.3-2.81,7.27-3.95,11.89-3.32,4.16.54,7.1,2.25,8.78,5.14,1.77,2.98,2,5.97.65,8.86-.77,1.86-2.07,3.12-3.93,3.81-1.81.64-3.48.59-4.93-.17-1.45-.81-2.08-2.12-2-3.98.13-1.76,1.58-3.3,4.24-4.62-1.13-1.4-2.49-2.35-4.12-2.8-1.67-.49-3.17-.58-4.57-.22-1.45.32-2.67.95-3.7,1.95-1.08.95-1.67,2.08-1.85,3.35-.36,2.35.37,4.43,2.23,6.24,1.81,1.81,4.08,3.02,6.79,3.7,2.67.63,5.47.67,8.46.03,2.98-.68,5.38-2.04,7.09-4.13,1.58-1.95,2.3-4.25,2.2-6.88-.1-2.67-.96-5.15-2.68-7.5Z"/>
        <g>
          <path class="cls-1" d="M90.78,125.7c.63.38,1.37.66,2.09.9.47.14.85.22,1.37.24-1.24-.35-2.36-.71-3.46-1.15Z"/>
          <g>
            <path class="cls-1" d="M155.14,176.18c-.31,5.56-2.15,10.54-5.49,14.89-3.34,4.35-7.45,7.66-12.28,9.97-4.83,2.31-10.12,3.73-15.77,4.32-1.67.18-3.35.23-4.97.23-3.84,0-7.55-.44-11.08-1.34-5.07-1.26-9.5-3.65-13.31-7.17-3.85-3.52-6.3-7.9-7.35-13.15-.46-2.98-.51-5.88-.06-8.73.4-2.85,1.48-5.56,3.2-8.15,1.71-2.54,3.97-4.66,6.77-6.34l-.03-17.82c0-3.44-.46-5.83-1.41-7.14-.14-.14-.27-.27-.5-.45-.18-.18-.36-.32-.54-.41-.18-.09-.36-.18-.54-.32-.18-.14-.32-.27-.41-.32-1.13-.99-1.31-2.08-.59-3.16.36-.63.81-.91,1.36-.91.27,0,.54.04.81.18,1.18.68,2.4.99,3.66.99.81,0,1.63-.14,2.49-.41,2.03-.59,3.8-1.45,5.24-2.54.05-.05.14-.09.18-.14,1.04-.82,2.12-1.68,3.21-2.54.41-.32.86-.68,1.26-1,1.54-1.22,2.57-1.9,3.16-2.04.32-.09.63-.14.86-.14.81,0,1.36.4,1.68,1.17.45,1.04.09,1.94-1.03,2.81-.86.63-1.45,1.27-1.76,1.9-.27.54-.54,2.53-.8,6.02-.27,3.53-.4,6.33-.39,8.55l.02,13.84c5.34.26,9.86,2.15,13.71,5.72,3.81,3.61,5.53,7.99,5.13,13.24-.13,2.44-.94,4.61-2.52,6.52-1.53,1.9-3.39,3.22-5.51,3.99-.99.36-2.08.55-3.16.55-1.22,0-2.44-.22-3.75-.63-2.49-.81-4.66-2.52-6.52-5.1,3.97-2.67,5.96-5.71,5.95-9.1.04-2.62-.55-4.7-1.87-6.15-1.31-1.44-2.94-2.21-4.93-2.3-2.71,0-5.02,1.09-6.87,3.22-1.85,2.13-2.93,4.75-3.29,7.96-.4,3.17-.26,6.56.33,10.13.59,2.85,1.59,5.42,2.95,7.73,1.36,2.3,2.95,4.06,4.76,5.37,1.77,1.26,3.71,2.3,5.79,3.02,1.77.58,3.53.9,5.34.89.36,0,.72-.05,1.09-.05,2.22-.18,4.34-.64,6.42-1.32,2.12-.68,4.07-1.82,5.87-3.36,1.85-1.5,3.43-3.31,4.78-5.34,1.35-1.99,2.39-4.44,3.06-7.24.72-2.85.94-5.88.75-9.14-.37-6.74-2.28-13.02-5.82-18.8-3.54-5.74-7.75-9.17-12.63-10.2-1.09-.27-1.76-.63-2.08-1.04-.27-.45-.27-.86,0-1.27.32-.41.68-.68,1.17-.91,2.48-1.32,4.61-3.26,6.28-5.75,1.71-2.54,2.88-5.25,3.56-8.15.63-2.9.8-5.88.48-8.95-.18-1.49-.46-2.94-.87-4.34-.36-1.45-.86-2.8-1.45-4.07-1.18-2.53-2.99-4.61-5.39-6.28-1.22-.86-2.58-1.49-3.98-1.94-1.36-.4-2.8-.67-4.3-.72h-1.4c-3.48.1-6.56,1.1-9.22,3.05-2.08,1.5-3.39,3.35-3.92,5.48-.32,1-.4,2.04-.36,3.17.23,2.71,2,5.06,5.3,7.04-.63.95-1.31,1.81-2.03,2.49-.9.86-1.94,1.54-3.03,1.95-1.17.45-2.3.68-3.44.68-.27,0-.5,0-.77-.04-.05,0-.09-.04-.09-.04-1.22-.36-2.35-.72-3.44-1.17-.95-.5-1.81-1.22-2.58-2.08-1.36-1.44-2.18-3.12-2.36-5.06-.5-3.53.26-6.69,2.2-9.45.27-.36.54-.72.86-1.09,2.08-2.4,4.6-4.35,7.68-5.8.86-.45,1.72-.82,2.62-1.14,3.89-1.45,8.09-2.28,12.57-2.55.45-.05.95-.09,1.4-.09h1.31c4.84-.01,9.23.66,13.3,2.1,1.49.49,2.85,1.08,4.16,1.8.54.23,1.04.5,1.54.81,1.9.99,3.58,2.21,5.03,3.56,1.4,1.35,2.63,2.8,3.62,4.33.68.95,1.22,1.9,1.72,2.94.32.54.59,1.13.82,1.72,1.41,3.34,1.96,6.78,1.69,10.17-.22,3.44-1.44,6.79-3.51,10.14-2.07,3.3-4.96,6.16-8.67,8.56,7.29,3.51,12.72,8.07,16.3,13.76,3.54,5.65,5.09,11.61,4.64,17.85Z"/>
            <path class="cls-1" d="M90.78,125.7c.63.38,1.37.66,2.09.9.47.14.85.22,1.37.24-1.24-.35-2.36-.71-3.46-1.15Z"/>
          </g>
          <path class="cls-1" d="M181.15,191.6c-2.69-.54-4.7-2.79-5.91-6.72-.17-.66-.61-.93-1.32-.93-.69.03-1.13.33-1.32.94-1.04,3.57-3.04,5.83-5.97,6.74-.58.19-.88.58-.9,1.24-.05.69.19,1.15.72,1.34,3.49,1.67,5.53,3.92,6.13,6.69.14.66.63,1.01,1.37,1.01s1.21-.36,1.32-1.02c.71-3.13,2.71-5.36,6.03-6.63.66-.25.91-.69.9-1.43-.06-.69-.41-1.1-1.05-1.23ZM207.35,133.9c-1.38-2.74-3.19-5.18-5.59-7.4-2.45-2.22-5.53-3.92-9.32-5.17-3.82-1.31-8.05-1.85-12.77-1.76-4.5.2-8.67.89-12.43,2.16-3.79,1.35-6.72,3.31-9.02,5.84-2.25,2.58-3.15,5.61-2.73,9.07.25,1.7.94,3.18,2.12,4.5,1.18,1.26,2.58,2.14,4.15,2.52,1.59.46,3.27.38,5.08-.31,1.81-.72,3.35-2.01,4.55-3.93-3.02-1.64-4.62-3.67-4.79-6.11-.14-3.02,1.06-5.41,3.72-7.2,2.66-1.84,5.79-2.62,9.36-2.49,2.5.13,4.61.68,6.57,1.75,1.87,1.09,3.41,2.49,4.54,4.19,1.07,1.73,1.98,3.62,2.59,5.71.58,2.09.91,4.25.92,6.45,0,2.77-.46,5.35-1.3,7.75-.9,2.45-2,4.56-3.39,6.43-1.4,1.84-2.93,3.57-4.6,5.28-1.67,1.68-3.37,3.27-5.04,4.81-1.67,1.49-3.21,3.03-4.58,4.57-1.34,1.46-2.47,3.13-3.37,4.95-.9,1.7-1.34,3.57-1.34,5.55,0,.77.14,1.51.39,2.06.68-.96,1.18-2.09,1.59-3.46.19-.58.63-.85,1.34-.91.74,0,1.18.27,1.32.9.41,1.32.91,2.5,1.54,3.4.41-.69.6-1.54.6-2.53,0-1.59.57-3.19,1.78-4.73,1.23-1.48,2.82-2.94,4.71-4.29,1.95-1.27,4.06-2.64,6.42-4.05,2.33-1.4,4.63-2.95,6.94-4.57,2.36-1.68,4.44-3.44,6.33-5.31,1.84-1.84,3.37-4.07,4.46-6.68,1.07-2.64,1.58-5.44,1.44-8.43-.12-2.88-.89-5.79-2.18-8.54Z"/>
          <path class="cls-1" d="M262.22,126.41c-.55-1.29-1.54-2.39-2.89-3.23-1.37-.88-2.91-1.26-4.72-1.25.5,2.17.5,4.01-.02,5.52-.49,1.48-1.45,2.53-2.79,3.19-1.37.66-2.91,1.1-4.58,1.33-1.67.28-3.6.34-5.82.15-2.17-.13-4.2-.35-6.1-.54-1.92-.22-3.9-.43-5.99-.7-2.03-.22-3.65-.35-4.89-.35-3.38.06-6.18.7-8.32,1.85-2.17,1.16-3.48,3.19-4,6.08-.27,1.4-.19,2.8.31,4.26.5,1.45,1.27,2.61,2.37,3.57,1.07.96,2.25,1.67,3.57,2.11,1.32.46,2.72.52,4.28.05,1.54-.41,2.94-1.35,4.17-2.86-2.5-.49-4.07-1.67-4.81-3.51-.66-1.89-.5-3.62.54-5.22,1.04-1.62,2.58-2.34,4.53-2.18,1.35.11,3.24.52,5.69,1.23l.1,58.02c0,2.99-.27,4.83-.7,5.55-.14.14-.58.41-1.34.74-.77.3-1.18.77-1.18,1.4,0,.27.08.49.22.71.19.22.41.36.69.49.28.14.52.25.85.25l15.81-.03c.55,0,.96-.14,1.26-.47.27-.3.41-.69.41-1.07,0-.47-.3-.88-1.05-1.23-.71-.41-1.13-.71-1.29-.99-.41-.77-.64-2.58-.64-5.44l-.1-53.81c1.7.33,3.65.46,5.77.37,2.17-.11,4.09-.61,5.76-1.55,1.76-.96,3.1-2.17,4.08-3.69,1.04-1.48,1.53-3,1.58-4.48.08-1.48-.2-2.94-.78-4.25Z"/>
          <path class="cls-1" d="M300.1,193.75c-.41,0-.69.22-.91.58-.22.36-.44.8-.63,1.21-.19.49-.41.74-.68.96-.77.52-2.52.8-5.38.81l-10.71.02-.06-32.07c.13-3.08.48-5.41.98-7.09.49-1.7,1.45-2.8,2.79-3.3,1.4-.58,2.58-.58,3.54,0,.63.38,1.07.9,1.4,1.54.3.69.41,1.37.28,2.06-.19.69-.41,1.37-.82,2.01-.36.63-.9,1.13-1.62,1.49-.77.33-1.54.5-2.36.44,0,1.21.42,2.25,1.13,3.21.77.96,1.68,1.64,2.72,2.05,1.04.44,2.03.52,3.08.32,2.58-.39,4.33-2.07,5.35-5.03.98-3.02.79-5.71-.56-8.18-1.41-2.66-3.71-4.22-6.98-4.71-3.24-.46-6.23.53-8.95,2.98l-.06-33.66,10.71-.02c2.86,0,4.61.27,5.38.79.28.16.61.69.96,1.48.36.85.77,1.26,1.27,1.26.27,0,.49-.06.71-.22.25-.11.38-.3.49-.63.19-.3.25-.74.25-1.15,0-.74-.06-1.37-.2-1.89-.08-.49-.17-.96-.3-1.34-.11-.36-.33-.69-.61-.88-.3-.22-.58-.44-.77-.52-.22-.11-.58-.22-1.07-.33-.49-.05-.88-.05-1.15-.05h-2.94c-2.03.12-4.34.18-6.81.18s-4.75,0-6.75-.04c-1.92,0-4.28-.05-6.95-.04-2.72-.05-4.94-.05-6.75-.04-.49,0-.91.17-1.21.52-.33.33-.49.69-.49,1.07-.05.8.3,1.32,1.13,1.73.77.38,1.21.63,1.32.85.5.74.77,2.91.78,6.34l.11,63.84c0,3.49-.26,5.6-.76,6.4-.11.19-.55.47-1.32.85-.82.36-1.18.88-1.12,1.62,0,.44.17.8.5,1.12.3.3.71.47,1.21.46,2.03,0,4.89,0,8.59-.07,3.71,0,7.11-.07,10.13-.07s5.88.04,8.54.09c.47,0,1.1.05,1.92.11.85.05,1.43.11,1.81.11.36,0,.8-.11,1.34-.28.55-.17.9-.36,1.07-.74.19-.36.41-.85.6-1.54.16-.63.27-1.54.27-2.58,0-.63-.14-1.15-.47-1.48-.3-.36-.63-.52-.99-.52Z"/>
          <path class="cls-1" d="M373.06,118.04c-.22,2.22-1.17,4.15-2.74,5.88-1.64,1.68-3.48,2.86-5.57,3.44-2.09.61-4.34.42-6.7-.48-2.34-.9-4.43-2.57-6.16-5.01,2-.72,3.48-1.82,4.58-3.3,1.04-1.48,1.67-3.02,1.8-4.62.27-4.48-.92-8.13-3.42-10.89l.08-.08c.47-.52.85-1.07,1.15-1.59.71-1.15,1.26-2.36,1.59-3.74.16-.55.27-1.1.33-1.68,2.47.93,4.75,2.08,6.76,3.45,2.94,2.03,5.17,4.66,6.74,7.87,1.6,3.24,2.1,6.83,1.56,10.76Z"/>
        </g>
        <path class="cls-1" d="M356.03,95.02c0,.66-.11,1.26-.27,1.9-.27,1.04-.68,2.03-1.31,3.02-.22.41-.55.82-.9,1.24-.44.52-1.04,1.07-1.73,1.57-1.12.91-2.41,1.68-3.87,2.31-1.45.69-3.16,1.24-5.24,1.66-2.03.44-4.25.64-6.7.64-.96,0-1.89,0-2.8-.1.57-1.4,1.34-2.67,2.35-3.85.11.05.25.05.38.05.38.03.74.05,1.1.05,1.29,0,2.5-.22,3.57-.61,1.4-.44,2.44-1.13,3.07-1.98.55-.69.9-1.4,1.09-2.23.03-.19.08-.41.08-.58.14-1.02-.09-2-.64-2.94-.36-.66-.96-1.23-1.73-1.78-.3-.22-.63-.44-1.04-.66-1.26-.68-2.83-1.15-4.75-1.31,1.23-2.23,3.12-3.68,5.62-4.4,1.12-.3,2.25-.44,3.35-.45,1.37,0,2.75.21,4.09.65,2.44.87,4.2,2.16,5.22,3.97.52.88.91,1.76.99,2.72.06.36.08.71.06,1.1Z"/>
        <path class="cls-1" d="M371.45,192.39c-7.46,5.75-17.09,8.93-28.84,9.5-11.89.57-21.56-1.77-28.95-7.03-5.69-4.16-8.91-9.59-9.61-16.18-.64-6.29,1.38-11.84,6.12-16.7,4.69-4.79,11.74-7.52,21.15-8.17,4.56-.34,8.84.07,12.93,1.29,4.07,1.15,7.45,3.28,10.23,6.35,2.75,3.07,4.02,6.83,3.81,11.2-.21,2.94-1.25,5.52-3.09,7.8-1.86,2.2-4.03,3.8-6.53,4.71-2.47.91-5.19.86-8.21-.07-2.99-1.01-5.63-3.04-7.81-6.11,4.72-3.17,7.1-6.74,7.17-10.78,0-3.08-.78-5.38-2.35-6.86-1.6-1.48-3.63-2.24-6.07-2.35-4.17-.07-7.41,1.96-9.79,6.14-2.35,4.1-3.25,8.76-2.69,13.95.56,5.57,2.87,9.96,6.89,13.25,4.04,3.34,8.66,4.93,13.85,4.86,3.49-.09,6.73-1,9.8-2.68,3.07-1.74,5.57-3.96,7.46-6.71,1.89-2.75,3.28-5.74,4.24-8.9.96-3.21,1.17-6.48.75-9.78-.45-3.29-1.6-6.23-3.5-8.78-2.23-3.1-5.25-5.54-9.16-7.18-3.82-1.64-7.94-2.65-12.28-2.94-.96-.05-1.87-.11-2.83-.1-5.19-3.31-9.54-6.49-12.98-9.5-3.44-3.01-6.13-6.69-8.12-10.94-2.37-4.97-3.01-10.1-1.89-15.45.9-4.12,2.7-7.69,5.5-10.8.88-.96,1.81-1.87,2.85-2.72,1.4-1.13,2.91-2.17,4.52-3.06,1.76-.94,3.62-1.76,5.65-2.4,1.59-.52,3.18-.94,4.8-1.24,1.15-.22,2.31-.42,3.46-.53.27.11.52.22.77.36.41.22.74.44,1.04.66.77.55,1.37,1.12,1.73,1.78.44.74.66,1.54.66,2.36-.85.11-1.67.28-2.44.55-1.02.3-1.95.74-2.83,1.3-.88.55-1.67,1.24-2.41,2.04-.22.27-.44.49-.66.77-1.01,1.18-1.78,2.45-2.35,3.85-.38.85-.68,1.73-.93,2.66-.22.93-.38,1.87-.46,2.86-.22,2.5.37,5.02,1.83,7.52,1.43,2.47,3.52,4.77,6.16,6.94,2.67,2.16,5.61,4.38,8.85,6.6,3.33,2.25,6.71,4.6,10.2,7.04,3.52,2.41,6.85,4.9,9.92,7.4,3.08,2.44,5.83,5.26,8.28,8.47,2.45,3.18,4.13,6.42,5.1,9.77,2.96,10.4-.02,19.08-8.96,26.02Z"/>
      </g>
      <g>
        <path class="cls-1" d="M41,237.94c-1.15-.65-2.05-1.55-2.7-2.69-.65-1.15-.98-2.43-.98-3.86s.32-2.74.97-3.91,1.55-2.08,2.69-2.74c1.15-.66,2.43-.99,3.86-.99,1.55,0,2.89.34,4,1.04,1.11.7,1.99,1.69,2.64,2.98l-.61.27c-1.22-2.42-3.23-3.63-6.01-3.62-1.3,0-2.47.3-3.52.9s-1.86,1.42-2.44,2.48c-.59,1.06-.88,2.25-.88,3.58s.3,2.49.89,3.54,1.41,1.86,2.45,2.44,2.22.88,3.52.88c1.19,0,2.27-.27,3.23-.81.97-.54,1.74-1.29,2.33-2.25.59-.96.92-2.06,1-3.29h-6.87s0-.62,0-.62h7.58s-.02.36-.02.36c-.08,1.43-.44,2.69-1.08,3.79-.64,1.1-1.5,1.96-2.57,2.57-1.07.61-2.27.92-3.6.92-1.44,0-2.74-.32-3.89-.97Z"/>
        <path class="cls-1" d="M55.75,237.74c-.71-.76-1.06-1.78-1.07-3.05v-7.01s.66,0,.66,0v6.97c.01,1.12.31,2,.91,2.64.6.64,1.39.96,2.39.96.69,0,1.31-.19,1.88-.56.57-.37,1.01-.88,1.34-1.52.33-.65.49-1.35.49-2.12v-6.38s.66,0,.66,0l.02,10.98h-.65s-.03-2.43-.03-2.43c-.35.81-.87,1.46-1.55,1.95-.69.48-1.45.73-2.29.73-1.13,0-2.06-.38-2.76-1.14Z"/>
        <path class="cls-1" d="M68.43,238.17c-.87-.46-1.57-1.12-2.1-1.99-.53-.87-.8-1.88-.8-3.04,0-1.09.24-2.07.73-2.94.49-.87,1.17-1.55,2.03-2.04.87-.49,1.85-.74,2.94-.74,1.01,0,1.93.21,2.77.64.84.43,1.52,1.06,2.03,1.91.51.85.77,1.87.77,3.07,0,.17,0,.29-.02.38l-10.6.02c.04.98.31,1.83.79,2.56.48.73,1.1,1.28,1.85,1.67.75.38,1.56.57,2.43.57.94,0,1.8-.2,2.58-.6.78-.4,1.43-1.01,1.93-1.84l.53.36c-.57.91-1.3,1.59-2.17,2.04-.87.45-1.83.68-2.87.68s-1.95-.23-2.82-.69ZM76.14,232.8c-.03-1.05-.27-1.93-.73-2.65-.46-.72-1.05-1.25-1.78-1.6-.73-.35-1.53-.52-2.42-.52-.94,0-1.78.21-2.54.61-.76.41-1.35.98-1.79,1.7-.44.73-.68,1.55-.72,2.48l9.97-.02Z"/>
        <path class="cls-1" d="M79.83,238.1c-.71-.5-1.22-1.18-1.52-2.07l.63-.21c.27.77.7,1.36,1.29,1.78.6.42,1.29.63,2.09.63.87,0,1.57-.22,2.12-.66.55-.43.82-.99.82-1.68,0-.5-.14-.91-.41-1.22s-.6-.55-.99-.72c-.39-.17-.96-.39-1.73-.66-.77-.26-1.39-.52-1.85-.76s-.83-.56-1.1-.93-.41-.85-.41-1.43c0-.81.32-1.48.95-2,.64-.52,1.45-.78,2.45-.78.83,0,1.56.21,2.22.64s1.11,1,1.38,1.73l-.59.23c-.23-.63-.61-1.12-1.15-1.47-.54-.35-1.16-.52-1.86-.52-.83,0-1.49.2-1.99.59-.5.39-.75.91-.75,1.56,0,.48.12.86.35,1.16.23.3.55.55.95.74s.96.41,1.67.65c.77.27,1.39.51,1.87.74.48.23.87.54,1.19.94.32.4.47.91.48,1.52,0,.56-.15,1.06-.46,1.5-.31.44-.73.79-1.28,1.04-.55.25-1.16.38-1.85.38-.95,0-1.79-.25-2.5-.74Z"/>
        <path class="cls-1" d="M89.01,238.08c-.71-.5-1.22-1.18-1.52-2.07l.63-.21c.27.77.7,1.36,1.29,1.78.6.42,1.29.63,2.09.63.87,0,1.57-.22,2.12-.66.55-.43.82-.99.82-1.68,0-.5-.14-.91-.41-1.22s-.6-.55-.99-.72c-.39-.17-.96-.39-1.73-.66-.77-.26-1.39-.52-1.85-.76s-.83-.56-1.1-.93-.41-.85-.41-1.43c0-.81.32-1.48.95-2,.64-.52,1.45-.78,2.45-.78.83,0,1.56.21,2.22.64s1.11,1,1.38,1.73l-.59.23c-.23-.63-.61-1.12-1.15-1.47-.54-.35-1.16-.52-1.86-.52-.83,0-1.49.2-1.99.59-.5.39-.75.91-.75,1.56,0,.48.12.86.35,1.16.23.3.55.55.95.74s.96.41,1.67.65c.77.27,1.39.51,1.87.74.48.23.87.54,1.19.94.32.4.47.91.48,1.52,0,.56-.15,1.06-.46,1.5-.31.44-.73.79-1.28,1.04-.55.25-1.16.38-1.85.38-.95,0-1.79-.25-2.5-.74Z"/>
        <path class="cls-1" d="M104.25,237.92c-.44-.52-.65-1.3-.66-2.35v-7.39s-2.03,0-2.03,0v-.59s1.26,0,1.26,0c.28,0,.47-.02.58-.05s.17-.11.2-.22c.03-.11.04-.32.04-.61v-1.6s.59,0,.59,0v2.48s2.94,0,2.94,0v.59s-2.92,0-2.92,0v7.37c.01.91.18,1.56.51,1.94.33.38.88.58,1.65.57.24,0,.5-.02.8-.06v.63c-.29.04-.59.06-.9.06-.94,0-1.62-.26-2.06-.77Z"/>
        <path class="cls-1" d="M116.32,228.93c-.58-.64-1.37-.96-2.36-.96-.64,0-1.25.17-1.83.5-.57.33-1.04.81-1.4,1.44-.36.63-.54,1.39-.54,2.27v6.38s-.66,0-.66,0l-.03-15.33h.67s.01,6.78.01,6.78c.35-.85.88-1.51,1.6-1.98.72-.46,1.49-.7,2.3-.7,1.13,0,2.05.38,2.74,1.14s1.04,1.77,1.05,3.03v7.04s-.66,0-.66,0v-6.99c-.01-1.11-.31-1.98-.89-2.62Z"/>
        <path class="cls-1" d="M123.19,238.07c-.87-.46-1.57-1.12-2.1-1.99-.53-.87-.8-1.88-.8-3.04,0-1.09.24-2.07.73-2.94.49-.87,1.17-1.55,2.03-2.04.87-.49,1.85-.74,2.94-.74,1.01,0,1.93.21,2.77.64.84.43,1.52,1.06,2.03,1.91.51.85.77,1.87.77,3.07,0,.17,0,.29-.02.38l-10.6.02c.04.98.31,1.83.79,2.56.48.73,1.1,1.28,1.85,1.67.75.38,1.56.57,2.43.57.94,0,1.8-.2,2.58-.6.78-.4,1.43-1.01,1.93-1.84l.53.36c-.57.91-1.3,1.59-2.17,2.04-.87.45-1.83.68-2.87.68s-1.95-.23-2.82-.69ZM130.91,232.7c-.03-1.05-.27-1.93-.73-2.65-.46-.72-1.05-1.25-1.78-1.6-.73-.35-1.53-.52-2.42-.52-.94,0-1.78.21-2.54.61-.76.41-1.35.98-1.79,1.7-.44.73-.68,1.55-.72,2.48l9.97-.02Z"/>
        <path class="cls-1" d="M140.94,223.84c.45-.53,1.18-.79,2.17-.79.36,0,.73.03,1.11.08v.59c-.34-.06-.69-.08-1.05-.08-.83,0-1.41.21-1.74.62-.34.41-.5,1.1-.5,2.07v1.2s3.26,0,3.26,0v.59s-3.25,0-3.25,0l.02,10.39h-.67s-.02-10.39-.02-10.39h-2.29s0-.58,0-.58h2.29s0-1.2,0-1.2c0-1.13.22-1.96.68-2.49Z"/>
        <path class="cls-1" d="M146.1,223.16h.67s.03,15.33.03,15.33h-.67s-.03-15.33-.03-15.33Z"/>
        <path class="cls-1" d="M157.17,236.77c-.33.6-.82,1.08-1.46,1.42s-1.36.52-2.17.52-1.49-.16-2.11-.48c-.62-.32-1.11-.76-1.46-1.33-.35-.57-.53-1.2-.53-1.9s.18-1.35.53-1.91c.36-.56.84-1,1.47-1.32.62-.32,1.32-.47,2.09-.48.81,0,1.53.17,2.16.5.63.33,1.11.8,1.45,1.38v-2c0-1.01-.31-1.81-.93-2.4-.62-.59-1.45-.89-2.5-.89-.62,0-1.22.11-1.83.33-.6.22-1.17.54-1.7.96l-.34-.55c.59-.45,1.22-.79,1.89-1.02.67-.23,1.33-.35,1.97-.35,1.23,0,2.22.35,2.97,1.07.75.71,1.13,1.66,1.13,2.85v7.29s-.6,0-.6,0l-.05-1.7ZM156.16,237.23c.66-.58.98-1.33.98-2.24s-.33-1.65-.99-2.23c-.66-.58-1.51-.87-2.54-.87s-1.88.29-2.53.86c-.65.58-.97,1.32-.97,2.25s.33,1.66.99,2.24c.66.58,1.5.87,2.52.87s1.88-.29,2.54-.88Z"/>
        <path class="cls-1" d="M159.44,227.49h.69s2.43,6.15,2.43,6.15l1.54,4.16,1.5-4.16,2.34-6.16h.71s-4.18,10.99-4.18,10.99h-.73s-4.3-10.97-4.3-10.97Z"/>
        <path class="cls-1" d="M172.51,237.93c-.89-.5-1.59-1.18-2.1-2.04-.51-.87-.77-1.84-.77-2.92s.25-2.05.76-2.93c.51-.88,1.21-1.56,2.1-2.06.89-.5,1.88-.75,2.97-.75s2.1.25,2.99.74c.89.5,1.59,1.18,2.09,2.05.51.87.76,1.85.76,2.93s-.25,2.05-.75,2.92c-.5.87-1.2,1.55-2.09,2.05s-1.89.75-2.99.75-2.08-.25-2.97-.74ZM178.13,237.38c.78-.44,1.4-1.05,1.84-1.82.45-.77.67-1.64.67-2.61s-.23-1.84-.68-2.61c-.45-.78-1.07-1.38-1.85-1.82-.79-.44-1.67-.66-2.65-.66s-1.86.22-2.64.67c-.78.44-1.4,1.05-1.84,1.83-.45.78-.67,1.65-.67,2.62s.23,1.83.68,2.6c.45.77,1.07,1.37,1.85,1.81.78.44,1.67.66,2.65.66s1.86-.22,2.64-.67Z"/>
        <path class="cls-1" d="M183.78,227.44h.67s0,2.44,0,2.44c.33-.78.83-1.4,1.5-1.85.66-.45,1.43-.68,2.3-.68.14,0,.28,0,.42.02v.65s-.42-.02-.42-.02c-1.15,0-2.07.39-2.76,1.15-.69.76-1.04,1.78-1.03,3.04v6.24s-.66,0-.66,0l-.02-10.98Z"/>
        <path class="cls-1" d="M188.91,238.31c-.12-.11-.18-.26-.18-.44s.06-.33.17-.43c.11-.1.27-.16.46-.16.18,0,.33.05.44.16.11.11.17.25.17.43s-.06.33-.17.44c-.11.11-.26.17-.44.17s-.33-.06-.45-.17Z"/>
        <path class="cls-1" d="M198.18,223.7h7.31s0,.66,0,.66h-6.62s.01,6.06.01,6.06h6.03s0,.66,0,.66h-6.03s.01,6.65.01,6.65h6.85s0,.66,0,.66h-7.54s-.03-14.69-.03-14.69Z"/>
        <path class="cls-1" d="M214.68,228.75c-.6-.64-1.4-.96-2.41-.96-.69,0-1.31.19-1.88.56s-1.01.88-1.34,1.52c-.33.64-.49,1.35-.49,2.12v6.38s-.66,0-.66,0l-.02-10.98h.67s0,2.46,0,2.46c.35-.81.87-1.46,1.56-1.95.69-.49,1.46-.74,2.3-.74,1.13,0,2.06.38,2.76,1.14s1.06,1.78,1.07,3.05v7.01s-.66,0-.66,0v-6.97c-.01-1.12-.31-2-.91-2.64Z"/>
        <path class="cls-1" d="M216.69,242.53v-.63c.25.04.5.06.73.06.76,0,1.31-.21,1.65-.63s.51-1.16.51-2.23l-.02-11.72h.67s.02,11.76.02,11.76c0,1.23-.22,2.11-.67,2.65-.45.53-1.14.8-2.08.8-.28,0-.55-.02-.82-.06ZM219.46,224.79c-.11-.11-.17-.24-.17-.41s.06-.3.17-.41.26-.16.44-.16c.17,0,.31.05.42.16s.17.24.17.41-.06.3-.17.41c-.11.1-.25.16-.42.16-.18,0-.33-.05-.44-.16Z"/>
        <path class="cls-1" d="M225.58,237.84c-.89-.5-1.59-1.18-2.1-2.04s-.77-1.84-.77-2.92.25-2.05.76-2.93,1.21-1.56,2.1-2.06c.89-.5,1.88-.75,2.97-.75s2.1.25,2.99.74c.89.5,1.59,1.18,2.09,2.05s.76,1.85.76,2.93-.25,2.05-.75,2.92-1.2,1.55-2.09,2.05c-.89.5-1.89.75-2.99.75s-2.08-.25-2.97-.74ZM231.2,237.28c.78-.44,1.4-1.05,1.84-1.82.45-.77.67-1.64.67-2.61s-.23-1.84-.68-2.61c-.45-.78-1.07-1.38-1.85-1.82-.78-.44-1.67-.66-2.65-.66s-1.86.22-2.64.67c-.78.44-1.4,1.05-1.85,1.83-.45.78-.67,1.65-.67,2.62s.23,1.83.68,2.6c.45.77,1.07,1.37,1.85,1.81.78.44,1.67.66,2.65.66s1.86-.22,2.65-.67Z"/>
        <path class="cls-1" d="M239.64,237.65l-4.34-10.3h.71s2.57,6.11,2.57,6.11l1.41,3.44,1.36-3.38,2.51-6.18h.73s-6.13,15.03-6.13,15.03h-.74s1.9-4.71,1.9-4.71Z"/>
        <path class="cls-1" d="M253.18,237.65c-.44-.52-.65-1.3-.66-2.35v-7.39s-2.03,0-2.03,0v-.59s1.26,0,1.26,0c.28,0,.47-.02.58-.05.11-.04.17-.11.2-.22.03-.11.04-.32.04-.61v-1.6s.59,0,.59,0v2.48s2.94,0,2.94,0v.59s-2.92,0-2.92,0v7.37c.01.91.18,1.56.51,1.94.33.38.88.58,1.65.57.24,0,.5-.02.8-.06v.63c-.29.04-.59.06-.9.06-.94,0-1.62-.26-2.06-.77Z"/>
        <path class="cls-1" d="M265.25,228.66c-.58-.64-1.37-.96-2.36-.96-.64,0-1.25.17-1.83.5-.57.33-1.04.81-1.4,1.44-.36.63-.54,1.39-.54,2.27v6.38s-.66,0-.66,0l-.03-15.33h.67s.01,6.78.01,6.78c.35-.85.88-1.51,1.6-1.98.72-.46,1.49-.7,2.3-.7,1.13,0,2.05.38,2.74,1.14.69.76,1.04,1.77,1.05,3.03v7.04s-.66,0-.66,0v-6.99c-.01-1.11-.31-1.98-.89-2.62Z"/>
        <path class="cls-1" d="M272.12,237.81c-.87-.46-1.57-1.12-2.1-1.99s-.8-1.88-.8-3.04c0-1.09.24-2.07.73-2.94.49-.87,1.17-1.55,2.03-2.04.87-.49,1.85-.74,2.94-.74,1.01,0,1.93.21,2.77.64s1.52,1.06,2.03,1.91c.51.85.77,1.87.77,3.07,0,.17,0,.29-.02.38l-10.6.02c.04.98.31,1.83.79,2.56.48.73,1.1,1.28,1.85,1.67.75.38,1.56.57,2.43.57.94,0,1.8-.2,2.58-.6.78-.4,1.43-1.01,1.93-1.84l.53.36c-.57.91-1.3,1.59-2.17,2.04-.88.45-1.83.68-2.87.68s-1.95-.23-2.81-.69ZM279.84,232.44c-.03-1.05-.27-1.93-.73-2.65-.46-.72-1.05-1.25-1.78-1.6-.73-.35-1.53-.52-2.42-.52-.94,0-1.78.21-2.54.61s-1.35.98-1.79,1.7c-.44.73-.68,1.55-.72,2.48l9.97-.02Z"/>
        <path class="cls-1" d="M288.19,227.26h.67s0,2.2,0,2.2c.32-.74.79-1.33,1.4-1.78.62-.44,1.29-.66,2.04-.66.8,0,1.49.24,2.07.71.58.48.98,1.14,1.19,1.99.29-.81.76-1.47,1.4-1.97.64-.5,1.36-.75,2.16-.75.64,0,1.22.16,1.73.47.51.31.92.77,1.22,1.36.3.6.45,1.3.46,2.13v7.25s-.66,0-.66,0v-7.22c-.01-1.04-.28-1.85-.8-2.46-.53-.6-1.22-.9-2.07-.9-.62,0-1.18.18-1.68.54-.5.36-.9.83-1.18,1.41-.29.58-.43,1.19-.43,1.84v6.8s-.66,0-.66,0v-7.22c-.01-1.04-.28-1.85-.81-2.46-.53-.6-1.22-.9-2.07-.9-.63,0-1.2.18-1.7.53-.5.35-.9.82-1.18,1.4s-.43,1.2-.43,1.86v6.8s-.66,0-.66,0l-.02-10.98Z"/>
        <path class="cls-1" d="M312.76,236.49c-.33.6-.82,1.08-1.46,1.42-.64.34-1.36.52-2.17.52s-1.49-.16-2.11-.48-1.11-.76-1.46-1.33c-.35-.57-.53-1.2-.53-1.9s.18-1.35.53-1.91c.36-.56.84-1,1.47-1.32.62-.32,1.32-.47,2.09-.48.81,0,1.53.17,2.16.5s1.11.8,1.45,1.38v-2c0-1.01-.32-1.81-.93-2.4s-1.45-.89-2.5-.89c-.62,0-1.22.11-1.83.33-.6.22-1.17.54-1.7.96l-.34-.55c.59-.45,1.22-.79,1.89-1.02.67-.23,1.33-.35,1.97-.35,1.23,0,2.22.35,2.97,1.07.75.71,1.13,1.66,1.13,2.85v7.29s-.6,0-.6,0l-.05-1.7ZM311.75,236.95c.66-.58.98-1.33.98-2.24s-.33-1.65-.99-2.23-1.51-.87-2.54-.87-1.88.29-2.53.86c-.65.58-.97,1.32-.97,2.25s.33,1.66.99,2.24,1.5.87,2.52.87,1.88-.29,2.54-.88Z"/>
        <path class="cls-1" d="M318.66,241.86c-.95-.39-1.78-.95-2.51-1.68l.42-.48c.66.67,1.43,1.19,2.3,1.56s1.78.55,2.7.55c1.57,0,2.81-.45,3.73-1.34.91-.89,1.37-2.11,1.37-3.65v-1.85c-.45.95-1.13,1.71-2.04,2.27s-1.95.84-3.13.85c-1.06,0-2.03-.24-2.9-.72-.87-.48-1.55-1.14-2.04-1.98-.49-.84-.74-1.78-.74-2.83s.24-2,.73-2.86c.49-.85,1.17-1.52,2.03-2.01.87-.48,1.83-.73,2.9-.73,1.18,0,2.22.28,3.14.86s1.6,1.35,2.05,2.33v-2.96s.65,0,.65,0l.02,9.62c0,1.15-.23,2.15-.7,2.99-.47.85-1.14,1.5-2.01,1.96-.88.46-1.89.69-3.05.69-.99,0-1.96-.19-2.91-.58ZM324.17,236.85c.78-.43,1.38-1.03,1.82-1.78.44-.75.66-1.59.66-2.53s-.22-1.77-.67-2.53c-.44-.76-1.05-1.36-1.83-1.79-.78-.43-1.65-.65-2.62-.65s-1.83.22-2.6.66c-.77.44-1.37,1.03-1.8,1.79-.43.76-.65,1.6-.65,2.54s.22,1.78.66,2.53c.43.75,1.04,1.34,1.82,1.77.78.43,1.64.65,2.59.65s1.84-.22,2.61-.66Z"/>
        <path class="cls-1" d="M330.49,224.59c-.11-.11-.16-.24-.16-.41s.05-.3.16-.41c.1-.11.25-.16.43-.16.17,0,.31.05.42.16.11.11.17.24.17.41s-.06.3-.17.41c-.11.1-.25.16-.42.16-.18,0-.33-.05-.43-.16ZM330.59,227.18h.67s.02,10.98.02,10.98h-.67s-.02-10.98-.02-10.98Z"/>
        <path class="cls-1" d="M336.56,237.64c-.88-.5-1.56-1.18-2.06-2.04-.5-.87-.75-1.84-.75-2.92s.25-2.05.74-2.93c.49-.88,1.18-1.56,2.04-2.06.87-.5,1.84-.75,2.92-.75,1.15,0,2.16.25,3.04.77.87.52,1.56,1.22,2.05,2.12l-.59.25c-.44-.78-1.03-1.4-1.8-1.84-.76-.45-1.66-.67-2.7-.67-.95,0-1.81.22-2.58.67-.77.44-1.37,1.05-1.8,1.83-.43.78-.65,1.65-.65,2.62s.22,1.83.66,2.6c.43.77,1.04,1.37,1.81,1.81.77.44,1.63.66,2.58.66,1.05,0,1.96-.23,2.73-.69.77-.46,1.37-1.1,1.8-1.93l.59.27c-.46.94-1.13,1.67-2.02,2.19s-1.92.78-3.1.78c-1.06,0-2.03-.25-2.91-.74Z"/>
      </g>
    </g>
  </g>
</svg>