<?xml version="1.0" encoding="UTF-8"?>
<svg id="Capa_2" data-name="Capa 2" xmlns="http://www.w3.org/2000/svg" viewBox="0 0 381.53 242.51">
  <defs>
    <style>
      .cls-1 {
        fill: #4f5d8d;
      }

      .cls-2 {
        fill: #8fa7d7;
      }

      .cls-3 {
        fill: #ffd685;
      }
    </style>
  </defs>
  <g id="LOGO">
    <g>
      <path class="cls-2" d="M52.87,76.54c0-3.73,1.4-10.8,0-14.45-2.25-5.75-4.66-10.64-6.99-14.84v80.94c0,10.95.93,22.37-2.1,33.01-2.8,10.25-12.04,20.35-23.77,18.8-5.2-.62-13.28-11.5-6.45-15.3-3.81,2.17-7.53,4.66-10.25,8.16-8.16,10.64,0,24.39,10.95,28.97,6.76,2.87,14.91,2.33,21.21-1.4,6.6-3.88,11.03-10.87,13.28-18.18.85-2.8,1.55-5.67,2.1-8.54,4.12-20.51,2.02-43.34,2.02-63.85v-33.32Z"/>
      <path class="cls-2" d="M131.87,13.7c-3.39-.86-7.14-.36-10.22,1.36-6.56,3.66-8.91,12.98-9.72,19.94-1,8.37,0,16.82,0,25.19v33.51h-.45c-4.84.32-9.5,1.27-13.7,2.8-.36.14-.72.27-1.04.41v-40.47c-.54,1.81-1.49,5.29-2.89,10.4-1.45,5.06-2.58,9-3.39,11.8s-1.85,6.15-3.03,10.13c-1.22,3.93-2.31,7.33-3.26,10.17.63,1.9,1.27,3.66,1.94,5.25-.18.14-.36.32-.5.5-.36.45-.72.9-1.04,1.36-2.67,3.8-3.71,8.18-3.08,12.8.05.32.09.63.14.95-1.36-1.13-2.58-2.35-3.8-3.66-2.53-2.8-4.93-6.69-7.19-11.62-2.26-4.88-4.2-10.08-5.83-15.56-1.63-5.47-3.26-11.26-4.88-17.27-1.63-6.06-3.26-11.85-4.93-17.41-1.67-5.52-3.48-10.58-5.43-15.19-1.94-4.57-4.25-8.37-6.92-11.35-2.71-2.94-5.65-4.75-8.91-5.29-3.84-.63-7.19.32-9.99,2.89-2.85,2.58-4.16,5.61-3.93,9.13.05,2.89,1.04,5.2,2.98,7.05,1.9,1.85,4.21,2.22,6.87,1.13,1.94-.81,3.3-2.17,3.98-4.07.72-1.9.41-3.93-.86-6.1,1.85-.54,3.53-.63,5.02-.23,1.45.41,2.67,1.18,3.62,2.35.95,1.13,1.58,2.49,1.81,4.07.45,2.85-.5,5.43-2.85,7.69-2.35,2.26-5.65,3.44-9.95,3.44-2.8,0-5.34-.81-7.64-2.4-2.31-1.58-4.11-3.57-5.38-6.01-1.27-2.44-1.94-5.06-2.08-7.87-.14-3.26.5-6.38,1.85-9.27,1.36-2.94,3.53-5.38,6.56-7.37,2.98-1.99,6.51-3.03,10.58-3.07,3.12,0,6.01.45,8.77,1.36,2.76.9,5.25,2.13,7.42,3.66,2.17,1.54,4.3,3.48,6.33,5.92,1.99,2.44,3.75,4.93,5.25,7.46,1.49,2.53,2.98,5.52,4.48,8.95,1.49,3.39,2.76,6.6,3.8,9.68,1.04,3.03,2.13,6.51,3.26,10.4,1.18,3.89,2.13,7.33,2.89,10.4.81,3.03,1.72,6.47,2.71,10.4,1.04,3.89,1.9,7.1,2.67,9.72.59-1.99,2.98-10.4,7.23-25.37,4.21-14.92,7.51-25.55,9.86-31.92,2.94-7.91,7.05-17,14.79-21.34.41-.23.81-.45,1.22-.63,5.43-2.53,12.16-2.44,16.87,1.22Z"/>
      <path class="cls-2" d="M190.33,24.1c-.36.36-.86.5-1.49.36-3.44-.36-6.56.41-9.41,2.31-2.85,1.94-5.79,4.84-8.73,8.82-2.62,3.48-5.25,7.78-7.78,12.8-2.58,5.02-5.38,11.17-8.5,18.36-3.08,7.24-5.34,12.34-6.78,15.37.05,8.09,1.81,17.73-2.44,24.96-.9-1.31-2.08-2.62-3.39-3.89-1.85-1.72-3.8-3.12-5.92-4.25-.27-.18-.59-.32-.86-.45.77-2.67,1.09-5.43,1.04-8.18,0-2.31-.27-4.66-.86-6.87-.27-1.13-.27-3.17-.72-4.11-.14-.41-12.07-27.58-12.07-27.58-1.09-2.31-1.76-4.48-2.08-6.6-.77-5.15.41-9.09,3.53-11.76,2.4-2.03,4.97-2.58,7.6-1.67,2.94.99,4.52,3.53,4.75,7.51-1.81-.77-3.53-.9-5.02-.41-1.58.5-2.89,1.31-3.93,2.44-1.09,1.18-1.67,2.67-1.9,4.52-.23,1.85.09,3.71.9,5.56l1.94,4.66,8.23,18.81c.68-1.49,1.45-3.3,2.31-5.43.9-2.08,1.67-3.98,2.31-5.61.68-1.67,1.45-3.53,2.31-5.56.9-2.08,1.72-3.93,2.49-5.61.77-1.67,1.63-3.48,2.58-5.34.99-1.9,1.94-3.66,2.94-5.25,1-1.63,2.04-3.17,3.12-4.75,1.13-1.54,2.26-3.03,3.48-4.39,1.27-1.36,2.58-2.67,3.93-3.8,3.62-3.07,7.6-5.2,11.98-6.38,4.39-1.18,9.45-1.36,15.28-.63.77.14,1.22.41,1.45.81.18.45.09.86-.27,1.22Z"/>
      <path class="cls-2" d="M205.75,51.32c1.27,1.85,2.85,3.12,4.66,3.8,1.85.68,3.57.77,5.16.32,1.63-.45,3.03-1.31,4.2-2.58,1.22-1.27,1.94-2.76,2.17-4.43.36-3.03-.05-5.74-1.22-8.28-1.18-2.49-2.85-4.48-5.11-6.01-2.22-1.49-4.84-2.67-7.82-3.48-2.99-.81-6.01-1.18-9.09-1.13-3.08.09-6.1.59-9.09,1.54-3.03.99-5.61,2.35-7.78,4.16-3.35,2.71-5.38,6.15-6.19,10.22-.81,4.11-.41,8.09,1.22,11.94.81,2.17,2.44,4.61,4.88,7.28,2.4,2.67,4.97,5.25,7.69,7.69,2.67,2.44,5.38,4.88,8,7.37,2.67,2.49,4.88,4.97,6.6,7.51,1.76,2.53,2.62,4.84,2.62,6.87,0,3.3-.81,6.29-2.49,9-1.63,2.67-3.71,4.21-6.2,4.66-2.8.54-5.29-.14-7.42-1.94-2.17-1.85-2.76-4.02-1.85-6.56.23-.72.63-1.36,1.18-1.9s1.22-1.04,2.04-1.4c.77-.41,1.72-.63,2.71-.68-.81-2.22-2.22-3.8-4.2-4.75-1.94-.95-3.89-1.18-5.88-.68-1.99.5-3.62,1.45-4.79,2.89-1.4,1.81-1.94,3.71-1.67,5.74.27,1.99,1.04,3.93,2.35,5.79,1.27,1.81,2.85,3.26,4.66,4.3,4.07,2.35,8.59,3.35,13.43,3.07,2.8-.18,5.47-.86,8-1.99,2.58-1.18,4.84-2.67,6.74-4.48,1.94-1.85,3.53-4.02,4.79-6.47,1.27-2.49,1.94-5.11,2.04-7.91.09-2.8-.41-5.7-1.58-8.73-.95-2.53-2.67-5.11-5.11-7.78-2.44-2.67-4.97-5.06-7.64-7.28-2.62-2.22-5.2-4.48-7.73-6.78-2.49-2.31-4.48-4.84-6.01-7.6-1.58-2.76-2.26-5.52-2.13-8.37.18-2.98,1.27-5.56,3.26-7.64,1.94-2.08,4.48-3.12,7.55-3.12,2.85,0,5.24,1.09,7.23,3.21,1.99,2.17,2.89,4.97,2.71,8.46-.09,1.22-.59,2.4-1.4,3.53-.81,1.13-1.94,2.03-3.48,2.62Z"/>
      <path class="cls-2" d="M289.59,2.53c-.86-1.72-2.22-2.53-4.07-2.53-1.99.05-3.21,1.18-3.71,3.44.23,1.27.14,2.44-.36,3.62-2.13,5.02-8.77,5.74-13.38,6.87-6.92,1.72-14.2,1.85-21.21.5-6.38-1.31-12.44-3.84-18.81-5.11-6.38-1.27-13.43-1.13-18.81,2.58-2.8,1.9-5.11,5.15-4.61,8.55.59,4.3,5.29,6.87,9.63,7.1,3.17.14,6.47-.45,7.14-4.16.32-1.76-.32-3.62-1.63-4.84.14,1.13-1.49,1.85-2.4,1.18-.95-.63-1.04-2.08-.45-3.03.59-.99,1.63-1.58,2.71-1.94,3.26-1.13,6.83-.68,10.17.09,5.97,1.36,11.76,4.07,18.04,4.07h1.27l.14,6.1v71.17c0,3.26-.27,5.29-.81,6.06-.14.18-.63.45-1.49.81-.86.36-1.31.86-1.31,1.54,0,.23.09.5.27.72.18.23.41.45.72.59.32.14.63.23,1,.23h17.54c.59,0,1.09-.14,1.4-.45.32-.32.5-.68.5-1.18s-.41-.95-1.18-1.36c-.77-.41-1.27-.77-1.45-1.09-.5-.86-.72-2.85-.72-5.97V18.63c2.89-.14,5.34-.32,7.33-.5,1.99-.23,3.98-.54,5.97-.99,1.99-.45,3.75-1.13,5.29-1.94,1.54-.86,2.89-1.9,4.11-3.17,3.44-3.62,4.48-6.78,3.17-9.5Z"/>
      <g>
        <path class="cls-3" d="M297.93,36.47v.05c.05.86-.27,1.36-.95,1.63-1.99.77-3.57,1.76-4.7,2.94-1.18,1.22-1.94,2.8-2.4,4.7-.14.77-.68,1.18-1.54,1.18-.9,0-1.45-.41-1.58-1.18-.68-3.21-3.08-5.79-7.14-7.64-.59-.32-.9-.77-.9-1.54v-.09c0-.77.36-1.22,1.04-1.45,3.48-.95,5.83-3.48,7.01-7.64.18-.72.72-1.09,1.54-1.09s1.36.36,1.58,1.09c1.45,4.52,3.75,7.1,6.87,7.64.77.18,1.18.63,1.18,1.4Z"/>
        <path class="cls-2" d="M299.35,104.17c0,.55-.18,1.02-.5,1.36-.36.38-.81.59-1.4.59h-17.54c-.54,0-.99-.21-1.4-.59-.41-.34-.59-.76-.59-1.19,0-.59.18-1.06.54-1.32.36-.3.77-.55,1.27-.72.5-.21.81-.47.99-.76.54-.81.81-3.14.81-6.93v-35.52c0-3.4-.41-5.74-1.27-6.97-.18-.3-.54-.59-.99-.93-.5-.34-.77-.55-.81-.64-1.04-.98-1.22-2-.54-3.1.27-.43.59-.72.9-.85,0,.72.32,1.15.9,1.44,4.07,1.74,6.47,4.16,7.14,7.18.14.72.68,1.1,1.58,1.1s1.4-.38,1.54-1.1c.45-1.78,1.22-3.27,2.4-4.42,1.13-1.1,2.71-2.04,4.7-2.76.68-.26.99-.72.95-1.53v-.04c.63-.17,1.13.21,1.49,1.06.54,1.19.27,2.21-.81,3.02-.81.64-1.36,1.23-1.63,1.87-.72,1.44-1.09,3.7-1.09,6.67v35.52c0,3.57.23,5.86.72,6.84.18.34.63.72,1.45,1.19.77.47,1.18.93,1.18,1.53Z"/>
      </g>
      <path class="cls-2" d="M352.03,61.32c-2.89-3.93-7.23-6.15-13.02-6.6-8.95-.81-16.55,1.18-22.74,5.88-5.92,4.39-9.54,10.17-10.85,17.36-1.4,7.28,0,13.66,4.16,19.13,1.99,2.62,4.39,4.75,7.23,6.38.86-.95,1.81-1.85,2.85-2.71,1.4-1.13,2.89-2.17,4.52-3.03-2.53-3.3-3.93-7.19-4.25-11.62-.36-4.52,0-9,1.04-13.43,1-4.43,3.17-8.05,6.51-10.85,3.3-2.8,7.28-3.93,11.89-3.3,4.16.54,7.1,2.26,8.77,5.15,1.76,2.98,1.99,5.97.63,8.86-.77,1.85-2.08,3.12-3.93,3.8-1.81.63-3.48.59-4.93-.18-1.45-.81-2.08-2.13-1.99-3.98.14-1.76,1.58-3.3,4.25-4.61-1.13-1.4-2.49-2.35-4.12-2.8-1.67-.5-3.17-.59-4.57-.23-1.45.32-2.67.95-3.71,1.94-1.09.95-1.67,2.08-1.85,3.35-.36,2.35.36,4.43,2.22,6.24,1.81,1.81,4.07,3.03,6.78,3.71,2.67.63,5.47.68,8.46.05,2.98-.68,5.38-2.03,7.1-4.12,1.58-1.94,2.31-4.25,2.22-6.87-.09-2.67-.95-5.15-2.67-7.51Z"/>
      <g>
        <path class="cls-1" d="M90.89,125.35c.63.38,1.37.66,2.09.91.47.14.85.22,1.37.25-1.24-.36-2.36-.71-3.46-1.15Z"/>
        <g>
          <path class="cls-1" d="M155.15,175.94c-.32,5.56-2.17,10.54-5.52,14.88-3.35,4.34-7.46,7.64-12.3,9.95-4.84,2.31-10.13,3.71-15.78,4.3-1.67.18-3.35.23-4.97.23-3.84,0-7.55-.45-11.08-1.36-5.06-1.27-9.5-3.66-13.29-7.19-3.84-3.53-6.29-7.91-7.33-13.16-.45-2.98-.5-5.88-.04-8.73.41-2.85,1.49-5.56,3.21-8.14,1.72-2.53,3.98-4.66,6.78-6.33v-17.82c0-3.44-.45-5.83-1.4-7.14-.14-.14-.27-.27-.5-.45-.18-.18-.36-.32-.54-.41-.18-.09-.36-.18-.54-.32-.18-.14-.32-.27-.41-.32-1.13-.99-1.31-2.08-.59-3.17.36-.63.81-.9,1.36-.9.27,0,.54.05.81.18,1.18.68,2.4.99,3.66.99.81,0,1.63-.14,2.49-.41,2.03-.59,3.8-1.45,5.24-2.53.05-.05.14-.09.18-.14,1.04-.81,2.13-1.67,3.21-2.53.41-.32.86-.68,1.27-.99,1.54-1.22,2.58-1.9,3.17-2.03.32-.09.63-.14.86-.14.81,0,1.36.41,1.67,1.18.45,1.04.09,1.94-1.04,2.8-.86.63-1.45,1.27-1.76,1.9-.27.54-.54,2.53-.81,6.01-.27,3.53-.41,6.33-.41,8.55v13.84c5.34.27,9.86,2.17,13.7,5.74,3.8,3.62,5.52,8,5.11,13.25-.14,2.44-.95,4.61-2.53,6.51-1.54,1.9-3.39,3.21-5.52,3.98-.99.36-2.08.54-3.17.54-1.22,0-2.44-.23-3.75-.63-2.49-.81-4.66-2.53-6.51-5.11,3.98-2.67,5.97-5.7,5.97-9.09.05-2.62-.54-4.7-1.85-6.15-1.31-1.45-2.94-2.22-4.93-2.31-2.71,0-5.02,1.09-6.87,3.21-1.85,2.13-2.94,4.75-3.3,7.96-.41,3.17-.27,6.56.32,10.13.59,2.85,1.58,5.43,2.94,7.73,1.36,2.31,2.94,4.07,4.75,5.38,1.76,1.27,3.71,2.31,5.79,3.03,1.76.59,3.53.9,5.34.9.36,0,.72-.05,1.09-.05,2.22-.18,4.34-.63,6.42-1.31,2.13-.68,4.07-1.81,5.88-3.35,1.85-1.49,3.44-3.3,4.79-5.34,1.36-1.99,2.4-4.43,3.08-7.23.72-2.85.95-5.88.77-9.13-.36-6.74-2.26-13.02-5.79-18.81-3.53-5.74-7.73-9.18-12.62-10.22-1.09-.27-1.76-.63-2.08-1.04-.27-.45-.27-.86,0-1.27.32-.41.68-.68,1.18-.9,2.49-1.31,4.61-3.26,6.29-5.74,1.72-2.53,2.89-5.25,3.57-8.14.63-2.89.81-5.88.5-8.95-.18-1.49-.45-2.94-.86-4.34-.36-1.45-.86-2.8-1.45-4.07-1.18-2.53-2.98-4.61-5.38-6.29-1.22-.86-2.58-1.49-3.98-1.94-1.36-.41-2.8-.68-4.3-.72h-1.4c-3.48.09-6.56,1.09-9.22,3.03-2.08,1.49-3.39,3.35-3.93,5.47-.32.99-.41,2.03-.36,3.17.23,2.71,1.99,5.06,5.29,7.05-.63.95-1.31,1.81-2.04,2.49-.9.86-1.94,1.54-3.03,1.94-1.18.45-2.31.68-3.44.68-.27,0-.5,0-.77-.05-.05,0-.09-.04-.09-.04-1.22-.36-2.35-.72-3.44-1.18-.95-.5-1.81-1.22-2.58-2.08-1.36-1.45-2.17-3.12-2.35-5.06-.5-3.53.27-6.69,2.22-9.45.27-.36.54-.72.86-1.09,2.08-2.4,4.61-4.34,7.69-5.79.86-.45,1.72-.81,2.62-1.13,3.89-1.45,8.09-2.26,12.57-2.53.45-.05.95-.09,1.4-.09h1.31c4.84,0,9.22.68,13.29,2.13,1.49.5,2.85,1.09,4.16,1.81.54.23,1.04.5,1.54.81,1.9.99,3.57,2.22,5.02,3.57,1.4,1.36,2.62,2.8,3.62,4.34.68.95,1.22,1.9,1.72,2.94.32.54.59,1.13.81,1.72,1.4,3.35,1.95,6.78,1.67,10.17-.23,3.44-1.45,6.78-3.53,10.13-2.08,3.3-4.97,6.15-8.68,8.55,7.28,3.53,12.71,8.09,16.28,13.79,3.53,5.65,5.06,11.62,4.61,17.86Z"/>
          <path class="cls-1" d="M90.89,125.35c.63.38,1.37.66,2.09.91.47.14.85.22,1.37.25-1.24-.36-2.36-.71-3.46-1.15Z"/>
        </g>
        <path class="cls-1" d="M207.44,133.76c-1.37-2.75-3.19-5.19-5.57-7.41-2.44-2.22-5.52-3.93-9.31-5.19-3.82-1.32-8.04-1.87-12.77-1.78-4.5.19-8.68.88-12.44,2.14-3.79,1.35-6.73,3.29-9.03,5.82-2.25,2.58-3.16,5.6-2.75,9.06.25,1.7.93,3.18,2.11,4.5,1.18,1.26,2.58,2.14,4.15,2.53,1.59.47,3.27.38,5.08-.3,1.81-.71,3.35-2,4.56-3.93-3.02-1.65-4.61-3.68-4.78-6.12-.14-3.02,1.07-5.41,3.73-7.19,2.66-1.84,5.79-2.61,9.36-2.47,2.5.14,4.61.69,6.56,1.76,1.87,1.1,3.4,2.5,4.53,4.2,1.07,1.73,1.98,3.62,2.58,5.71.58,2.09.91,4.26.91,6.45,0,2.77-.47,5.35-1.32,7.74-.91,2.44-2,4.56-3.4,6.42-1.4,1.84-2.94,3.57-4.61,5.27-1.67,1.67-3.38,3.27-5.05,4.8-1.68,1.48-3.21,3.02-4.59,4.56-1.35,1.46-2.47,3.13-3.38,4.94-.91,1.7-1.35,3.57-1.35,5.55,0,.77.14,1.51.38,2.06.69-.96,1.18-2.09,1.59-3.46.19-.58.63-.85,1.35-.91.74,0,1.18.27,1.32.91.41,1.32.91,2.5,1.54,3.4.41-.69.6-1.54.6-2.53,0-1.59.58-3.19,1.78-4.72,1.24-1.48,2.83-2.94,4.72-4.28,1.95-1.26,4.06-2.64,6.43-4.04,2.33-1.4,4.64-2.94,6.95-4.56,2.36-1.67,4.45-3.43,6.34-5.3,1.84-1.84,3.38-4.06,4.48-6.67,1.07-2.64,1.59-5.44,1.46-8.43-.11-2.88-.88-5.79-2.17-8.54Z"/>
        <path class="cls-1" d="M262.32,126.37c-.55-1.29-1.54-2.39-2.88-3.24-1.37-.88-2.91-1.26-4.72-1.26.49,2.17.49,4.01-.03,5.52-.49,1.48-1.46,2.53-2.8,3.19-1.37.66-2.91,1.1-4.59,1.32-1.68.27-3.6.33-5.82.14-2.17-.14-4.2-.36-6.1-.55-1.92-.22-3.9-.44-5.99-.71-2.03-.22-3.65-.36-4.89-.36-3.38.05-6.18.69-8.32,1.84-2.17,1.15-3.49,3.18-4.01,6.07-.27,1.4-.19,2.8.3,4.26.49,1.46,1.26,2.61,2.36,3.57,1.07.96,2.25,1.67,3.57,2.11,1.32.47,2.72.52,4.28.05,1.54-.41,2.94-1.35,4.17-2.86-2.5-.49-4.06-1.67-4.8-3.51-.66-1.89-.49-3.62.55-5.22,1.04-1.62,2.58-2.33,4.53-2.17,1.35.11,3.24.52,5.68,1.24v58.02c0,2.99-.27,4.83-.71,5.55-.14.14-.58.41-1.35.74-.77.3-1.18.77-1.18,1.4,0,.27.08.49.22.71.19.22.41.36.69.49.27.14.52.25.85.25h15.82c.55,0,.96-.14,1.26-.47.27-.3.41-.69.41-1.07,0-.47-.3-.88-1.04-1.24-.71-.41-1.13-.71-1.29-.99-.41-.77-.63-2.58-.63-5.44v-53.81c1.7.33,3.65.47,5.77.38,2.17-.11,4.09-.6,5.77-1.54,1.76-.96,3.1-2.17,4.09-3.68,1.04-1.48,1.54-2.99,1.59-4.48.08-1.48-.19-2.94-.77-4.26Z"/>
        <path class="cls-1" d="M300.08,193.78c-.41,0-.69.22-.91.58-.22.36-.44.8-.63,1.21-.19.49-.41.74-.69.96-.77.52-2.53.8-5.38.8h-10.71v-32.07c.14-3.08.49-5.41.99-7.08.49-1.7,1.46-2.8,2.8-3.29,1.4-.58,2.58-.58,3.54,0,.63.38,1.07.91,1.4,1.54.3.69.41,1.37.27,2.06-.19.69-.41,1.37-.82,2-.36.63-.91,1.13-1.62,1.48-.77.33-1.54.49-2.36.44,0,1.21.41,2.25,1.13,3.21.77.96,1.67,1.65,2.72,2.06,1.04.44,2.03.52,3.08.33,2.58-.38,4.34-2.06,5.35-5.02.99-3.02.8-5.71-.55-8.18-1.4-2.66-3.71-4.23-6.97-4.72-3.24-.47-6.23.52-8.95,2.97v-33.66h10.71c2.86,0,4.61.27,5.38.8.27.16.6.69.96,1.48.36.85.77,1.26,1.26,1.26.27,0,.49-.05.71-.22.25-.11.38-.3.49-.63.19-.3.25-.74.25-1.15,0-.74-.05-1.37-.19-1.89-.08-.49-.16-.96-.3-1.35-.11-.36-.33-.69-.6-.88-.3-.22-.58-.44-.77-.52-.22-.11-.58-.22-1.07-.33-.49-.05-.88-.05-1.15-.05h-2.94c-2.03.11-4.34.16-6.81.16s-4.75,0-6.75-.05c-1.92,0-4.28-.05-6.95-.05-2.72-.05-4.94-.05-6.75-.05-.49,0-.91.16-1.21.52-.33.33-.49.69-.49,1.07-.05.8.3,1.32,1.13,1.73.77.38,1.21.63,1.32.85.49.74.77,2.91.77,6.34v63.84c0,3.49-.27,5.6-.77,6.4-.11.19-.55.47-1.32.85-.82.36-1.18.88-1.13,1.62,0,.44.16.8.49,1.13.3.3.71.47,1.21.47,2.03,0,4.89,0,8.59-.05,3.71,0,7.11-.05,10.13-.05s5.88.05,8.54.11c.47,0,1.1.05,1.92.11.85.05,1.43.11,1.81.11.36,0,.8-.11,1.35-.27.55-.16.91-.36,1.07-.74.19-.36.41-.85.6-1.54.16-.63.27-1.54.27-2.58,0-.63-.14-1.15-.47-1.48-.3-.36-.63-.52-.99-.52Z"/>
        <path class="cls-1" d="M373.18,118.19c-.22,2.22-1.18,4.15-2.75,5.88-1.65,1.67-3.49,2.86-5.57,3.43-2.09.6-4.34.41-6.7-.49-2.33-.91-4.42-2.58-6.15-5.02,2-.71,3.49-1.81,4.59-3.29,1.04-1.48,1.68-3.02,1.81-4.61.27-4.48-.91-8.13-3.4-10.9l.08-.08c.47-.52.85-1.07,1.15-1.59.71-1.15,1.26-2.36,1.59-3.73.16-.55.27-1.1.33-1.67,2.47.93,4.75,2.09,6.75,3.46,2.94,2.03,5.16,4.67,6.73,7.88,1.59,3.24,2.09,6.84,1.54,10.76Z"/>
      </g>
      <path class="cls-2" d="M356.19,95.15c0,.66-.11,1.26-.27,1.89-.27,1.04-.69,2.03-1.32,3.02-.22.41-.55.82-.91,1.24-.44.52-1.04,1.07-1.73,1.57-1.13.91-2.42,1.67-3.87,2.31-1.45.69-3.16,1.24-5.24,1.65-2.03.44-4.26.63-6.7.63-.96,0-1.89,0-2.8-.11.58-1.4,1.35-2.66,2.36-3.84.11.05.25.05.38.05.38.03.74.05,1.1.05,1.29,0,2.5-.22,3.57-.6,1.4-.44,2.44-1.13,3.08-1.98.55-.69.91-1.4,1.1-2.22.03-.19.08-.41.08-.58.14-1.02-.08-2-.63-2.94-.36-.66-.96-1.24-1.73-1.78-.3-.22-.63-.44-1.04-.66-1.26-.69-2.83-1.15-4.75-1.32,1.24-2.22,3.13-3.68,5.63-4.39,1.13-.3,2.25-.44,3.35-.44,1.37,0,2.75.22,4.09.66,2.44.88,4.2,2.17,5.22,3.98.52.88.91,1.76.99,2.72.05.36.08.71.05,1.1Z"/>
      <path class="cls-1" d="M371.44,192.54c-7.47,5.74-17.11,8.9-28.86,9.44-11.89.55-21.55-1.81-28.94-7.08-5.68-4.17-8.9-9.61-9.58-16.2-.63-6.29,1.4-11.83,6.15-16.69,4.69-4.78,11.75-7.5,21.17-8.13,4.56-.33,8.84.08,12.93,1.32,4.06,1.15,7.44,3.29,10.21,6.37,2.75,3.08,4.01,6.84,3.79,11.2-.22,2.94-1.26,5.52-3.1,7.8-1.87,2.2-4.04,3.79-6.54,4.7-2.47.91-5.19.85-8.21-.08-2.99-1.02-5.63-3.05-7.8-6.12,4.72-3.16,7.11-6.73,7.19-10.76,0-3.08-.77-5.38-2.33-6.86-1.59-1.48-3.62-2.25-6.07-2.36-4.17-.08-7.41,1.95-9.8,6.12-2.36,4.09-3.27,8.76-2.72,13.95.55,5.57,2.86,9.97,6.86,13.26,4.04,3.35,8.65,4.94,13.84,4.89,3.49-.08,6.73-.99,9.8-2.66,3.08-1.73,5.57-3.95,7.47-6.7,1.89-2.75,3.29-5.74,4.26-8.9.96-3.21,1.18-6.48.77-9.77-.44-3.29-1.59-6.23-3.49-8.79-2.22-3.1-5.24-5.55-9.14-7.19-3.82-1.65-7.93-2.66-12.27-2.97-.96-.05-1.87-.11-2.83-.11-5.19-3.32-9.53-6.51-12.96-9.53-3.43-3.02-6.12-6.7-8.1-10.96-2.36-4.97-2.99-10.1-1.87-15.46.91-4.12,2.72-7.69,5.52-10.79.88-.96,1.81-1.87,2.86-2.72,1.4-1.13,2.91-2.17,4.53-3.05,1.76-.93,3.62-1.76,5.66-2.39,1.59-.52,3.19-.93,4.8-1.24,1.15-.22,2.31-.41,3.46-.52.27.11.52.22.77.36.41.22.74.44,1.04.66.77.55,1.37,1.13,1.73,1.78.44.74.66,1.54.66,2.36-.85.11-1.67.27-2.44.55-1.02.3-1.95.74-2.83,1.29-.88.55-1.67,1.24-2.42,2.03-.22.27-.44.49-.66.77-1.02,1.18-1.78,2.44-2.36,3.84-.38.85-.69,1.73-.93,2.66-.22.93-.38,1.87-.47,2.86-.22,2.5.36,5.02,1.81,7.52,1.43,2.47,3.51,4.78,6.15,6.95,2.66,2.17,5.6,4.39,8.84,6.62,3.32,2.25,6.7,4.61,10.19,7.06,3.51,2.42,6.84,4.91,9.91,7.41,3.08,2.44,5.82,5.27,8.26,8.48,2.44,3.18,4.12,6.42,5.08,9.77,2.94,10.41-.05,19.08-9.01,26Z"/>
      <g>
        <path class="cls-1" d="M40.9,237.5c-1.15-.65-2.05-1.55-2.7-2.7-.65-1.15-.98-2.44-.98-3.86s.33-2.74.98-3.91,1.55-2.07,2.7-2.73c1.15-.66,2.44-.99,3.86-.99,1.55,0,2.89.35,4,1.05,1.11.7,1.99,1.69,2.64,2.98l-.61.27c-1.22-2.42-3.22-3.63-6.01-3.63-1.3,0-2.47.3-3.52.89s-1.86,1.42-2.45,2.48c-.59,1.06-.88,2.25-.88,3.58s.29,2.5.88,3.54,1.4,1.86,2.45,2.45,2.22.88,3.52.88c1.19,0,2.27-.27,3.23-.81.97-.54,1.74-1.29,2.33-2.25.59-.96.92-2.05,1.01-3.29h-6.87v-.63h7.58l-.02.38c-.08,1.43-.45,2.69-1.09,3.79-.64,1.1-1.5,1.95-2.57,2.56-1.07.61-2.27.91-3.6.91-1.44,0-2.74-.33-3.88-.98Z"/>
        <path class="cls-1" d="M55.65,237.33c-.71-.76-1.06-1.78-1.06-3.06v-7.01h.67v6.97c0,1.12.3,2,.89,2.65.59.64,1.39.97,2.38.97.69,0,1.31-.18,1.88-.56.57-.37,1.02-.88,1.34-1.52.33-.64.49-1.35.49-2.12v-6.38h.67v10.98h-.65l-.02-2.44c-.35.81-.87,1.46-1.55,1.94-.69.48-1.45.72-2.29.72-1.13,0-2.05-.38-2.76-1.14Z"/>
        <path class="cls-1" d="M68.33,237.78c-.87-.46-1.57-1.13-2.1-2-.53-.87-.8-1.88-.8-3.04,0-1.09.25-2.07.74-2.94.49-.87,1.17-1.55,2.04-2.04.87-.49,1.85-.74,2.94-.74,1.01,0,1.93.21,2.77.64.84.43,1.52,1.06,2.03,1.91.51.85.77,1.87.77,3.08,0,.17,0,.29-.02.38h-10.6c.04.98.3,1.83.79,2.56.48.73,1.1,1.29,1.85,1.67.75.39,1.56.58,2.43.58.94,0,1.8-.2,2.58-.6.78-.4,1.43-1.01,1.93-1.84l.52.36c-.57.91-1.3,1.59-2.17,2.04-.88.45-1.83.67-2.87.67s-1.95-.23-2.81-.69ZM76.06,232.43c-.03-1.05-.27-1.93-.72-2.66-.46-.72-1.05-1.26-1.77-1.61-.73-.35-1.53-.53-2.42-.53-.94,0-1.78.2-2.54.61-.76.41-1.35.97-1.8,1.7-.44.73-.68,1.55-.72,2.48h9.97Z"/>
        <path class="cls-1" d="M79.73,237.73c-.71-.5-1.22-1.19-1.51-2.07l.63-.21c.27.77.7,1.37,1.29,1.79.59.42,1.29.63,2.09.63.87,0,1.57-.22,2.12-.65.55-.43.82-.99.82-1.68,0-.5-.14-.91-.41-1.22s-.6-.55-.99-.72c-.39-.17-.96-.4-1.73-.66-.77-.27-1.39-.52-1.85-.77s-.83-.56-1.1-.93-.41-.85-.41-1.43c0-.81.32-1.48.96-1.99.64-.52,1.45-.78,2.45-.78.83,0,1.56.21,2.22.64s1.11,1,1.38,1.73l-.59.23c-.22-.63-.61-1.12-1.14-1.47-.54-.35-1.16-.53-1.86-.53-.83,0-1.49.2-2,.59-.5.39-.76.91-.76,1.55,0,.48.12.86.35,1.17.23.3.55.55.95.75s.96.41,1.67.65c.77.27,1.39.51,1.87.75.48.23.87.55,1.19.94.32.4.47.91.47,1.52,0,.56-.15,1.06-.46,1.5-.31.44-.73.79-1.28,1.04-.55.25-1.16.38-1.85.38-.95,0-1.79-.25-2.5-.75Z"/>
        <path class="cls-1" d="M88.91,237.73c-.71-.5-1.22-1.19-1.51-2.07l.63-.21c.27.77.7,1.37,1.29,1.79.59.42,1.29.63,2.09.63.87,0,1.57-.22,2.12-.65.55-.43.82-.99.82-1.68,0-.5-.14-.91-.41-1.22s-.6-.55-.99-.72c-.39-.17-.96-.4-1.73-.66-.77-.27-1.39-.52-1.85-.77s-.83-.56-1.1-.93-.41-.85-.41-1.43c0-.81.32-1.48.96-1.99.64-.52,1.45-.78,2.45-.78.83,0,1.56.21,2.22.64s1.11,1,1.38,1.73l-.59.23c-.22-.63-.61-1.12-1.14-1.47-.54-.35-1.16-.53-1.86-.53-.83,0-1.49.2-2,.59-.5.39-.76.91-.76,1.55,0,.48.12.86.35,1.17.23.3.55.55.95.75s.96.41,1.67.65c.77.27,1.39.51,1.87.75.48.23.87.55,1.19.94.32.4.47.91.47,1.52,0,.56-.15,1.06-.46,1.5-.31.44-.73.79-1.28,1.04-.55.25-1.16.38-1.85.38-.95,0-1.79-.25-2.5-.75Z"/>
        <path class="cls-1" d="M104.15,237.59c-.43-.52-.65-1.3-.65-2.35v-7.39h-2.02v-.59h1.26c.28,0,.47-.02.58-.05s.17-.11.2-.22c.03-.11.04-.32.04-.61v-1.6h.59v2.48h2.94v.59h-2.92v7.37c0,.91.16,1.56.49,1.94.33.38.88.58,1.65.58.24,0,.5-.02.8-.06v.63c-.29.04-.6.06-.9.06-.94,0-1.62-.26-2.06-.78Z"/>
        <path class="cls-1" d="M116.24,228.63c-.58-.64-1.37-.97-2.36-.97-.64,0-1.25.17-1.83.49-.57.33-1.04.81-1.41,1.44-.36.63-.55,1.39-.55,2.27v6.38h-.67v-15.33h.67v6.78c.35-.85.89-1.51,1.61-1.97.72-.46,1.49-.69,2.3-.69,1.13,0,2.05.38,2.74,1.14s1.04,1.77,1.04,3.03v7.04h-.67v-6.99c0-1.11-.29-1.98-.87-2.62Z"/>
        <path class="cls-1" d="M123.09,237.78c-.87-.46-1.57-1.13-2.1-2-.53-.87-.8-1.88-.8-3.04,0-1.09.25-2.07.74-2.94.49-.87,1.17-1.55,2.04-2.04.87-.49,1.85-.74,2.94-.74,1.01,0,1.93.21,2.77.64.84.43,1.52,1.06,2.03,1.91.51.85.77,1.87.77,3.08,0,.17,0,.29-.02.38h-10.6c.04.98.3,1.83.79,2.56.48.73,1.1,1.29,1.85,1.67.75.39,1.56.58,2.43.58.94,0,1.8-.2,2.58-.6.78-.4,1.43-1.01,1.93-1.84l.52.36c-.57.91-1.3,1.59-2.17,2.04-.88.45-1.83.67-2.87.67s-1.95-.23-2.81-.69ZM130.82,232.43c-.03-1.05-.27-1.93-.72-2.66-.46-.72-1.05-1.26-1.77-1.61-.73-.35-1.53-.53-2.42-.53-.94,0-1.78.2-2.54.61-.76.41-1.35.97-1.8,1.7-.44.73-.68,1.55-.72,2.48h9.97Z"/>
        <path class="cls-1" d="M140.87,223.58c.45-.52,1.18-.79,2.17-.79.36,0,.73.03,1.11.08v.59c-.34-.06-.69-.08-1.05-.08-.83,0-1.41.21-1.74.62-.34.41-.5,1.1-.5,2.07v1.2h3.26v.59h-3.26v10.39h-.67v-10.39h-2.29v-.59h2.29v-1.2c0-1.13.23-1.96.68-2.49Z"/>
        <path class="cls-1" d="M146.03,222.91h.67v15.33h-.67v-15.33Z"/>
        <path class="cls-1" d="M157.07,236.54c-.34.6-.82,1.08-1.46,1.42s-1.36.51-2.17.51-1.49-.16-2.11-.48c-.62-.32-1.11-.77-1.46-1.33-.35-.57-.53-1.2-.53-1.9s.18-1.35.54-1.91c.36-.56.85-1,1.47-1.31.62-.31,1.32-.47,2.09-.47.81,0,1.53.17,2.16.5.63.34,1.11.8,1.45,1.39v-2c0-1.01-.31-1.81-.92-2.4-.62-.59-1.45-.89-2.5-.89-.62,0-1.23.11-1.83.33-.6.22-1.17.54-1.7.96l-.34-.55c.59-.45,1.22-.79,1.89-1.02.67-.23,1.33-.35,1.97-.35,1.23,0,2.22.36,2.97,1.07.75.71,1.12,1.67,1.12,2.86v7.29h-.61l-.04-1.7ZM156.06,237c.66-.58.99-1.33.99-2.24s-.33-1.66-.99-2.24c-.66-.58-1.51-.87-2.54-.87s-1.88.29-2.53.86c-.65.57-.98,1.32-.98,2.25s.33,1.66.99,2.24c.66.58,1.5.87,2.52.87s1.88-.29,2.54-.87Z"/>
        <path class="cls-1" d="M159.36,227.26h.69l2.42,6.15,1.53,4.16,1.51-4.16,2.35-6.15h.71l-4.2,10.98h-.73l-4.28-10.98Z"/>
        <path class="cls-1" d="M172.41,237.73c-.89-.5-1.59-1.18-2.1-2.05-.51-.87-.77-1.84-.77-2.92s.26-2.05.77-2.93c.51-.88,1.21-1.56,2.1-2.06.89-.5,1.88-.75,2.97-.75s2.1.25,2.99.75c.89.5,1.59,1.18,2.09,2.06.5.88.76,1.85.76,2.93s-.25,2.05-.76,2.92c-.5.87-1.2,1.55-2.09,2.05s-1.89.75-2.99.75-2.08-.25-2.97-.75ZM178.03,237.18c.78-.44,1.4-1.05,1.85-1.82.45-.77.67-1.64.67-2.6s-.22-1.84-.67-2.61c-.45-.78-1.06-1.39-1.85-1.83-.78-.44-1.67-.66-2.65-.66s-1.86.22-2.65.66c-.78.44-1.4,1.05-1.85,1.83-.45.78-.67,1.65-.67,2.61s.22,1.83.67,2.6c.45.77,1.06,1.38,1.85,1.82.78.44,1.67.66,2.65.66s1.86-.22,2.65-.66Z"/>
        <path class="cls-1" d="M183.7,227.26h.67v2.44c.34-.78.84-1.4,1.5-1.85.66-.45,1.43-.67,2.3-.67.14,0,.28,0,.42.02v.65l-.42-.02c-1.15,0-2.07.38-2.76,1.14-.69.76-1.04,1.77-1.04,3.03v6.24h-.67v-10.98Z"/>
        <path class="cls-1" d="M188.81,238.14c-.12-.11-.18-.26-.18-.44s.06-.33.17-.43c.11-.1.27-.16.46-.16.18,0,.33.05.44.16.11.11.17.25.17.43s-.06.33-.17.44c-.11.11-.26.17-.44.17s-.33-.06-.45-.17Z"/>
        <path class="cls-1" d="M198.11,223.54h7.31v.67h-6.62v6.05h6.03v.67h-6.03v6.64h6.85v.67h-7.54v-14.7Z"/>
        <path class="cls-1" d="M214.6,228.63c-.6-.64-1.4-.97-2.4-.97-.69,0-1.31.19-1.88.56s-1.02.88-1.34,1.52c-.33.64-.49,1.35-.49,2.12v6.38h-.67v-10.98h.67v2.46c.35-.81.87-1.46,1.56-1.95.69-.49,1.46-.74,2.3-.74,1.13,0,2.05.38,2.76,1.14s1.06,1.78,1.06,3.06v7.01h-.67v-6.97c0-1.12-.3-2-.89-2.65Z"/>
        <path class="cls-1" d="M216.59,242.4v-.63c.25.04.5.06.74.06.76,0,1.31-.21,1.65-.63s.51-1.16.51-2.23v-11.72h.67v11.76c0,1.23-.22,2.11-.67,2.65-.45.53-1.14.8-2.08.8-.28,0-.55-.02-.82-.06ZM219.38,224.67c-.11-.11-.17-.24-.17-.41s.06-.3.17-.41.26-.16.44-.16c.17,0,.31.05.42.16s.17.24.17.41-.06.3-.17.41c-.11.1-.25.16-.42.16-.18,0-.33-.05-.44-.16Z"/>
        <path class="cls-1" d="M225.48,237.73c-.89-.5-1.59-1.18-2.1-2.05s-.77-1.84-.77-2.92.26-2.05.77-2.93,1.21-1.56,2.1-2.06c.89-.5,1.88-.75,2.97-.75s2.1.25,2.99.75c.89.5,1.58,1.18,2.09,2.06s.76,1.85.76,2.93-.25,2.05-.76,2.92-1.2,1.55-2.09,2.05c-.89.5-1.89.75-2.99.75s-2.08-.25-2.97-.75ZM231.1,237.18c.78-.44,1.4-1.05,1.85-1.82.45-.77.67-1.64.67-2.6s-.22-1.84-.67-2.61c-.45-.78-1.06-1.39-1.85-1.83-.78-.44-1.67-.66-2.65-.66s-1.86.22-2.65.66c-.78.44-1.4,1.05-1.85,1.83-.45.78-.67,1.65-.67,2.61s.22,1.83.67,2.6c.45.77,1.06,1.38,1.85,1.82.78.44,1.67.66,2.65.66s1.86-.22,2.65-.66Z"/>
        <path class="cls-1" d="M239.54,237.57l-4.33-10.31h.71l2.56,6.11,1.41,3.44,1.37-3.38,2.52-6.17h.73l-6.15,15.02h-.74l1.91-4.7Z"/>
        <path class="cls-1" d="M253.08,237.59c-.43-.52-.65-1.3-.65-2.35v-7.39h-2.02v-.59h1.26c.28,0,.47-.02.58-.05.11-.04.17-.11.2-.22.03-.11.04-.32.04-.61v-1.6h.59v2.48h2.94v.59h-2.92v7.37c0,.91.16,1.56.49,1.94.33.38.88.58,1.65.58.24,0,.5-.02.8-.06v.63c-.29.04-.6.06-.9.06-.94,0-1.62-.26-2.06-.78Z"/>
        <path class="cls-1" d="M265.17,228.63c-.58-.64-1.37-.97-2.36-.97-.64,0-1.25.17-1.83.49-.57.33-1.04.81-1.41,1.44-.36.63-.55,1.39-.55,2.27v6.38h-.67v-15.33h.67v6.78c.35-.85.89-1.51,1.61-1.97.72-.46,1.49-.69,2.3-.69,1.13,0,2.05.38,2.74,1.14.69.76,1.04,1.77,1.04,3.03v7.04h-.67v-6.99c0-1.11-.29-1.98-.87-2.62Z"/>
        <path class="cls-1" d="M272.02,237.78c-.87-.46-1.57-1.13-2.1-2s-.8-1.88-.8-3.04c0-1.09.25-2.07.74-2.94.49-.87,1.17-1.55,2.04-2.04.87-.49,1.85-.74,2.94-.74,1.01,0,1.93.21,2.77.64s1.51,1.06,2.03,1.91c.51.85.77,1.87.77,3.08,0,.17,0,.29-.02.38h-10.6c.04.98.3,1.83.79,2.56.48.73,1.1,1.29,1.85,1.67.75.39,1.56.58,2.42.58.94,0,1.8-.2,2.58-.6.78-.4,1.43-1.01,1.93-1.84l.52.36c-.57.91-1.3,1.59-2.17,2.04-.88.45-1.83.67-2.87.67s-1.95-.23-2.81-.69ZM279.75,232.43c-.03-1.05-.27-1.93-.72-2.66-.46-.72-1.05-1.26-1.77-1.61-.73-.35-1.53-.53-2.42-.53-.94,0-1.79.2-2.54.61s-1.35.97-1.79,1.7c-.44.73-.68,1.55-.72,2.48h9.97Z"/>
        <path class="cls-1" d="M288.11,227.26h.67v2.21c.32-.74.79-1.33,1.41-1.77.62-.44,1.29-.66,2.04-.66.8,0,1.49.24,2.07.71.58.48.98,1.14,1.19,2,.29-.81.76-1.47,1.41-1.96.64-.5,1.37-.75,2.16-.75.64,0,1.22.16,1.73.47.51.31.92.77,1.22,1.36.3.6.45,1.31.45,2.13v7.25h-.67v-7.22c0-1.04-.26-1.86-.79-2.46-.53-.6-1.21-.9-2.07-.9-.62,0-1.18.18-1.68.54-.5.36-.9.83-1.19,1.41-.29.58-.43,1.19-.43,1.84v6.8h-.67v-7.22c0-1.04-.26-1.86-.79-2.46-.52-.6-1.21-.9-2.07-.9-.63,0-1.2.17-1.7.53-.5.35-.9.82-1.19,1.4s-.43,1.2-.43,1.86v6.8h-.67v-10.98Z"/>
        <path class="cls-1" d="M312.66,236.54c-.34.6-.82,1.08-1.46,1.42-.64.34-1.36.51-2.17.51s-1.49-.16-2.11-.48-1.11-.77-1.46-1.33c-.35-.57-.52-1.2-.52-1.9s.18-1.35.54-1.91c.36-.56.85-1,1.47-1.31.62-.31,1.32-.47,2.09-.47.81,0,1.53.17,2.16.5s1.11.8,1.45,1.39v-2c0-1.01-.31-1.81-.92-2.4s-1.45-.89-2.5-.89c-.62,0-1.22.11-1.83.33-.6.22-1.17.54-1.7.96l-.34-.55c.59-.45,1.22-.79,1.89-1.02.67-.23,1.33-.35,1.97-.35,1.23,0,2.22.36,2.97,1.07.75.71,1.12,1.67,1.12,2.86v7.29h-.61l-.04-1.7ZM311.65,237c.66-.58.99-1.33.99-2.24s-.33-1.66-.99-2.24-1.5-.87-2.54-.87-1.88.29-2.53.86c-.65.57-.98,1.32-.98,2.25s.33,1.66.99,2.24,1.5.87,2.52.87,1.88-.29,2.54-.87Z"/>
        <path class="cls-1" d="M318.55,241.92c-.94-.39-1.78-.95-2.51-1.68l.42-.48c.66.67,1.42,1.19,2.3,1.56s1.78.56,2.7.56c1.57,0,2.81-.44,3.73-1.33.92-.89,1.38-2.1,1.38-3.64v-1.85c-.45.95-1.13,1.71-2.04,2.27s-1.95.84-3.13.84c-1.06,0-2.03-.24-2.9-.72-.87-.48-1.55-1.14-2.04-1.98-.49-.84-.74-1.79-.74-2.83s.25-2,.74-2.86c.49-.85,1.17-1.52,2.04-2,.87-.48,1.83-.72,2.9-.72,1.18,0,2.22.29,3.14.86s1.6,1.35,2.05,2.33v-2.96h.65v9.62c0,1.15-.23,2.15-.7,2.99-.47.85-1.14,1.5-2.02,1.95-.88.46-1.89.68-3.06.68-.99,0-1.96-.2-2.91-.59ZM324.07,236.92c.78-.43,1.39-1.03,1.83-1.77.44-.75.66-1.59.66-2.53s-.22-1.77-.66-2.53c-.44-.76-1.05-1.36-1.83-1.8-.78-.43-1.65-.65-2.61-.65s-1.83.22-2.6.65c-.77.43-1.37,1.03-1.81,1.79-.43.76-.65,1.6-.65,2.54s.22,1.78.65,2.53c.43.75,1.04,1.34,1.82,1.77.78.43,1.64.65,2.59.65s1.84-.22,2.61-.65Z"/>
        <path class="cls-1" d="M330.41,224.67c-.11-.11-.16-.24-.16-.41s.05-.3.16-.41c.1-.11.25-.16.43-.16.17,0,.31.05.42.16.11.11.17.24.17.41s-.06.3-.17.41c-.11.1-.25.16-.42.16-.18,0-.33-.05-.43-.16ZM330.51,227.26h.67v10.98h-.67v-10.98Z"/>
        <path class="cls-1" d="M336.46,237.73c-.88-.5-1.56-1.18-2.06-2.05-.5-.87-.75-1.84-.75-2.92s.25-2.05.75-2.93c.5-.88,1.18-1.56,2.05-2.06.87-.5,1.84-.75,2.92-.75,1.15,0,2.16.26,3.04.78.87.52,1.56,1.22,2.05,2.12l-.59.25c-.43-.78-1.03-1.4-1.79-1.85-.76-.45-1.66-.67-2.7-.67-.95,0-1.81.22-2.58.66-.77.44-1.37,1.05-1.81,1.83-.43.78-.65,1.65-.65,2.61s.22,1.83.65,2.6c.43.77,1.04,1.38,1.81,1.82.77.44,1.63.66,2.58.66,1.05,0,1.96-.23,2.73-.68.77-.46,1.37-1.1,1.81-1.92l.59.27c-.46.94-1.14,1.67-2.03,2.18s-1.92.78-3.1.78c-1.06,0-2.03-.25-2.91-.75Z"/>
      </g>
      <path class="cls-3" d="M181.14,191.42c-2.69-.55-4.69-2.8-5.9-6.73-.16-.66-.6-.93-1.32-.93-.69.03-1.13.33-1.32.93-1.04,3.57-3.05,5.82-5.99,6.73-.58.19-.88.58-.91,1.24-.05.69.19,1.15.71,1.35,3.49,1.67,5.52,3.93,6.12,6.7.14.66.63,1.02,1.37,1.02s1.21-.36,1.32-1.02c.71-3.13,2.72-5.35,6.04-6.62.66-.25.91-.69.91-1.43-.05-.69-.41-1.1-1.04-1.24Z"/>
    </g>
  </g>
</svg>