<?xml version="1.0" encoding="UTF-8"?>
<svg id="Capa_2" data-name="Capa 2" xmlns="http://www.w3.org/2000/svg" viewBox="0 0 392.94 392.93">
  <defs>
    <style>
      .cls-1 {
        fill: #4f5d8d;
      }

      .cls-2 {
        fill: #43485c;
      }

      .cls-3 {
        fill: #8fa7d7;
      }

      .cls-4 {
        fill: #ffd685;
      }
    </style>
  </defs>
  <g id="LOGO">
    <g>
      <path class="cls-4" d="M189.74,94.71v3.44l-2.27,1.78-35.64-16.78c.08-.17.17-.35.24-.53,1.31-2.94.72-6.21.77-9.47l36.89,21.56Z"/>
      <path class="cls-2" d="M206.61,132.85c-.24,0-.49,0-.71-.07.34.12.73.15,1.1.15-.15,0-.27-.05-.39-.07ZM206.61,132.85c-.24,0-.49,0-.71-.07.34.12.73.15,1.1.15-.15,0-.27-.05-.39-.07ZM206.61,132.85c-.24,0-.49,0-.71-.07.34.12.73.15,1.1.15-.15,0-.27-.05-.39-.07ZM206.61,132.85c-.24,0-.49,0-.71-.07.34.12.73.15,1.1.15-.15,0-.27-.05-.39-.07ZM206.61,132.85c-.24,0-.49,0-.71-.07.34.12.73.15,1.1.15-.15,0-.27-.05-.39-.07ZM206.61,132.85c-.24,0-.49,0-.71-.07.34.12.73.15,1.1.15-.15,0-.27-.05-.39-.07ZM206.61,132.85c-.24,0-.49,0-.71-.07.34.12.73.15,1.1.15-.15,0-.27-.05-.39-.07ZM206.61,132.85c-.24,0-.49,0-.71-.07.34.12.73.15,1.1.15-.15,0-.27-.05-.39-.07ZM206.61,132.85c-.24,0-.49,0-.71-.07.34.12.73.15,1.1.15-.15,0-.27-.05-.39-.07ZM206.61,132.85c-.24,0-.49,0-.71-.07.34.12.73.15,1.1.15-.15,0-.27-.05-.39-.07ZM206.61,132.85c-.24,0-.49,0-.71-.07.34.12.73.15,1.1.15-.15,0-.27-.05-.39-.07ZM206.61,132.85c-.24,0-.49,0-.71-.07.34.12.73.15,1.1.15-.15,0-.27-.05-.39-.07ZM206.61,132.85c-.24,0-.49,0-.71-.07.34.12.73.15,1.1.15-.15,0-.27-.05-.39-.07ZM206.61,132.85c-.24,0-.49,0-.71-.07.34.12.73.15,1.1.15-.15,0-.27-.05-.39-.07ZM206.61,132.85c-.24,0-.49,0-.71-.07.34.12.73.15,1.1.15-.15,0-.27-.05-.39-.07ZM206.61,132.85c-.24,0-.49,0-.71-.07.34.12.73.15,1.1.15-.15,0-.27-.05-.39-.07ZM206.61,132.85c-.24,0-.49,0-.71-.07.34.12.73.15,1.1.15-.15,0-.27-.05-.39-.07ZM206.61,132.85c-.24,0-.49,0-.71-.07.34.12.73.15,1.1.15-.15,0-.27-.05-.39-.07ZM206.61,132.85c-.24,0-.49,0-.71-.07.34.12.73.15,1.1.15-.15,0-.27-.05-.39-.07ZM206.61,132.85c-.24,0-.49,0-.71-.07.34.12.73.15,1.1.15-.15,0-.27-.05-.39-.07ZM206.61,132.85c-.24,0-.49,0-.71-.07.34.12.73.15,1.1.15-.15,0-.27-.05-.39-.07ZM206.61,132.85c-.24,0-.49,0-.71-.07.34.12.73.15,1.1.15-.15,0-.27-.05-.39-.07ZM206.61,132.85c-.24,0-.49,0-.71-.07.34.12.73.15,1.1.15-.15,0-.27-.05-.39-.07ZM206.61,132.85c-.24,0-.49,0-.71-.07.34.12.73.15,1.1.15-.15,0-.27-.05-.39-.07ZM206.61,132.85c-.24,0-.49,0-.71-.07.34.12.73.15,1.1.15-.15,0-.27-.05-.39-.07ZM206.61,132.85c-.24,0-.49,0-.71-.07.34.12.73.15,1.1.15-.15,0-.27-.05-.39-.07ZM206.61,132.85c-.24,0-.49,0-.71-.07.34.12.73.15,1.1.15-.15,0-.27-.05-.39-.07ZM206.61,132.85c-.24,0-.49,0-.71-.07.34.12.73.15,1.1.15-.15,0-.27-.05-.39-.07ZM206.61,132.85c-.24,0-.49,0-.71-.07.34.12.73.15,1.1.15-.15,0-.27-.05-.39-.07ZM206.61,132.85c-.24,0-.49,0-.71-.07.34.12.73.15,1.1.15-.15,0-.27-.05-.39-.07ZM206.61,132.85c-.24,0-.49,0-.71-.07.34.12.73.15,1.1.15-.15,0-.27-.05-.39-.07ZM206.61,132.85c-.24,0-.49,0-.71-.07.34.12.73.15,1.1.15-.15,0-.27-.05-.39-.07ZM206.61,132.85c-.24,0-.49,0-.71-.07.34.12.73.15,1.1.15-.15,0-.27-.05-.39-.07ZM206.61,132.85c-.24,0-.49,0-.71-.07.34.12.73.15,1.1.15-.15,0-.27-.05-.39-.07ZM206.61,132.85c-.24,0-.49,0-.71-.07.34.12.73.15,1.1.15-.15,0-.27-.05-.39-.07ZM206.61,132.85c-.24,0-.49,0-.71-.07.34.12.73.15,1.1.15-.15,0-.27-.05-.39-.07ZM206.61,132.85c-.24,0-.49,0-.71-.07.34.12.73.15,1.1.15-.15,0-.27-.05-.39-.07ZM206.61,132.85c-.24,0-.49,0-.71-.07.34.12.73.15,1.1.15-.15,0-.27-.05-.39-.07ZM206.61,132.85c-.24,0-.49,0-.71-.07.34.12.73.15,1.1.15-.15,0-.27-.05-.39-.07ZM206.61,132.85c-.24,0-.49,0-.71-.07.34.12.73.15,1.1.15-.15,0-.27-.05-.39-.07ZM206.61,132.85c-.24,0-.49,0-.71-.07.34.12.73.15,1.1.15-.15,0-.27-.05-.39-.07ZM206.61,132.85c-.24,0-.49,0-.71-.07.34.12.73.15,1.1.15-.15,0-.27-.05-.39-.07ZM206.61,132.85c-.24,0-.49,0-.71-.07.34.12.73.15,1.1.15-.15,0-.27-.05-.39-.07ZM206.61,132.85c-.24,0-.49,0-.71-.07.34.12.73.15,1.1.15-.15,0-.27-.05-.39-.07ZM206.61,132.85c-.24,0-.49,0-.71-.07.34.12.73.15,1.1.15-.15,0-.27-.05-.39-.07ZM206.61,132.85c-.24,0-.49,0-.71-.07.34.12.73.15,1.1.15-.15,0-.27-.05-.39-.07ZM206.61,132.85c-.24,0-.49,0-.71-.07.34.12.73.15,1.1.15-.15,0-.27-.05-.39-.07ZM206.61,132.85c-.24,0-.49,0-.71-.07.34.12.73.15,1.1.15-.15,0-.27-.05-.39-.07ZM206.61,132.85c-.24,0-.49,0-.71-.07.34.12.73.15,1.1.15-.15,0-.27-.05-.39-.07ZM206.61,132.85c-.24,0-.49,0-.71-.07.34.12.73.15,1.1.15-.15,0-.27-.05-.39-.07ZM206.61,132.85c-.24,0-.49,0-.71-.07.34.12.73.15,1.1.15-.15,0-.27-.05-.39-.07ZM206.61,132.85c-.24,0-.49,0-.71-.07.34.12.73.15,1.1.15-.15,0-.27-.05-.39-.07ZM206.61,132.85c-.24,0-.49,0-.71-.07.34.12.73.15,1.1.15-.15,0-.27-.05-.39-.07ZM206.61,132.85c-.24,0-.49,0-.71-.07.34.12.73.15,1.1.15-.15,0-.27-.05-.39-.07ZM206.61,132.85c-.24,0-.49,0-.71-.07.34.12.73.15,1.1.15-.15,0-.27-.05-.39-.07ZM206.61,132.85c-.24,0-.49,0-.71-.07.34.12.73.15,1.1.15-.15,0-.27-.05-.39-.07ZM206.61,132.85c-.24,0-.49,0-.71-.07.34.12.73.15,1.1.15-.15,0-.27-.05-.39-.07ZM206.61,132.85c-.24,0-.49,0-.71-.07.34.12.73.15,1.1.15-.15,0-.27-.05-.39-.07ZM206.61,132.85c-.24,0-.49,0-.71-.07.34.12.73.15,1.1.15-.15,0-.27-.05-.39-.07ZM206.61,132.85c-.24,0-.49,0-.71-.07.34.12.73.15,1.1.15-.15,0-.27-.05-.39-.07ZM206.61,132.85c-.24,0-.49,0-.71-.07.34.12.73.15,1.1.15-.15,0-.27-.05-.39-.07ZM206.61,132.85c-.24,0-.49,0-.71-.07.34.12.73.15,1.1.15-.15,0-.27-.05-.39-.07ZM206.61,132.85c-.24,0-.49,0-.71-.07.34.12.73.15,1.1.15-.15,0-.27-.05-.39-.07ZM206.61,132.85c-.24,0-.49,0-.71-.07.34.12.73.15,1.1.15-.15,0-.27-.05-.39-.07ZM206.61,132.85c-.24,0-.49,0-.71-.07.34.12.73.15,1.1.15-.15,0-.27-.05-.39-.07ZM206.61,132.85c-.24,0-.49,0-.71-.07.34.12.73.15,1.1.15-.15,0-.27-.05-.39-.07ZM206.61,132.85c-.24,0-.49,0-.71-.07.34.12.73.15,1.1.15-.15,0-.27-.05-.39-.07Z"/>
      <path class="cls-1" d="M196.47,0c-26.71,0-52.17,5.31-75.37,14.97l.27.22,21.44,17.93c3.63,3.05,6.44,6.97,7.95,11.46.8,2.44,1.51,5.22,1.68,7.88.54,4.46.9,12.17.37,20.66l.04.02,36.89,21.57v3.44l-2.27,1.77-35.64-16.78-.05-.02v.02c-.34.59-2.17,3.03-8.97,5.52-.07.02-8.15,2.9-12.32-1.49l-.22-.24c2.02-2.1,3.66-4.52,4.93-7.13,1.14,2.64,3.41,4.71,6.07,5.69-2.68-1.71-4.58-4.69-4.49-7.83l-.61.02c3.56-8.63,3.49-18.98-.14-27.44-.61,12.95-2.2,25.32-7.78,37.17-1.91.83-5.39,1.88-7.73.69-1.59-.83-2.54-2.66-2.86-5.44l-.15-1.44-.39.17c-.46-7.61.17-15.05,1.08-22.66-3.56,6.93-4.49,15.56-1.95,23l-.08.02c-.05.03-3.78,1.52-6.66.08-1.51-.78-2.58-2.3-3.14-4.47l-.15-.56c-.22-6.07-.49-11.63-1.49-17.76-3.09,5.13-3.39,12.1-.63,17.47-3.49-.2-13.59-1.66-16.03-11.02,3.27.31,6.76-1.81,6.71-5.64-3.34,2.44-5.93,2.9-9.36,2.93-2.98-1.49-8.64-5.51-6.52-14.2l.12-.54-4.56-5.58C29.1,78.44,0,134.07,0,196.46c0,108.52,87.95,196.47,196.47,196.47s196.47-87.95,196.47-196.47S304.98,0,196.47,0ZM26.32,229.81c3.75,15.27,9.24,30.19,15.53,44.9-11.44-17.61-19.85-37.56-24.36-58.22-9.3-42.2,1.68-90.98,35.19-119.83-30.88,36.56-38.46,87.71-26.36,133.15ZM327.28,176.83c4.41,8.07,4,17.98-.52,25.98-10.26,18.19-28.73-1.52-28.73-1.52v-15.48c4.3,5.48,14.08,11.44,15.98,3.56,1.9-7.86-15.25-10.47-15.25-10.47v-16.46c16.57.12,24.62,7.27,28.52,14.39ZM317.33,265.52c.02.26-.3.41-.49.22l-2.85-2.76c-.81-.78-1.91-1.17-3.03-1.07l-3.95.36c-.27.03-.42-.31-.22-.51l2.76-2.83c.78-.81,1.17-1.9,1.07-3.02l-.37-3.96c-.02-.26.32-.41.52-.24l2.82,2.78c.81.78,1.91,1.17,3.03,1.07l3.95-.36c.27-.02.42.29.24.49l-2.78,2.85c-.78.81-1.17,1.9-1.07,3.02l.37,3.96ZM288.18,85.12c13,7.07,13.75,21.29-3.9,20-12.15-1.24-24.74-4.76-36.59-.93-4.1.76-11.2,4.34-14.29,1.44l-.08-.17c-.53-1.73,1.56-4.19,3-5.66,11.76-11.78,36.98-22.17,51.86-14.68ZM237.93,74.95l2.66-1.71c.76-.49,1.25-1.27,1.37-2.17l.41-3.12c.05-.22.32-.3.44-.1l1.73,2.66c.49.73,1.27,1.24,2.15,1.34l3.15.44c.22.02.26.29.09.42l-2.66,1.73c-.75.48-1.24,1.27-1.36,2.14l-.42,3.15c-.02.22-.31.29-.43.1l-1.74-2.66c-.46-.73-1.26-1.25-2.14-1.37l-3.15-.41c-.22-.03-.27-.32-.1-.44ZM260.06,58.14l2.73-4.49c.19-.31.66-.22.73.15l.83,5.17c.24,1.46,1.1,2.74,2.36,3.51l4.49,2.74c.3.17.2.66-.14.7l-5.17.86c-1.47.22-2.76,1.09-3.52,2.34l-2.73,4.49c-.19.31-.66.22-.73-.15l-.83-5.17c-.24-1.46-1.1-2.73-2.37-3.51l-4.48-2.73c-.3-.2-.2-.66.14-.71l5.17-.86c1.47-.21,2.76-1.09,3.52-2.34ZM237.62,34.85c13.43-3.76,23.31,5.37,10.53,16.1-9.02,7.17-19.85,13.07-25.34,23.46-2.27,3.22-4.71,10.32-8.71,10.39l-.17-.07c-1.51-.81-1.73-3.85-1.71-5.78.2-15.71,10.4-39.34,25.4-44.1ZM185.44,74.27c-4.75-4.57-10.26-9.08-12.51-15.27-1.61-4.1-1.15-11.25,4.54-11.3,9.83,1.3,13.46,16.76,16.31,24.76l.1.37c2.22,9.19-4.78,5.34-8.44,1.44ZM185.93,108.8l7.29-5.75,2.2-1.74v-2.78l.02-9.31c0-1.17.49-2.15,1.2-2.86.14-.12.29-.27.44-.36.27-.17.56-.34.83-.46.24-.1.48-.15.73-.22.27-.05.51-.08.75-.08.2,0,.4.03.57.05.36.05.73.17,1.12.34.17.07.34.2.51.29l10.07,6.71,11.52-3.73c.41-.12.83-.2,1.24-.2,1.07,0,2.05.44,2.78,1.17.17.2.34.4.49.59.12.15.19.32.29.49.05.1.1.2.12.32,0,.02.03.02.03.04.07.15.12.35.14.52v.09s.03.08.03.08c.05.22.07.41.07.63,0,.39-.05.73-.14,1.1l-3.3,11.66,7.12,9.78c.25.36.44.76.57,1.15.29.87.21,1.8-.1,2.63-.17.44-.44.88-.78,1.24-.68.74-1.61,1.22-2.73,1.27l-12.1.49-.86,1.2-6.26,8.58c-.22.29-.44.51-.69.73-.17.15-.39.3-.58.39-.1.08-.22.13-.32.17-.12.08-.22.13-.34.15h-.03c-.38.1-.75.17-1.14.19h-.1c-.07,0-.15-.02-.22-.02-.05-.02-.12-.05-.2-.05-.09,0-.21-.02-.34-.02-.12-.03-.24-.03-.36-.07-.37-.08-.76-.25-1.1-.49-.15-.13-.32-.25-.46-.37-.22-.22-.42-.44-.59-.68-.19-.27-.34-.56-.46-.88l-2.83-7.63-1.37-3.74-11.51-3.73c-3-.97-3.71-4.9-1.22-6.88ZM127.32,97.71c13.34-6.86,36.12,2.31,46.81,12.83,1.29,1.26,3.22,3.48,2.73,5.04l-.08.15c-2.75,2.66-9.17-.51-12.85-1.17-10.71-3.37-22.03-.1-32.93,1.12-15.88,1.29-15.32-11.51-3.68-17.97ZM101.64,89.1l3.68,1.48c1.05.42,2.22.37,3.19-.17l3.52-1.83c.24-.12.51.12.41.37l-1.46,3.68c-.42,1.05-.37,2.22.14,3.2l1.86,3.51c.12.24-.12.51-.39.41l-3.69-1.46c-1.02-.41-2.19-.36-3.19.15l-3.51,1.83c-.25.14-.52-.1-.39-.37l1.46-3.68c.42-1.03.37-2.2-.17-3.2l-1.83-3.51c-.12-.24.12-.51.37-.41ZM65.71,176.83c3.9-7.12,11.92-14.27,28.49-14.39v16.46s-17.15,2.61-15.25,10.47c1.9,7.88,11.69,1.92,15.98-3.56v15.48s-18.47,19.71-28.74,1.52c-4.51-8-4.92-17.91-.48-25.98ZM77.29,222.34l-2.75-2.83c-.2-.19-.05-.51.22-.48l3.95.34c1.12.1,2.22-.3,3.02-1.1l2.83-2.78c.2-.17.51-.02.49.24l-.34,3.96c-.1,1.12.29,2.21,1.07,3.02l2.78,2.83c.2.2.05.51-.22.49l-3.95-.34c-1.12-.1-2.22.29-3.02,1.07l-2.83,2.78c-.2.2-.51.05-.49-.22l.34-3.95c.1-1.12-.29-2.22-1.1-3.03ZM81.73,238.17l-4.61,4.78c-1.29,1.35-1.95,3.2-1.75,5.08l.61,6.61c.04.44-.49.7-.83.39l-4.78-4.61c-1.35-1.29-3.2-1.95-5.05-1.76l-6.61.61c-.47.05-.73-.49-.42-.83l4.64-4.78c1.29-1.34,1.92-3.19,1.75-5.05l-.63-6.61c-.05-.46.51-.73.83-.41l4.78,4.61c1.37,1.31,3.19,1.95,5.07,1.78l6.61-.64c.47-.04.71.52.39.83ZM290.89,317.18s-.95,43.88-33.39,10.17c0,0-29.98,4.14-60.98,1.29h-.05c-7.93.73-15.8,1-23.12,1-21.27,0-37.88-2.29-37.88-2.29-32.42,33.71-33.39-10.17-33.39-10.17-30.98-20.96-14.79-48.61-14.79-48.61,12.42-28.1,12.59-112.16,12.59-112.16-26.71-29.07,6.97-33.7,6.97-33.7h82.45l4.73,1.56,3.12,8.36c1.54,4.17,5.42,6.86,9.86,6.86,3.41,0,6.51-1.56,8.51-4.32l5.24-7.22,8.93-.36c3.49-.13,6.61-1.96,8.44-4.88h48s33.68,4.63,6.97,33.7c0,0,.18,84.06,12.57,112.16,0,0,16.19,27.65-14.78,48.61ZM320.01,283.83l-5.34,3.95c-.37.3-.86-.04-.76-.48l1.47-6.49c.41-1.83.02-3.73-1.1-5.24l-3.95-5.35c-.27-.36.04-.85.51-.75l6.46,1.46c1.83.42,3.73.02,5.24-1.1l5.35-3.95c.36-.27.88.05.78.52l-1.49,6.46c-.42,1.83-.02,3.73,1.1,5.24l3.95,5.34c.27.37-.05.88-.49.78l-6.49-1.48c-1.83-.42-3.73-.03-5.24,1.09ZM323.96,320.32c38.88-32.63,56.03-84.71,51.59-134.34-1.17-16.64-4.2-33.22-8.13-49.74,8.76,20.47,13.98,42.83,14.96,65.2,2.09,45.81-18.17,94.78-58.42,118.88Z"/>
      <path class="cls-3" d="M176.86,115.58l-.08.15c-2.75,2.66-9.17-.51-12.85-1.17-10.71-3.37-22.03-.1-32.93,1.12-15.88,1.29-15.32-11.51-3.68-17.97,13.34-6.86,36.12,2.31,46.81,12.83,1.29,1.26,3.22,3.48,2.73,5.04Z"/>
      <path class="cls-3" d="M185.44,74.27c-4.75-4.57-10.26-9.08-12.51-15.27-1.61-4.1-1.15-11.25,4.54-11.3,9.83,1.3,13.46,16.76,16.31,24.76l.1.37c2.22,9.19-4.78,5.34-8.44,1.44Z"/>
      <path class="cls-3" d="M248.15,50.95c-9.02,7.17-19.85,13.07-25.34,23.46-2.27,3.22-4.71,10.32-8.71,10.39l-.17-.07c-1.51-.81-1.73-3.85-1.71-5.78.2-15.71,10.4-39.34,25.4-44.1,13.43-3.76,23.31,5.37,10.53,16.1Z"/>
      <path class="cls-3" d="M284.28,105.12c-12.15-1.24-24.74-4.76-36.59-.93-4.1.76-11.2,4.34-14.29,1.44l-.08-.17c-.53-1.73,1.56-4.19,3-5.66,11.76-11.78,36.98-22.17,51.86-14.68,13,7.07,13.75,21.29-3.9,20Z"/>
      <path class="cls-4" d="M88.34,226.03l-3.95-.34c-1.12-.1-2.22.29-3.02,1.07l-2.83,2.78c-.2.2-.51.05-.49-.22l.34-3.95c.1-1.12-.29-2.22-1.1-3.03l-2.75-2.83c-.2-.19-.05-.51.22-.48l3.95.34c1.12.1,2.22-.3,3.02-1.1l2.83-2.78c.2-.17.51-.02.49.24l-.34,3.96c-.1,1.12.29,2.21,1.07,3.02l2.78,2.83c.2.2.05.51-.22.49Z"/>
      <path class="cls-4" d="M81.73,238.17l-4.61,4.78c-1.29,1.35-1.95,3.2-1.75,5.08l.61,6.61c.04.44-.49.7-.83.39l-4.78-4.61c-1.35-1.29-3.2-1.95-5.05-1.76l-6.61.61c-.47.05-.73-.49-.42-.83l4.64-4.78c1.29-1.34,1.92-3.19,1.75-5.05l-.63-6.61c-.05-.46.51-.73.83-.41l4.78,4.61c1.37,1.31,3.19,1.95,5.07,1.78l6.61-.64c.47-.04.71.52.39.83Z"/>
      <path class="cls-4" d="M331.74,284.22l-6.49-1.48c-1.83-.42-3.73-.03-5.24,1.09l-5.34,3.95c-.37.3-.86-.04-.76-.48l1.47-6.49c.41-1.83.02-3.73-1.1-5.24l-3.95-5.35c-.27-.36.04-.85.51-.75l6.46,1.46c1.83.42,3.73.02,5.24-1.1l5.35-3.95c.36-.27.88.05.78.52l-1.49,6.46c-.42,1.83-.02,3.73,1.1,5.24l3.95,5.34c.27.37-.05.88-.49.78Z"/>
      <path class="cls-4" d="M320.81,255.69l-2.78,2.85c-.78.81-1.17,1.9-1.07,3.02l.37,3.96c.02.26-.3.41-.49.22l-2.85-2.76c-.81-.78-1.91-1.17-3.03-1.07l-3.95.36c-.27.03-.42-.31-.22-.51l2.76-2.83c.78-.81,1.17-1.9,1.07-3.02l-.37-3.96c-.02-.26.32-.41.52-.24l2.82,2.78c.81.78,1.91,1.17,3.03,1.07l3.95-.36c.27-.02.42.29.24.49Z"/>
      <path class="cls-4" d="M249.93,72.71l-2.66,1.73c-.75.48-1.24,1.27-1.36,2.14l-.42,3.15c-.02.22-.31.29-.43.1l-1.74-2.66c-.46-.73-1.26-1.25-2.14-1.37l-3.15-.41c-.22-.03-.27-.32-.1-.44l2.66-1.71c.76-.49,1.25-1.27,1.37-2.17l.41-3.12c.05-.22.32-.3.44-.1l1.73,2.66c.49.73,1.27,1.24,2.15,1.34l3.15.44c.22.02.26.29.09.42Z"/>
      <path class="cls-4" d="M271.06,65.92l-5.17.86c-1.47.22-2.76,1.09-3.52,2.34l-2.73,4.49c-.19.31-.66.22-.73-.15l-.83-5.17c-.24-1.46-1.1-2.73-2.37-3.51l-4.48-2.73c-.3-.2-.2-.66.14-.71l5.17-.86c1.47-.21,2.76-1.09,3.52-2.34l2.73-4.49c.19-.31.66-.22.73.15l.83,5.17c.24,1.46,1.1,2.74,2.36,3.51l4.49,2.74c.3.17.2.66-.14.7Z"/>
      <path class="cls-4" d="M112.59,99.75l-3.69-1.46c-1.02-.41-2.19-.36-3.19.15l-3.51,1.83c-.25.14-.52-.1-.39-.37l1.46-3.68c.42-1.03.37-2.2-.17-3.2l-1.83-3.51c-.12-.24.12-.51.37-.41l3.68,1.48c1.05.42,2.22.37,3.19-.17l3.52-1.83c.24-.12.51.12.41.37l-1.46,3.68c-.42,1.05-.37,2.22.14,3.2l1.86,3.51c.12.24-.12.51-.39.41Z"/>
      <path class="cls-4" d="M232.62,116.32c-.12-.39-.32-.78-.56-1.15l-7.12-9.78,3.29-11.66c.1-.37.15-.71.15-1.1,0-.22-.02-.42-.07-.64,0,0-.03-.05-.03-.07v-.1c-.02-.17-.07-.37-.15-.51,0-.02-.02-.02-.02-.05-.02-.12-.07-.22-.12-.32-.1-.17-.17-.34-.29-.49-.15-.2-.32-.39-.49-.59-.73-.73-1.71-1.17-2.78-1.17-.42,0-.83.07-1.24.2l-11.51,3.73-10.07-6.71c-.17-.1-.34-.22-.51-.29-.39-.17-.76-.29-1.12-.34-.17-.02-.37-.05-.56-.05-.24,0-.49.02-.75.07-.25.07-.49.12-.73.22-.27.12-.56.29-.83.46-.15.1-.29.24-.44.37-.71.71-1.19,1.68-1.19,2.85l-.02,9.32v2.78l-2.2,1.73-7.29,5.76c-2.49,1.98-1.78,5.9,1.22,6.88l11.51,3.73,1.37,3.73,2.83,7.64c.12.32.27.61.47.88.17.24.37.46.59.68.15.12.32.24.46.37.34.24.73.42,1.1.49.12.05.24.05.37.07.12,0,.25.02.34.02.07,0,.15.03.2.05.07,0,.15.02.22.02h.1c.39-.02.76-.1,1.15-.2h.02c.12-.02.22-.07.34-.15.1-.05.22-.1.32-.17.2-.1.41-.24.59-.39.24-.22.46-.44.68-.73l6.27-8.59.85-1.19,12.1-.49c1.12-.05,2.05-.54,2.73-1.27.34-.37.61-.8.78-1.24.32-.83.39-1.76.1-2.63ZM205.91,132.78c.22.07.46.07.71.07.12.02.24.07.39.07-.37,0-.76-.02-1.1-.15Z"/>
      <path class="cls-3" d="M221.06,148.99c6.8-.92,13.86.13,19.96,3.27-8.88-2.14-18.76.43-25.47,6.62-8.14,7.51-9.6,18.92-9.91,29.4-.21,7.4,0,14.84,0,22.24h-.37c-3.97.26-7.79,1.04-11.24,2.3-.3.11-.59.22-.85.33v-33.2c-.45,1.48-1.22,4.34-2.37,8.53-1.19,4.15-2.11,7.38-2.78,9.68s-1.52,5.04-2.49,8.31c-1,3.23-1.89,6.01-2.67,8.35.52,1.56,1.04,3,1.59,4.3-.15.11-.3.26-.41.41-.3.37-.59.74-.85,1.11-2.19,3.12-3.04,6.71-2.52,10.5.04.26.07.52.11.78-1.11-.93-2.11-1.93-3.12-3-2.08-2.3-4.04-5.49-5.9-9.53-1.85-4.01-3.45-8.27-4.78-12.76-1.34-4.49-2.67-9.24-4.01-14.17-1.34-4.97-2.67-9.72-4.04-14.28-1.37-4.52-2.86-8.68-4.45-12.46-1.6-3.75-3.49-6.86-5.67-9.31-2.23-2.41-4.64-3.89-7.31-4.34-3.15-.52-5.9.26-8.2,2.37-2.34,2.11-3.41,4.6-3.23,7.49.04,2.37.85,4.27,2.45,5.79,1.56,1.52,3.45,1.82,5.64.93,1.6-.67,2.71-1.78,3.26-3.34.59-1.56.33-3.23-.7-5.01,1.52-.45,2.89-.52,4.12-.19,1.19.33,2.19.96,2.97,1.93.78.93,1.3,2.04,1.48,3.34.37,2.34-.41,4.45-2.34,6.31s-4.64,2.82-8.16,2.82c-2.3,0-4.38-.67-6.27-1.97-1.89-1.3-3.37-2.93-4.41-4.93s-1.59-4.15-1.71-6.45c-.11-2.67.41-5.23,1.52-7.6,1.11-2.41,2.89-4.41,5.38-6.05,2.45-1.63,5.34-2.49,8.68-2.52,2.56,0,4.93.37,7.2,1.11,2.26.74,4.3,1.74,6.08,3,1.78,1.26,3.52,2.86,5.19,4.86,1.63,2,3.08,4.04,4.3,6.12,1.22,2.08,2.45,4.53,3.67,7.34,1.22,2.78,2.26,5.42,3.12,7.94.85,2.49,1.74,5.34,2.67,8.53.96,3.19,1.74,6.01,2.37,8.53.67,2.48,1.41,5.3,2.22,8.53.85,3.19,1.56,5.82,2.19,7.97.48-1.63,2.45-8.53,5.93-20.81,3.97-14.08,8.87-28.36,22.76-35.56,3.54-1.83,7.4-3.03,11.36-3.56Z"/>
      <g>
        <path class="cls-1" d="M242.06,278.79c-.26,4.56-1.78,8.64-4.52,12.2-2.74,3.56-6.12,6.27-10.09,8.16s-8.31,3.04-12.94,3.52c-1.37.15-2.74.19-4.08.19-3.15,0-6.19-.37-9.09-1.11-4.15-1.04-7.79-3-10.9-5.9-3.15-2.89-5.16-6.49-6.01-10.79-.37-2.45-.41-4.82-.04-7.16.33-2.34,1.22-4.56,2.63-6.68,1.41-2.08,3.26-3.82,5.56-5.19v-14.61c0-2.82-.37-4.78-1.15-5.86-.11-.11-.22-.22-.41-.37-.15-.15-.3-.26-.44-.33-.15-.07-.3-.15-.45-.26-.15-.11-.26-.22-.33-.26-.93-.82-1.08-1.71-.48-2.6.3-.52.67-.74,1.11-.74.22,0,.45.04.67.15.96.56,1.97.82,3,.82.67,0,1.34-.11,2.04-.33,1.67-.48,3.12-1.19,4.3-2.08.04-.04.11-.07.15-.11.85-.67,1.74-1.37,2.63-2.08.33-.26.7-.56,1.04-.82,1.26-1,2.11-1.56,2.6-1.67.26-.07.52-.11.7-.11.67,0,1.11.33,1.37.96.37.85.07,1.59-.85,2.3-.7.52-1.19,1.04-1.45,1.56-.22.45-.45,2.08-.67,4.93-.22,2.89-.33,5.19-.33,7.01v11.35c4.38.22,8.09,1.78,11.24,4.71,3.12,2.97,4.53,6.57,4.19,10.87-.11,2-.78,3.78-2.08,5.34-1.26,1.56-2.78,2.63-4.52,3.26-.82.3-1.71.45-2.6.45-1,0-2-.19-3.08-.52-2.04-.67-3.82-2.08-5.34-4.19,3.26-2.19,4.9-4.67,4.9-7.45.04-2.15-.45-3.86-1.52-5.04-1.08-1.19-2.41-1.82-4.04-1.89-2.23,0-4.12.89-5.64,2.63-1.52,1.74-2.41,3.89-2.71,6.53-.33,2.6-.22,5.38.26,8.31.48,2.34,1.3,4.45,2.41,6.34,1.11,1.89,2.41,3.34,3.89,4.41,1.45,1.04,3.04,1.89,4.75,2.48,1.45.48,2.89.74,4.38.74.3,0,.59-.04.89-.04,1.82-.15,3.56-.52,5.27-1.08,1.74-.56,3.34-1.48,4.82-2.74,1.52-1.22,2.82-2.71,3.93-4.38,1.11-1.63,1.97-3.63,2.52-5.93.59-2.34.78-4.82.63-7.49-.3-5.53-1.85-10.68-4.75-15.43-2.89-4.71-6.34-7.53-10.35-8.38-.89-.22-1.45-.52-1.71-.85-.22-.37-.22-.7,0-1.04.26-.33.56-.56.96-.74,2.04-1.08,3.78-2.67,5.16-4.71,1.41-2.08,2.37-4.3,2.93-6.68.52-2.37.67-4.82.41-7.34-.15-1.22-.37-2.41-.7-3.56-.3-1.19-.7-2.3-1.19-3.34-.96-2.08-2.45-3.78-4.41-5.16-1-.7-2.11-1.22-3.26-1.59-1.11-.33-2.3-.56-3.52-.59h-1.15c-2.86.07-5.38.89-7.57,2.48-1.71,1.22-2.78,2.74-3.23,4.49-.26.82-.33,1.67-.3,2.6.19,2.23,1.63,4.15,4.34,5.79-.52.78-1.08,1.48-1.67,2.04-.74.7-1.6,1.26-2.49,1.59-.96.37-1.89.56-2.82.56-.22,0-.41,0-.63-.04-.04,0-.07-.04-.07-.04-1-.3-1.93-.59-2.82-.96-.78-.41-1.48-1-2.11-1.71-1.11-1.19-1.78-2.56-1.93-4.15-.41-2.89.22-5.49,1.82-7.75.22-.3.45-.59.7-.89,1.71-1.97,3.78-3.56,6.31-4.75.7-.37,1.41-.67,2.15-.93,3.19-1.19,6.64-1.85,10.31-2.08.37-.04.78-.07,1.15-.07h1.08c3.97,0,7.57.56,10.9,1.74,1.22.41,2.34.89,3.41,1.48.45.19.85.41,1.26.67,1.56.82,2.93,1.82,4.12,2.93,1.15,1.11,2.15,2.3,2.97,3.56.56.78,1,1.56,1.41,2.41.26.45.48.93.67,1.41,1.15,2.74,1.6,5.56,1.37,8.35-.19,2.82-1.19,5.56-2.89,8.31-1.71,2.71-4.08,5.04-7.12,7.01,5.97,2.89,10.42,6.64,13.35,11.31,2.89,4.64,4.15,9.53,3.78,14.65Z"/>
        <path class="cls-1" d="M189.35,237.29c.52.33,1.11.56,1.71.74.37.11.7.19,1.11.22-1-.3-1.93-.59-2.82-.96Z"/>
      </g>
      <path class="cls-1" d="M268.72,215.23c-1.78,2.66-3.83,5.13-6.1,7.36-2.12,2.05-4.77,3.6-6.64,5.88-1.87,2.23-3.58,5-4.35,7.86-.13.61-.59,4.3-.41,6.76-.97-1.13-1.78-2.68-2.43-4.62-.18-.68-.65-.97-1.4-.92-.7.09-1.15.41-1.33,1.04-.52,2.14-1.33,3.9-2.45,5.16-.07-.14-.11-.27-.16-.41-1.64-5.29-1.08-12.52,1.89-17.21,7.82-12.26,25.69-22.53,19.67-39.56-3.29-9.32-12.48-13.94-21.94-13.98-5.07-.02-10.12,2.95-13.01,7.04-1.21,1.72-1.99,3.82-1.77,5.91.22,2.09,1.58,4.12,3.57,4.77,2,.65,4.5-.4,5.13-2.4.28,1.48.23,3.06-.38,4.45-1.89,4.28-8.11,4.84-11.99,3.56-9.03-3-8.99-14.75-4.7-21.52,7.98-12.58,25.1-16.4,38.18-9.97,19.19,9.44,21.6,34.28,10.61,50.78Z"/>
      <path class="cls-3" d="M256.11,251.69c.03.79-.21,1.29-.84,1.59-3.36,1.45-5.33,3.95-5.96,7.32-.08.71-.53,1.1-1.31,1.12-.76.03-1.29-.33-1.44-1.01-.71-2.96-2.92-5.26-6.54-6.93-.55-.19-.84-.66-.81-1.4.03-.71.32-1.15.92-1.37,1.23-.47,2.28-1.15,3.18-2.08,1.23-1.29,2.13-3.1,2.65-5.37.18-.63.63-.96,1.34-1.04.74-.05,1.21.25,1.39.93.95,2.82,2.26,4.82,3.86,5.92.76.55,1.58.9,2.47,1.04.66.14,1.02.55,1.1,1.29Z"/>
      <path class="cls-3" d="M155.43,192.78c0-2.47.92-7.14,0-9.55-1.49-3.8-3.08-7.04-4.62-9.81v53.52c0,7.24.62,14.79-1.39,21.83-1.85,6.78-7.96,13.46-15.72,12.43-3.44-.41-8.78-7.6-4.26-10.12-2.52,1.44-4.98,3.08-6.78,5.39-5.39,7.04,0,16.13,7.24,19.16,4.47,1.9,9.86,1.54,14.02-.92,4.37-2.57,7.29-7.19,8.78-12.02.56-1.85,1.03-3.75,1.39-5.65,2.72-13.56,1.34-28.66,1.34-42.22v-22.03Z"/>
    </g>
  </g>
</svg>