<?xml version="1.0" encoding="UTF-8"?>
<svg id="Layer_2" data-name="Layer 2" xmlns="http://www.w3.org/2000/svg" viewBox="0 0 245.6 71.37">
  <defs>
    <style>
      .cls-1 {
        fill: #c8e1f2;
      }

      .cls-2 {
        letter-spacing: .02em;
      }

      .cls-3 {
        letter-spacing: -.06em;
      }

      .cls-4 {
        fill: #8fb9d1;
      }

      .cls-5 {
        fill: #fb8592;
        font-family: Impact, Impact;
        font-size: 35.11px;
      }
    </style>
  </defs>
  <g id="Layer_1-2" data-name="Layer 1">
    <g>
      <rect class="cls-1" x="0" y="0" width="245.6" height="71.37" rx="28.05" ry="28.05"/>
      <text class="cls-5" transform="translate(60.9 50.23) scale(1.02 1)"><tspan x="0" y="0">P</tspan><tspan class="cls-2" x="17.63" y="0">L</tspan><tspan class="cls-3" x="31.86" y="0">A</tspan><tspan x="47.58" y="0">YLIST</tspan></text>
      <g>
        <path class="cls-4" d="M50.77,18.47c-1.74-.71-3.42-1.23-5.26-1.77l.4.58-5.99-2.42-.39.9c-1.16,2.42-2.39,4.75-3.3,7.27-.84,2.34-1.39,5.54-4.51,4.74l-1.87-.48.39-.25c-.06.04-1.12-1.56-1.03-3.54-.48,1.2-.18,2.54.72,3.65-2.5-.9-1.18-6.87,1.22-6.9.68-.01,1.46.4,1.9.81l1.37,1.27,2.35-5.55c.16.37.2.58.25.49l.25-.43c.06-.11-.04-.14-.34-.27l.93-3.25.85-.34c.17-.07.09-.5.06-.88l1.76-.52c.42.06,1.36.32,1.75.48,2.74,1.12,5.27,2.05,8.13,2.8,1.4.37,2.36.66,2.36,1.48,0,.09-.32.03-.33-.05l-.07-.42c-1.01-.43-2.11-.82-3.33-.86,1.56.81,3.43,1.65,5.01,2.34.33.15.53,1.04.38,1.32l-3.31,5.81c-2.26,3.96-2.06,7.03-6.37,8.25-.99.28-1.9.5-2.71-.43-1.37-1.58-1.98-3.79-1.33-5.81l1.44-1.09,1.59.77,1.1.68,2.75.18,2.11-5.64.79-2.39c-1.67-.43-3.27-.95-4.72-1.74,1.93.14,3.14,1.52,4.99,1.22ZM45.94,14.92c-1.49-.81-3.16-1.14-4.87-1.08,1.62.42,3.07.76,4.87,1.08ZM51.64,18.29c-.36-.88-1.14-.66-1.66-.91-1.93-.92-3.81-1.73-5.9-2.15l-3.52-.71c.59.27,1.23.56,1.85.75l5.79,1.71,3.44,1.31ZM36.17,21.58l2.23-4.63c.27-.55.52-1.07.16-1.69l-1.69,3.98c-.34.79-.69,1.55-.7,2.34ZM51.03,21.95l2.99-4.24-1.1-.5-.72,1.24c-.25.43-.4,1.15-.51,1.63-.38.57-.77,1.25-.66,1.87ZM48.69,27.77l.37.07c.32-.73.59-1.75,1.04-2.5l3.59-5.97c-.69.18-.8.82-1.15,1.29-1.11,1.49-2.11,2.93-2.83,4.64l-1.03,2.46Z"/>
        <path class="cls-4" d="M27.74,65.17c-.5-.5-.62-1.87-2.52-3.46l-.71-.1c-.47-.24-.95-.32-1.5-.27l-6.51,2.7-.58-.15c-.16-.04-.03-.42.05-.58l1.08-2.17c.81-1.64,1.67-3.09,2.69-4.82l-5.77-6.41c3.26-.15,5.93.89,8.91.97l1.99-3.31c.51-.84.88-1.69,1.35-2.6l1.35-2.62c.08-.15.56-.26.73-.27.16,0-.11.51-.09.66l.64,4.68.69,5,6.75,1.72.48.42c.11.09-.22.49-.37.57l-4.18,2.19c-.21.11-.69.12-.72.35l-1.67,1.02.37,4.71c.11,1.35.2,2.42.03,3.94-1.07-.76-1.64-1.29-2.5-2.14ZM24.04,59.67c.42-.14,1.21.71,1.49,1.03l3.5,4.02c.29-3-1.25-6.51.42-7.44l2.97-1.41c.63-.3,1.46-.35,1.63-1.18-2.24-.38-4.11-.8-6.12-1.41-.21-1.1-.55-2.19-.32-3.2.15-.64.7-1.23-.15-1.65l-.23-3.25-2.16,4.46c-.44.91-.92,1.7-1.52,2.61l-7.02-1.06.54,1.32c.65.06.86.66,1.17.96,1.14.73,2.44,1.46,3.02,2.71l-1.92,3.18-1.66,3.01c2.27-1,4.03-1.91,6.36-2.69ZM33.83,53.79c-1.25-.32-2.53-.54-3.76-.7-.17-.19-.68-.38-.77-.25.5,1.02,1.77.77,2.64.89l3.13.46-1.23-.4Z"/>
        <path class="cls-4" d="M24.5,38.4c.45-.6,1.13-1.63.87-2.67l-.43.89.34-1.98c-.66-1.25-1.99-1.1-3.18-1.2-1.51-.13-2.94-.78-4.53-1.09-1.14,2.55-2.11,4.89-3.03,7.31l-.07-.76-.84,1.43c.83.98.43,2.24-.5,2.95-.6.46-1.2.81-1.77.58.66-.19.43-.35-.04-.42-.99-.05-1.77-.59-2.11-1.3-.4-.82-.11-2.19.84-2.51,1.02-.33,2.3.1,3.35.56,1-2.02,2.16-4.32,2.92-6.49-.49-1.31.92-1.81.63-2.08l-.59-.55,1.8-.21c.68.29,1.26.47,2.01.63l-.42-.6,6.96,1.74v1.12c-.02,1.37-.25,2.81-.46,4.09l-.22.17.29-2.99-1,3.91c-.26,1.01.1,1.6-.14,1.64l-.23.03c-.04.56-.22,1.25-.44,1.5-.58-.38-.63.76-.47,1.09-.45.7-.86,1.47-1.35,2.08-.76.95-2.51,1.09-3.44.57-1.16-.66-1.72-2.38-.7-3.22,1.21-1,3.05-.35,4.14.95.63-1.81,1.21-3.72,1.8-5.17ZM22.53,32.23c1.33.49,2.43.85,3.78.96-.64-.64-2.7-.96-3.78-.96Z"/>
        <path class="cls-4" d="M32.84,35.8l-2.85.96-.57-.03c-.13,0-.04-.43.06-.56l1.83-2.35-1.58-2.36c-.15-.22-.09-.84.11-.82l2.84,1.1,2.29-2.95c.34.3.5.82.48,1.23l-.15,2.54c1.24.49,2.02.68,3.45,1.42l-3.4,1.15-.3,3.57c-1-.91-1.43-1.66-2.21-2.91Z"/>
        <path class="cls-4" d="M30.47,16.43l-1.21-3.23-2.67.31c-.21.02-.86-.28-.72-.43l2.28-2.53-1.02-3.09c1.32.55,2.03.88,3.18,1.46l3.41-1.56-.9,3.57,1.72,1.27c.34.25.58.75.6,1.18l-3.17-.1-.7,2.19c-.07.23-.39.61-.79.98ZM30.71,15.09l.94-2.42,2.66.07c-.74-.75-1.3-1.12-2.1-1.62l.75-2.8c-1.14.49-2.04,1.03-2.88,1.11l-2.11-1.09.84,2.27-1.9,2.21,2.68-.12,1.13,2.39Z"/>
        <path class="cls-4" d="M18.89,19.21l-.46-2.65-2.2-.22c-.18-.02-.54-.43-.58-.55l2.27-1.15-.42-2.76c1,.65,1.45,1.02,2.3,1.74l2.76-1.31c.07,1.19-.4,1.89-.97,2.72l2,2.35-2.82-.34-1.08,2.22c-.05.1-.36.34-.44.4s-.34-.32-.36-.45ZM20.47,16.35l1.63.14-1.08-1.36.78-1.77-2.08.91-1.59-1.42.38,2.15-1.66.8,2.06.46.51,2.29,1.04-2.19Z"/>
        <path class="cls-4" d="M22.14,7.96l-.99-1.79-1.63-.03c.64-.57,1.03-.9,1.24-1.16l-.33-1.33,1.56.53,1.24-.98-.16,1.63,1.51,1.04-1.84.28-.62,1.8Z"/>
        <path class="cls-4" d="M22.77,24.64l-1.65-.06.9-1.04c.18-.21-.16-.78-.36-1.32l1.16.36,1.33-.95-.1,1.72.93.57-.98.38c-.24.09-.3.61-.45,1.19l-.77-.85Z"/>
        <path class="cls-4" d="M57.33,29.83c-.24-.09-.2-.74-.03-.89s.68-.4.89-.31.39.64.3.85c-.1.24-.83.47-1.16.35Z"/>
        <ellipse class="cls-4" cx="70.62" cy="16.17" rx=".67" ry=".66"/>
        <path class="cls-4" d="M44.61,4.37c-.06.26-.54.69-.73.62-.23-.08-.47-.24-.58-.4s.12-.8.31-.83c.29-.04,1.05.35,1,.61Z"/>
        <path class="cls-4" d="M10.93,57.08c-.37.1-.84-.15-.94-.38-.1-.21.3-.72.53-.71.37.01.61.05.77.14.19.11-.13.89-.36.95Z"/>
        <path class="cls-4" d="M36.17,21.58c0-.79.36-1.55.7-2.34l1.69-3.98c.36.62.11,1.14-.16,1.69l-2.23,4.63Z"/>
        <path class="cls-4" d="M45.94,14.92c-1.8-.33-3.25-.67-4.87-1.08,1.72-.05,3.39.27,4.87,1.08Z"/>
        <path class="cls-4" d="M24.04,59.67c-2.33.78-4.08,1.69-6.36,2.69l1.66-3.01,1.92-3.18c-.58-1.24-1.87-1.98-3.02-2.71-.32-.29-.52-.9-1.17-.96l-.54-1.32,7.02,1.06c.6-.91,1.08-1.7,1.52-2.61l2.16-4.46.23,3.25c.85.42.3,1.01.15,1.65-.23,1.01.1,2.09.32,3.2,2.01.61,3.88,1.03,6.12,1.41-.17.83-1,.88-1.63,1.18l-2.97,1.41c-1.66.93-.13,4.44-.42,7.44l-3.5-4.02c-.28-.32-1.07-1.17-1.49-1.03Z"/>
        <path class="cls-4" d="M220.26,51.04c-1.04,1.68-1.65,3.15-2.53,4.94l-.58-2.73-.5-2.97c-1.03-.48-2.23-.28-3.33-.15-.35-.02-.81-.3-1.25,0l-1.04-.55,4.95-2.93c-.12-.88-.24-1.62-.45-2.41l-1.04-3.89,1.88,1.91c.76-.17.73.48.98.95.39.75,1.18,1.26,1.91,1.83,1.58-.65,2.98-1.34,4.58-2.25.34.61-.15,1.06-.39,1.57l-1.1,2.4c-.54,1.43,2.3,2.84,3.72,4.86l-4.33-.71c-.34-.06-1.3-.18-1.48.12Z"/>
        <path class="cls-4" d="M33.83,53.79l1.23.4-3.13-.46c-.86-.13-2.14.12-2.64-.89.09-.13.6.06.77.25,1.22.16,2.51.38,3.76.7Z"/>
      </g>
      <g>
        <path class="cls-4" d="M226.64,31.39c-.79.03-1.49.03-2.16-.1s-1.17.25-1.74.37c-1.48.31-3.01.27-4.58.15-.43-.03-.28-1.09.02-1.39l5.37-5.39c-1.45-2.77-2.74-5.27-3.65-8.34,2.99,1.5,5.49,3.05,8.19,4.61l6.14-5.5c.24-.22.85-.39,1.12-.31.31.09.68.78.61,1.11l-1.2,5.92c-.16.77-.27,1.64-.2,2.34l6.2,3.46c.14.08.38.49.34.63-.04.17-.37.39-.59.43l-7.03,1.16-2.59,7.45c-.94-.09-1.54-.7-1.92-1.52l-2.33-5.06ZM226.37,29.91c.6-.07,1.03-.05,1.31.53l2.64,5.38,1.5-4.59.68-2.08,5.66-1.08-2.94-1.43,2.57.85-4-2.2c.08-.52-.09-.59-.36,0l1.72,1.16c-.97-.07-1.63-.59-2.11-1.28l1.47-7.66-4.04,3.72c-.52.48-1,1.02-1.65,1.32l-.42.19c-.08.04-.28-.32-.37-.36l-3.33-1.6,2.01.51-4.45-2.48,1.01.94-.72-.17,2.16,4.73c.37.81.36,1.41-.34,2.06-1.45,1.34-2.72,2.64-4.1,4.23l6.11-.7Z"/>
        <path class="cls-4" d="M203.74,18.4l-1.89,1.63.04-2.41-1.37-.79c-.14-.08-.39-.37-.45-.51-.19-.42,1.29-.18,2.16-.71l.56-2,1.12,1.82,2.54.22-1.62,1.85.84,1.6-1.93-.7Z"/>
        <path class="cls-4" d="M213.7,6.47c-.45.71-1.54.55-1.89.21-.06-.14.09-.8.26-.81l.9-.04.6-.03c.13,0,.21.53.13.66Z"/>
      </g>
    </g>
  </g>
</svg>