<?xml version="1.0" encoding="UTF-8"?>
<svg id="Layer_2" data-name="Layer 2" xmlns="http://www.w3.org/2000/svg" viewBox="0 0 246.34 73.17">
  <defs>
    <style>
      .cls-1 {
        fill: #fb8592;
      }

      .cls-2 {
        fill: #ccedff;
        font-family: Impact, Impact;
        font-size: 36px;
      }

      .cls-3 {
        fill: #d34459;
      }
    </style>
  </defs>
  <g id="Layer_1-2" data-name="Layer 1">
    <g>
      <rect class="cls-1" x="0" y="0" width="246.34" height="73.17" rx="28.05" ry="28.05"/>
      <text class="cls-2" transform="translate(66.01 50.26)"><tspan x="0" y="0">MOVIES</tspan></text>
      <path class="cls-3" d="M204.88,6.82c.92-.19,1.18-.83,1.63-1.51.58-.87,2.13.07,2.31.86,1.68.27,2.47,1.05,2.44,2.56l.1-.07,1.04-1.11c1.03-1.09,1.03,1.07,2.59.86l1.17.74.98,1.34c.54.74.74,1.2,1.81,1.32.61.07,1.79.64,2.16,1.15.2.28-.05,1.28-.15,1.54.79.44,1.41.93,1.98,1.54l.09-.06.83-.33c.19-.08.45.49.64.6.96.57,1.33,1.7,1.57,2.79l4.58,1.26c.08.02.46-.03.54-.03s.1.2.05.27l-.23.31c-.15,1.08-.26,2.23-.57,3.32l-2.06,7.39-.66,2.24-.09.11-1.82,5.69-2.29,6.82c-.26.77-.14,1.9-.6,2.64-.36.59-.71,1.26-.77,1.95-.19,2.22-.65,4.18-1.27,6.27-.35,1.17-.89,2-1.81,2.85s-1.79,2.27-2.91,2.97l-2.3,1.44c-.64.4-1.14.98-1.69,1.51-.82.78-1.78,1.43-2.77,2.17-2.02-.36-4.08-.49-6.03-1.04-2.31-.65-4.48-1.32-6.81-1.72-.48-.27-1.12-.55-1.7-.71l-2.21-.62c-1.56-.44-3.39-.48-4.5-2.04l2.87.96c.36.12,1.05.57,1.43.65l5.23,1.14.1-1.3-.38.83-.52-2.61-.86-5.97-.99-6.42-.71-4.57c-.25-1.6-.35-3.2-.5-4.71l.23-.24.14,1.35.17-.19-.14-2.53-.22-.11-.18,1.5-.52-2.8c-.34-1.85-.53-3.67-.69-5.54l-.48-5.38-3.55-.54c.34.61.53,1,.61,1.49l.8,4.91.7,3.66c.14.76.15,1.44.07,2.31l.37-.63-.22,1.67.56,2.91.24-1.78c.4,1.79.71,3.62.81,5.46-.84.97-.1,4.11.4,5.96-.09-1.93-.38-3.58-.65-5.27l.25-.16.42,2.34.73,4.88-.59-.85.43,2.88c.02.16-.07.61.08.64l.66.16,1.34,7.08-.26.19-.64-2.87-.17.16.5,3.14-.55-.8c-.08-.12-.36-.07-.69-.1l-.33-1.17-1.22-4.65c-.13-.49-.45-1.26-.49-1.76l-.24-3.72-.21-1.68-.39,1.1.21-1.93-1.25-7.15c-.27,2.25.61,4.33.8,6.77-.92-2.02-.91-4.2-1.33-6.41l-1.51-7.86c-.15-.78-.35-1.4-.5-2.19l-.55-2.95c-.27-1.42-.85-2.44-.78-4.03l-2.6-.55,1,5.57-.12.68c-.02.1.22.1.37.11.35,3.38,1.78,6.43,2.17,9.33l.21,1.54c1.23,1.14.21,2.07,1.04,2.68.93,3.34,1.31,6.76,1.99,10.18.51,2.58,1.6,4.91,1.76,7.76-.71-.11-1.01-.88-1.23-1.86l-.3,1.11-.66-3.54c-.13-.68-.46-1.51-.67-2.13l-.21.77-1.42-5.41c-.34-1.29-.77-2.76-.87-4.07-.08-1.18-.05-2.15-.46-3.46l-.35,1.1-1.12-5.52c-.33-1.63-.97-3.26-1.42-4.94l-2.74-10.07-2.79-.83c.24,1.2.51,2.06.85,3.18l1.96,6.57c.67,2.26,1.77,4.37,2.17,6.7.21,1.19.41,2.25.77,3.37l1.29,3.96,2.87,9.36c.36,1.18.53,2.83,1.06,3.88l-.27.21-.31.39-2.03-6.19-1.43-4.33c-.51-1.55-1.01-3.03-1.26-4.65-.33-2.19-1.19-4.09-1.81-6.13l-2.75-9.02c-.66-2.17-1.3-4.43-2.19-6.52-.08-.19-.19-.82-.02-.91l.72-.36c.54-.27,1.2-.7,1.78-.91,1.07-.38,2.37-.63,2.99-1.57.14-.21.54-.87.72-.73l.69.52,1.91-.88-.42-.96c-.23-.52,1.91-.43,1.83-1.55-.41-.35-.91-1.15-.61-1.39.45-.36,1.08-.7,1.05-1.06l-.12-1.48c.21-.49,1.43-.76,2.07-.68l.97-.59.16-.13c.16-.18.32-.8.37-1.16l1.52-1.22h2.7c.36-.82.86-1.81,1.39-2.19.67.08,1.13-.06,1.52-.24l2.36.7c.54.28.55,1.66.37,2.41l1.32.89c.08-1.44,1.08-2.42,2.4-2.22.21.03.9-.19.82-.38s-.3-.52-.46-.68l-1.07-1.03-1.08-.63-1.44.9c.42-.94,1.15-1.21,2.07-1.47l.9.78.75.67.16-.18ZM204.84,7.13l.35.54c.15.23.27.67.34,1.06l1.17.18.75-.95c.15-.19.75.15,1,.2l2.26.38c.13-.84-.53-1.57-1.47-1.83s-1.1-1.38-2.35-1.38c-.34,1.08-.96,1.48-1.81,1.71l-.24.09ZM197.36,11.19l2.58-.82c.36-.35.34-1.8-.04-2.26l-2.16-.63c-.61.16-.94.23-1.51.33l-1.02,1.58.89.33c.34.13-.14,1.79.42,1.66l.83-.19ZM216.42,12.35c-.13-.58-.06-.97.41-1.61l-.69-.4c-.46-.89-1.25-1.66-2.38-1.41l-.78-1.43-1.48,1.32-.2.09-.08.61c-.05.35,1.22-.05,1.66.32.18.15.17.55.14,1l.19.2.2-.1c.43-.2,1.54-.14,1.72.34.27.72.52,1.07,1.06,1.17l.22-.11ZM208.77,11.01l2.02.49c.63.15,1.1.19,1.57-.21.29-.25.38-1.21.02-1.21l-1.28.04c-.22,0-.29-.78-.48-.91-.89-.64-2.92-1-3.33-.69-.67.5.22,1.5-.63,3.19l1.2.29.21-1.04c.03-.14.55.03.7.07ZM203.74,11.67c.57-.69,1.64-.99,2.53-.39.44-.55.61-1.5,0-2.08-.33-.32-1.33.11-1.73.22-.73-.23-1.33-.35-1.92.32-.24.27-.55,1.01-.41,1.08.7.23,1.09.42,1.53.84ZM193.64,12.22l1.46-.08c.88-.05,1.07-1.82.46-2.15l-3.26-.15-1.1,1.29c.06.51-.38.76-.79.92l-.18.04c-.1.16-.37.58-.34.54,1.77.67,1.54,2.17,3.44,2.14l.22-2.4c.05-.11.07-.16.09-.16ZM201.95,13.68c.1-.76.55-1.18,1.56-1.46-.05-.18-.41-.79-.69-.8l-1.23-.03c-.43-.3-.94-.59-1.46-.55-.38.03-.66.53-.85.97l-.1-.9c-1.19.48-2,.74-3.47,1.08.43.54,1.19,1.32,1.65,1.66.46-.5.62-.69.82-.82s.8.15,1.04.32c.91.64,1.61-.37,2.01.04l.6.62.13-.14ZM213.57,11.11s-.15.02-.18.03l-1.34.87,1.33,1.76,2.4,1.85.11-.11c.53-.61.74-1.07.55-1.83-.17-.68-.74-.93-1.36-1.21-.07-.36-.15-1.08-.4-1.22s-.83-.16-1.12-.15ZM215.92,15.79l.28,1.49c.74-.76,1.46-.41,1.96.2.46.56.37,1.69-.38,1.9.07-.63.2-1.41-.03-1.73-.4-.56-2.34-.24-2.7,1-.02-.11-.04-.85.17-1.01l.69-.51c-.86-1.57-2.37-3.04-3.04-2.64l-1.25.75,1.1-1.33c-.2-.81-1.21-1.82-2.13-2.01l-2.06-.42-.07,2.79c-.74-.37-.77-.87-.71-1.73l-1.33-.47c-.42-.71-1.48-1.07-2.04-.36-.46.58-.96.97-1.58,1.41l-.76.7-.1.15,1.26.88c.68-.9,1.28-.8,2.15-.52.77-.14,1.39.02,2.06.45,1.02-.09,2.51-.16,3.11.71.49.71.75.96,1.77,1.14l.69,2.53c.8-.79,1.96-.39,2.63.51.54.71,1.8.57,2.9.05.47-.22,1.5.1,2.01.16.91.11,1.42.35,1.62,1.28l1.57-.4c.74-.19-.64-1.69-3.42-2.18l-1.01.83-.18-.23,1.91-1.69-2.75-2.1c-.74-.56-1.85-.35-2.22.25l-.14.15ZM216.47,12.57l.54,2c1.53.27,3.88,2.02,4.2,2.64.12.23-.14.87-.25,1.18l2.06.36c-.22-.88-.44-1.9-.78-2.77-.49-1.27-2.21-1.33-3.32-1.07.23-.29.99-.45,1.54-.51.3-.03.44-1.04.24-1.28-.64-.77-2.36-.82-3.99-1.82l-.19,1.19-.05.09ZM193.83,12.49l-.12.12c-.69,2.57.99,2.48,1.3,3.7.13.51-.15,1.26-.4,1.82.99.51,1.39,1.4,1.54,2.3.49.2.99.59,1.25.97l1.06-.67c.25-.16,1.67.77,1.5.33l-.2-.53c-.11-.29-.26-.95-.12-1.12l3.12-1.55c.19-.09.68-.21.77-.04l.24.48c-.49-.08-.86-.05-1.25.16l-2.47,1.28.58,2.21c2.93-1.78,4.14,1.33,5.01-.02-1.39-.96-2.11-3.11-1.95-3.23l.64-.52.1-.64c.08-.49,1.82.17,2.79-1.32l-.66-1.4-2.2-.21c-.44-.04-.97.63-1.29,1.03l-.63.77c-1.1,1.35-1.92,1.43-1.94,1.7l-.05.74c-1.27-1.07-1.62-2.1-3.87-2.95.02.58.1,1.09,0,1.35s-.67.67-.8.7l.48-1.02c.08-.18-.53-.41-.68-.45.44-.84,1.22-1.09,2.21-.85.22-1.2-1.78-2.94-2.87-2.86l-1.07-.26ZM190.24,16.64l1.18-2.25c-.89-1.53-2.6-1.76-3.96-1.12l.03,2.27-1.28.55.92.91c.93-.45,1.72-.33,2.51.22l.47-.46c.07-.07.11-.1.12-.13ZM202.12,15.99l.62-.68c.13-.14-.44-.47-.59-.6l-1.29-1.18-1.1.48c-.3.13-1.42-1.19-1.56-.79-.06.17-.16.62-.17.81l-.12,1.77c.8.57,1.52,1.14,2.11,1.91.79-.46,1.48-1.07,2.09-1.74ZM190.17,17.05c-.23.86.44,1.81,1.42,1.86l.47,1.37c.28.43.6,1.01.64,1.43.03.33-.46.97-.75,1.17l1.51,2.04-.52.77,3.95.21c.08-.03-.07-1.03-.31-1.1-.72-.18-2.12-.16-2.93-.13.96-.47,2.29-.43,3.35-.18.34.52.41.1.25-.18.27-1.12.18-1.88-.4-2.89-.28-.5-1.32-.98-1.61-.39-.55,1.09-1.41,1.75-2.62,1.35,1.32-.14,1.93-.62,2.23-1.62.31-.18.82-.58.77-.86-.04-.23-.33-.68-.5-.85l-1.3-1.27c-.39-.39-1.63-.42-2.23-.37l.59.76c.09.12-.08.48-.17.68l-.76-1.02c-.67-.89,1-1.07,3.25-.38.06-.46,0-1.42-.32-1.69-.49-.42-2.17-.9-2.61-.6l-1.15,1.73s-.13.08-.27.17ZM209.32,21.01c-.03-1.48-2.05-1.41-.86-2.29l.53-.39c.09-.07-.14-.55-.1-.67.18-.51,1.08-1.07,1.77-1.33-.59-1.08-2.06-1.42-3.14-1.16.05.47.15,1.12,0,1.38s-.48.46-1.13,1l2.07.62c-1.24.69-3.59-1.16-3.48-.5l.13.82-.92.41.69,1.56c.9,2.03,2.48-.25,4.26.64l.18-.11ZM222.99,16.28c-.13.53.13,1.85.52,2.24l2.04.59c.05-1.08-.39-2.25-1.5-2.63-.08-.21-.22-.56-.35-.51l-.53.19-.18.12ZM209.99,20.6l1.74.38,1.11-1.37-.82-2.59c-.98-.43-2.23-.04-2.7.81.28.12.65.28.6.43-.04.11-.24.4-.35.45l-.89.41,1.31,1.49ZM190.51,22.83c.4.16,1.4-.28,1.61-.67.32-.59-.08-1.29-.6-1.62l-.35-1.34-2.8.74,1.85-.98c.02-.53-.55-1.35-1.09-1.62-1.8-.89-1.93,1.17-3.74,1.44.18.67.81,1.57,1.55,1.83l1.49-.4.66,2.17c.45.08.87.22,1.41.44ZM215.66,21.85l-.16-1.48c-.06-.57-1.2-1.27-1.81-1.16l-1.8,1.98.4,1.83c1.07,0,1.37-1.78,3.37-1.17ZM227.73,21.12c-2.46-.88-3.26-2.55-4.06-1.77.56.62.64.83.68,1.45l1.57.5c.64.2,1.29.59,1.81-.17ZM229.16,20.3c-1.58-.54-2.26-.76-3.57-.87l1.96,1.19c.57.35,1.38.26,1.61-.32ZM220.82,22.13l1-.11-.3-1.45-3.17-.67c-.19,1.53,1.03,2.47,2.26,2.4.02-.02.17-.17.21-.17ZM218.37,22.59c.16-.7-.23-1.82-.91-2.11-.37-.16-1.24.13-1.67.37.08,1.23,1.36,2.43,2.59,1.74ZM185.66,22.91c-.89.18-1.71.15-2.18-.19.84-.53,1.21-.76,1.65-1.2l-2.47-.82c-.86.72-1.37,1.71-1.39,3.08,1.41.25,2.66.44,4.15.6.41-.2.54-1.37.23-1.47ZM186.62,22.93l1.91.02-.29-2.17-1.42.17c-1.4-.54-.98,1.05-2.48,1.76,1-.21,1.62-.09,2.29.2ZM209.23,21.36l-.19,2.41c.89.25,2.66-.27,2.72-1.43s-1.63-1.67-2.33-1.2l-.21.22ZM199.18,22.82c.44.4,1,.82,1.18.64l.68-.65c-1.29-1.94-3.43-1.9-3.34-1.18l.28,2.13c.58-.54.99-.9,1.2-.94ZM227.54,33.63l.81-3.81c.34-1.58.38-3.02,1.17-4.62,0-.42-.18-.57-.55.02.22-1.3.57-2.56.97-4.16-.63.55-.77,1.37-.96,2.18l-.86,3.8c-.13.57-.05,1.3-.17,1.9l-.44,2.11-.24-.5c-.03-.07-.26.29-.29.34-.45,2.33-1.06,4.55-1.87,6.81l-1.03,3.12c-.31.94-.8,1.77-.25,2.88l1.35-4.39c.12-.39.56-1.1.65-1.54.24-1.24.56-2.24,1.03-3.35l-.1-1.39.41.76c.05.1.19.04.31,0l.05-.17ZM208.14,27.5c.16-.55.48-.82.87-1.02l-.9-.13c-.1-.01.09-.37.19-.38l.53-.04c.71-.06,1.36-.05,1.59-.82-1.19-.34-2.13-.22-3.37.01.48-.53,1.27-.69,1.98-.83-1.46-.61.54-2.51-.74-2.92-.75-.24-2.29.49-2.58,1.17l-.74,1.71c.81-.22,1.8.72,2.23,1.8.17.2.68.52.65.77l-.11.96,3.72.16c.19.08,0-.81-.25-.92-1.04-.48-2.24-.15-3.08.47ZM225.08,22.98l1.38-.93-2.51-.72c-.82-.23-1.76.2-1.94.87l3.07.78ZM204.4,24.02c.31-.17.73-.79.76-1.07l-1.44-.84c-.82-.48-1.9-.7-2.6-.01l.2,1.01c.04.22-.53.49-.71.62l-.45.32c-.07.05.36.16.43.11,1.89-1.54,2.7.5,3.82-.13ZM181.02,23.75c-.15-.73-.07-1.05.31-1.88l-3.17,1.25,2.86.63ZM216.12,23.07c.07-.46-.86-1.02-1.25-.98-.45.04-1.01.29-1.47.79-.34.36,0,1.29.29,1.65s1.4.59,1.67.26c.33-.41.66-1.05.76-1.72ZM220.74,53.73l-1.04,2.83c-.31.93-.39,1.83-1.16,2.59l1.45-6.38c.76-.97.95-2.16.71-3.36.66-1.85,1.32-3.63,1.9-5.46l1.43-4.55.88-2.78,1.22-4.29c.41-1.45.63-3.05.97-4.54l1.32-5.71-1.29.41c-.28,1.56-.51,3.09-.93,4.61-.93,3.34-1.71,6.54-2.39,9.96-.13.63-.69,1.32-.86,1.82-.54,1.58-.85,3.16-1.27,4.77l-2.24,8.54-1.99,8.43c.69-.23.98-.75,1.13-1.28l.51-.02c.07,0,.09-.34.11-.41l1.18-3.22c.21-.58.35-1.33.36-1.96ZM220.91,22.3c-.17.09-.21.09-.22.13-.14.5.31,1.38.71,1.67.19.14.91.07,1.14-.04l1.74-.8-1.91-.54-1.46-.42ZM221.13,24.65l-.66-1.23c-.17-.31-.76-.77-1.04-.84-.1.54-.13.89-.3.95l-.78.32,1.01,1.58,1.77-.79ZM192.75,25.06c-.66-2.5-2.14-1.12-3.33-2.25-.43.43-.83,1.28-.88,2l2.42.54c.52.12,1.47.13,1.79-.29ZM218.39,24.78l-.64-.96c-.18-.27,1.29-.38,1.14-.98-.66.45-1.44.48-2.22.16l-.46,1.37,2.17.4ZM188.27,24.76l-.03-1.25c0-.21-.73-.24-.94-.22-.63.05-1.12.38-1.17,1.22l2.15.26ZM219.19,50.74l.58-1.62.92-3.9c.39-1.65.65-3.25,1.13-4.88.87-2.96,1.62-5.8,2.28-8.7l.2,1.32.39-1.49-.42-.11c.4-1.59.55-3.09.91-4.64l.82-3.53-1.78.77c.25,1.32.12,2.57-.7,3.62.22,2.06-.73,3.81-1.12,5.73-.63,3.09-1.24,6.1-2.1,9.19-.15,1.32-.46,2.57-1.06,3.71-.24,1.64-.57,3.15-1.01,4.74-.99,3.53-1.7,6.92-2.12,10.63l.47.03c.11,0,.12-.39.12-.55l.84-3.93.7-3.16c.25-1.12.55-2.09.96-3.22ZM199.99,26.17c.38-.94-.01-2.22-.67-2.57-1.28.34-2.18,1.35-1.86,2.49.68.25,1.87.33,2.52.07ZM210.82,25.62c.99-.24,1.69-.34,2.64-.41-.17-.67-.74-1.3-1.42-1.5-.52-.15-1.7.23-1.57.7l.35,1.2ZM203.78,25.5c.08-.15.27-.65.13-.72l-.69-.35c-.5-.25-1.1-.57-1.57-.54-.36.02-1.1.54-1.13.91-.05.53.4,1.25.79,1.5.34.22,1.01-.07,1.48-.28.18.02.61.15.69.01l.3-.53ZM214.58,61.16v1.97c.67-1.28.71-2.44.99-3.73l.7-3.21c.44-2.02.57-4.13,1.28-6.08.66-1.8.94-3.55,1.26-5.44.35-2.1,1.12-4.08,1.6-6.17l1.46-6.39c.59-2.59,1.25-5.05,1.24-7.71l-1.46.54-.79,5.39c-.23.54-.67,1.39-.77,2.06l-.59,3.78-.82,4.69c-.28,1.62-.57,3.23-1,4.8-.13.45-.35.91-.41,1.4-.53,4.18-2.67,8.56-2.68,14.1ZM207.48,27.46c-.06-.37-.18-.73-.35-.78l-.84-.25c-.15-.05.31-.66.2-.79l-.52-.56c-.21-.23-.81-.58-1.06-.42-.77.52-.79,1.78-1.36,1.86l-1.1.15,2.83.86c.55.16,1.56.08,2.19-.06ZM216.74,26.44c.67-.25,1.43-.23,2.08-.97-.75-.31-1.75-.56-2.45-.43l-2.16.39.69,1.69,1.84-.68ZM212.79,28.11l1.83-.59c-.28-.8-.84-1.46-1.58-1.77-.65-.27-1.56-.02-2.22.43.88.52,1.09.97,1.33,1.8l.16.58c.02.08.39-.42.48-.45ZM213.11,57.65c-.64,2.54-.91,5-1.11,7.54,2.46-2.78,2.12-8.41,2.95-11.13.34-1.11.76-2.11.81-3.3.09-2.4.67-4.55,1.39-6.81.39-1.21.4-2.66.71-3.89l.98-3.9c.5-2.01.82-4.02.93-6.1l.22-4.27c-.35.05-.84.25-.88.44l-.45,2.42c-.42,2.24-.89,4.13-1.27,6.33l-.61,3.54c-.65,2.46-.77,4.84-.94,7.29l-.29-1.78c-.35,2.35-.6,4.69-.83,7.19-.58,1.31-.96,2.67-1.02,4.16l-.58,2.3ZM198.51,57.29l.31,4.01.23,3.58.93.17-1.14.35,2.08.03-.25-5.75c-.06-1.35-.39-2.61-.44-3.96l-.19-5.18-.75-11.01-.56-4.89-.34-4.07-.27-3.65-2.76-.34-.25,2.86c-.06.68-.03,1.51,0,2.12l.4-.87c-.12,1.36-.21,2.28-.18,3.4l.28-1.57.09.23c.13,1.75.27,3.58.52,5.36l.64,4.43c.2,1.41.24,2.8.37,4.27.06.67-.16,1.26-.22,1.87-.16,1.73.05,3.47.24,5.12l.21-2.79c-.03-.52-.14-1.1-.02-1.76.6,2.58.85,5.19,1.07,8.05ZM204.66,66.68l-.19-2.23c-.05-.57.17-1.19.33-1.84.26-1.08.11-2.44.1-3.59v-4.24s-.41,1.8-.41,1.8c-.3-3.67.28-7.5.05-10.64l-.25-3.45c-.16-2.14.03-4.27.12-6.43.11-2.83-.05-5.55-.23-8.39l-3.07-.25c.26.52.27,1.15.28,1.85l.12,4.98.24,4.12c.07,1.24.19,2.41.19,3.66v3.22c.01,1.95-.05,3.77.1,5.6l.19-3.7.24.28c.02,2.33-.17,4.76.02,7.21.14,1.78.46,3.48.4,5.28-.08,2.08.37,3.97-.08,6.13.3.35,1.06.55,1.84.62ZM211.69,51.91l-.51,4.36-.51,4.31-.91,5.98c.65-.19,1.03-.67,1.15-1.33.46-2.58.72-5.02,1.12-7.6l.77-4.94c.43-2.73,1.43-5.39,1.65-8.11.15-1.94.53-3.47.9-5.32l1.29-6.57c.35-1.76.37-3.58.54-5.39l-1.87.98c-.18.09-.09,1.06-.05.84l.61-.7-.81,2.42c-.52,1.56-.51,3.29-.82,4.94-.16.83-.32,1.73-.27,2.55.09,1.53-.57,2.68-.83,4.02-.62,3.2-1.06,6.69-1.18,10.09l-.28-.54ZM209.35,43.77l.3,1.34.34-1.76c.18-.95.02-1.79.37-2.68.11-.69.07-1.72.02-2.35l-.37,1.28c-.27-2.47.45-3.96.52-6.04l.12-3.83c.27.03.55.1.62-.02l.24-.4-3.93-.97-.44,8.05-.49,12.77-.43,15.04-.38,2.96,1.81.28.85-7.19c.13-1.06.49-2.15-.67-2.83.37-1.93,1.17-3.78,1.24-5.68l.3-7.96ZM212.27,37.26l-.02-5.56-.19.13-.07,3.78c0,.55-.58,1.29.28,1.66ZM185.68,39.87l.27.07-1.04-4.34-.29.17,1.05,4.1ZM204.63,35.61v5.73h.29v-5.73h-.29ZM211.49,50.12l.74-5.36c-.7,1.37-.9,3.78-.74,5.36Z"/>
      <g>
        <path class="cls-3" d="M174.79,61.78c-.54.02-1.01.02-1.47-.07s-.79.18-1.19.26c-1.01.22-2.05.19-3.12.1-.29-.02-.19-.76.02-.97l3.65-3.74c-.98-1.93-1.87-3.66-2.48-5.8,2.03,1.04,3.73,2.12,5.57,3.21l4.18-3.82c.16-.15.58-.27.76-.22.21.06.46.54.42.77l-.82,4.11c-.11.54-.19,1.14-.14,1.63l4.22,2.4c.09.05.26.34.23.43-.03.12-.25.27-.4.3l-4.78.81-1.76,5.18c-.64-.06-1.05-.48-1.3-1.06l-1.59-3.52ZM174.6,60.75c.41-.05.7-.03.89.37l1.8,3.74,1.02-3.19.46-1.45,3.85-.75-2-.99,1.74.59-2.72-1.53c.06-.36-.06-.41-.25,0l1.17.8c-.66-.05-1.11-.41-1.43-.89l1-5.32-2.75,2.59c-.35.33-.68.71-1.12.91l-.29.13c-.06.03-.19-.22-.25-.25l-2.26-1.11,1.37.36-3.03-1.73.69.65-.49-.12,1.47,3.29c.25.56.24.98-.23,1.43-.98.93-1.85,1.84-2.79,2.94l4.15-.48Z"/>
        <path class="cls-3" d="M174.59,14.65l-1.29,1.13.03-1.68-.93-.55c-.09-.06-.26-.26-.31-.36-.13-.29.88-.13,1.47-.5l.38-1.39.76,1.26,1.73.15-1.1,1.29.57,1.12-1.31-.48Z"/>
        <path class="cls-3" d="M181.36,6.35c-.31.5-1.05.38-1.29.15-.04-.1.06-.55.18-.56l.61-.03.41-.02c.09,0,.14.37.09.46Z"/>
      </g>
      <g>
        <path class="cls-3" d="M28.19,54.02c.43-.32.83-.59,1.25-.77s.55-.6.83-.89c.71-.75,1.58-1.31,2.51-1.85.25-.15.58.52.53.81l-.9,5.15c1.9,1.03,3.61,1.97,5.33,3.38-2.27.29-4.28.36-6.4.5l-1.28,5.51c-.05.22-.33.55-.51.61-.21.07-.69-.19-.78-.4l-1.65-3.85c-.22-.5-.49-1.05-.81-1.42l-4.84.4c-.11,0-.4-.13-.44-.23-.04-.12.05-.36.17-.47l3.49-3.37-1.48-5.26c.56-.31,1.14-.19,1.67.13l3.3,2ZM28.92,54.77c-.31.27-.56.42-.95.2l-3.6-2.07.96,3.21.44,1.45-2.75,2.8,2.21-.31-1.77.5,3.11-.28c.16.33.28.3.21-.14h-1.42c.57-.33,1.15-.29,1.68-.08l2.18,4.96.81-3.69c.1-.47.16-.97.41-1.39l.16-.27c.03-.05.28.08.35.07l2.49-.37-1.33.48,3.48-.29-.94-.15.47-.18-3.07-1.88c-.53-.32-.76-.67-.62-1.31.29-1.32.49-2.56.64-4l-3.15,2.75Z"/>
        <path class="cls-3" d="M235.95,23.3l.42-1.66.93,1.4,1.08-.07c.11,0,.36.06.45.12.27.17-.65.6-.93,1.24l.47,1.36-1.34-.61-1.51.85.18-1.69-1.1-.6,1.36-.34Z"/>
        <path class="cls-3" d="M235.05,33.96c-.03-.58.65-.91.98-.85.09.06.26.49.17.56l-.49.37-.33.25c-.07.05-.33-.22-.33-.32Z"/>
      </g>
      <g>
        <path class="cls-3" d="M43.8,48.26l-1.74,3.66-7.32-3.49-12.97-6.18-6.76-3.2-.96-.39.45-1.08,1.4-3.19,4.79-10.27c.33-.7.78-1.39.99-2.1-.16-.25-.29-.59-.25-.9.2-1.47.48-2.84.82-4.32.05-.22.35-.58.47-.76.09-.49.08-1.05.32-1.55.15-.3.73-.49,1.13-.47l30.38,1.18c.25,0,.41.53.43.72.13,1.05,0,2.09-.27,3.11-.07.27-.36.43-.66.42l-15.02-.63-13.71-.5.21.77,4.86,2.26,11.57,5.32,3.11,1.44,5.39,2.44c.41.18.83.44,1.13.72.36.32.28.72.14,1.11-.28.79-.53,1.65-1.18,2.21-.27.23-.49.41-.65.76l-6.11,12.91ZM50.85,19.03l3.56.21c.38-1.1.66-2.9.13-3.84h-1.1s-2.2,3.5-2.2,3.5l-.39.13ZM43.59,18.73l3.33.12c.92-1.19,1.75-2.34,2.55-3.64l-3.61-.14-2.26,3.65ZM39.29,18.61c.94-1.26,1.72-2.36,2.56-3.68l-3.67-.15-2.28,3.75,3.39.08ZM28.26,18.25l3.67.16,2.52-3.77-3.81-.15-2.39,3.76ZM24.43,16.23l.53,1.11,1.93-2.8.45-.18-3.26-.11c-.25,0-.85.17-.89.41l-.25,1.39,1.49.17ZM25.03,23.28l1.15.46c.23-.27.3-.69.19-1.07-.47-1.66-.94-3.26-1.5-4.89-.16-.48-.37-.94-.6-1.38-.48-.06-.96-.11-1.43-.08-.22.01-.45.55-.46.76-.33,1.54-.64,2.95-.76,4.56,1.12.61,2.2,1.16,3.4,1.64ZM51.15,33.39l.42-1.11c.49-1.11-1.58-1.69-2.97-2.32.09,1.55.27,2.89.5,4.35.23.14.7.39.94.32.55-.16.9-.71,1.11-1.25ZM31.61,26.27l-.16-4.23-3.55-1.6c.13,1.54.37,2.97.69,4.43l3.01,1.4ZM38.56,29.52l-.16-4.26-3.29-1.51c.08,1.56.22,2.9.42,4.36l3.03,1.41ZM45.5,32.74l-.24-4.32-3.45-1.58.34,4.39,3.34,1.51ZM14.29,38.56l.81.32,5.31,2.52,13.69,6.51,7.84,3.72,1.7-3.49,4.26-8.87,1.76-3.68.25-.68-5.17-2.27-8.55-4-10.46-4.87-1.21-.51-2.61-1.15c-.2.61-.52.99-.75,1.5l-5.02,10.73-.51,1.31-1.32,2.91Z"/>
        <path class="cls-3" d="M38.58,42.82l3.73,1.86c.3.17.62.23.82.58-.91-.35-1.66-.8-2.52-1.22l-3.87-1.91-4.42-2.18-5.14-2.53-5.32-2.6c-1.31-.64-2.62-1.1-3.84-1.95,1.92.72,3.65,1.62,5.44,2.54l2.26,1.07c.82-1.57,1.59-3.06,2.31-4.68l-2.78-1.39-4.9-2.32.08-.17,5.18,2.44,2.17,1.08,3.7,1.79,4.15,2.04,2.62,1.28,3.41,1.72,3.6,1.8s.18.12.15.13l-.18.08-3.48-1.74-3.99-1.97-.6,1.18-1.67,3.52,3.1,1.55ZM28.24,31.83l-2.35,4.77,9.4,4.64,2.35-4.77-9.4-4.64Z"/>
        <circle class="cls-3" cx="23.54" cy="17.7" r=".47"/>
        <circle class="cls-3" cx="24.99" cy="22.05" r=".47"/>
        <circle class="cls-3" cx="22.75" cy="21.12" r=".47"/>
      </g>
      <path class="cls-3" d="M11.06,32.63l-1.86-3.07c-1.56.18-2.96.34-4.68.34l3-2.78c-.76-1.06-1.44-2.06-2.08-3.3,1.39.25,2.4.64,3.63,1.14l3.32-3.04c.11,0,.35.03.39.1.05.1.09.37.06.51l-.87,3.68,3.67,1.64-3.87,1.28-.14,3.74c-.11.07-.49-.09-.58-.22ZM9.36,29.24l1.98,3.19.15-3.54,3.37-1.1-3.18-1.44.92-4.19-3.45,3.11c-1.1-.46-1.95-.82-3.15-1.04.68,1.11,1.26,1.97,1.94,2.91l-2.66,2.45c1.45-.05,2.74-.2,4.09-.35Z"/>
      <path class="cls-3" d="M13.62,55.24l.03,1.72-1.26-1.11-1.02.35c-.1.04-.37.03-.47,0-.31-.09.47-.75.57-1.44l-.81-1.19,1.46.24,1.23-1.22.27,1.67,1.22.29-1.22.69Z"/>
      <path class="cls-3" d="M11.69,44.71c.18.55-.39,1.05-.72,1.08-.1-.03-.38-.41-.31-.5l.38-.48.25-.32c.05-.07.38.13.41.23Z"/>
      <path class="cls-3" d="M44.53,8.87l.03,1.72-1.26-1.11-1.02.35c-.1.04-.37.03-.47,0-.31-.09.47-.75.57-1.44l-.81-1.19,1.46.24,1.23-1.22.27,1.67,1.22.29-1.22.69Z"/>
    </g>
  </g>
</svg>