<?xml version="1.0" encoding="UTF-8"?>
<svg id="Layer_2" data-name="Layer 2" xmlns="http://www.w3.org/2000/svg" viewBox="0 0 47.86 45.82">
  <defs>
    <style>
      .cls-1 {
        fill: #ffb73b;
      }
    </style>
  </defs>
  <g id="Layer_1-2" data-name="Layer 1">
    <path class="cls-1" d="M23.93,0c-1.12,0-2.24.6-2.78,1.8l-5.36,12-13.07,1.39c-2.62.28-3.67,3.52-1.72,5.29l9.75,8.8-2.72,12.86c-.54,2.58,2.22,4.58,4.5,3.27l11.39-6.56V0Z"/>
    <path class="cls-1" d="M24.93,1.25c.37.21.68.54.87.96l5.36,12,.23.53.57.06,13.07,1.39c.83.09,1.47.61,1.73,1.4.26.79.04,1.59-.57,2.15l-9.75,8.8-.43.39.12.56,2.72,12.86c.13.62-.01,1.22-.4,1.7-.39.49-.99.78-1.6.78-.35,0-.69-.09-1.02-.28l-10.89-6.27V1.25M23.93,0v38.85l11.39,6.56c.5.29,1.01.41,1.52.41,1.81,0,3.41-1.67,2.98-3.68l-2.72-12.86,9.75-8.8c1.95-1.76.9-5.01-1.72-5.29l-13.07-1.39L26.71,1.8c-.54-1.2-1.66-1.8-2.78-1.8h0Z"/>
  </g>
</svg>