<?xml version="1.0" encoding="UTF-8"?>
<svg id="Layer_2" data-name="Layer 2" xmlns="http://www.w3.org/2000/svg" viewBox="0 0 1379.9 238.72">
  <defs>
    <style>
      .cls-1 {
        fill: #e4deff;
      }

      .cls-2 {
        fill: #b2a3e5;
      }
    </style>
  </defs>
  <g id="Layer_1-2" data-name="Layer 1">
    <g>
      <g>
        <rect class="cls-1" x="249.5" y="24.2" width="1130.4" height="14.2"/>
        <path class="cls-2" d="M462.62,38.88l-462.32.03-.3-14.87h462.45c1.69-6.45,4.12-11.72,8.48-16.29,9.85-10.32,28.5-10.32,38.27-.08,8.49,8.9,11.84,21.12,8.68,31.74-2.96,9.92-7.68,15.92-16.52,20.59-15.68,8.27-34.28-3.12-38.73-21.11Z"/>
      </g>
      <g>
        <path class="cls-1" d="M809.5,145.03c2.89-3.88,7.26-8.2,11.5-10.9,20.85-13.25,49.55-8.24,63.32,10.7,16.26,22.38,11.79,52.46-11.41,68.5-20.13,13.91-51.58,8.53-64.8-12.86-11.61-17.06-11.23-38.51,1.39-55.45ZM868.17,187.24l-.12-30.43c0-.97-2.01-3.74-2.72-3.19s-1.64,1.76-2.46,2.96v34.23s2.77,3.75,2.77,3.75c1.66-2.8,2.55-4.75,2.54-7.32ZM856.95,177.21c1.68-.95,4.17-4.28,2.14-5.43l-13.32-7.57-14.95-8.19c-.67-.37-2.99-.62-3.4-.07l-1.74,2.33-.05,30.66,1.54,2.7c.38.66,3.17.1,4.01-.35l12.82-6.81,12.93-7.28Z"/>
        <path class="cls-1" d="M571.8,200.48c-13.21,21.39-44.67,26.77-64.8,12.86-23.21-16.04-27.68-46.12-11.41-68.5,13.76-18.94,42.47-23.95,63.32-10.7,4.25,2.7,8.61,7.02,11.5,10.9,12.62,16.94,13,38.39,1.39,55.45ZM514.27,194.56l2.78-3.75v-34.23c-.84-1.2-1.77-2.41-2.48-2.96s-2.71,2.23-2.72,3.19l-.12,30.43c-.01,2.58.88,4.53,2.54,7.32ZM535.88,184.49l12.82,6.81c.84.45,3.64,1.01,4.01.35l1.54-2.7-.05-30.66-1.74-2.33c-.41-.55-2.73-.3-3.4.07l-14.95,8.19-13.32,7.57c-2.02,1.15.46,4.48,2.14,5.43l12.93,7.28Z"/>
        <path class="cls-2" d="M754.81,173.86c0,35.82-29.04,64.86-64.86,64.86s-64.86-29.04-64.86-64.86,29.04-64.86,64.86-64.86,64.86,29.04,64.86,64.86ZM716.79,181.67c2.05-1.17,3.37-3.22,3.34-5.3-.03-2.25-1.59-4.11-3.56-5.24l-41.14-23.59c-2.03-1.16-4.58-1.42-6.46-.22s-2.74,3.47-2.74,5.75v46.87c0,2.29.94,4.58,2.79,5.71,1.97,1.21,4.48.85,6.55-.34l41.23-23.65Z"/>
      </g>
    </g>
  </g>
</svg>