<?xml version="1.0" encoding="UTF-8"?>
<svg id="Layer_2" data-name="Layer 2" xmlns="http://www.w3.org/2000/svg" viewBox="0 0 77.9 96.74">
  <defs>
    <style>
      .cls-1 {
        fill: #f77ca9;
      }
    </style>
  </defs>
  <g id="Layer_1-2" data-name="Layer 1">
    <path class="cls-1" d="M47.86,47.2l-.06,17.07v2.4s-.04,13.93-.04,13.93c0,1.39-.47,2.88-.84,4.22-.74,2.74-3.51,5.51-6,6.87l-2.05,1.12c-3.51,1.92-4.72,2.2-8.52,2.94-4.04.78-8.72,1.22-12.77.87l-3.09-.59c-6.91-1.31-13.13-7.34-14.26-14.59-.34-2.15-.4-4.17.59-6.2l.77-1.58c.47-.97,1.05-1.77,1.82-2.51l1.48-1.4c3.77-2.92,8.3-4.24,13.07-4.75,2.29-.25,4.5-.44,6.78-.26,3.96.31,7.85,1.23,11.61,2.54l.08-29.13.06-5.67-.06-25.62c0-1.92.11-3.53,1.54-5.1.57-.63,1.63-1.21,2.51-1.5,1.88-.62,3.56-.13,5.08.98.78.57,1.35,1.34,1.72,2.28l.76,1.93.93,1.77c2.41,4.6,6.15,6.56,10.82,8.52l4.82,2.02c4.7,1.97,9.34,4.83,11.52,9.6,1.61,3.52,2.39,8.42,1.17,11.92-.56,1.61-1.17,3.12-2.21,4.47l-2.19,2.87c-1.93,2.53-5.24,3.07-7.87,1.21-2.36-1.67-3.04-5.35-1.63-7.37l1.62-2.32c.55-.79,1.38-1.57,1.46-2.63s-.31-2.69-.86-3.7c-.99-1.8-5.2-3.43-7.48-4.4l-5.78-2.46-2.75-1.5-1.75-.97v24.72Z"/>
  </g>
</svg>