<?xml version="1.0" encoding="UTF-8"?>
<svg id="Layer_2" data-name="Layer 2" xmlns="http://www.w3.org/2000/svg" viewBox="0 0 246.34 73.17">
  <defs>
    <style>
      .cls-1, .cls-2 {
        fill: #fff2cf;
      }

      .cls-3 {
        fill: #f77ca9;
      }

      .cls-2 {
        font-family: Impact, Impact;
        font-size: 36px;
      }
    </style>
  </defs>
  <g id="Layer_1-2" data-name="Layer 1">
    <g>
      <g>
        <rect class="cls-3" x="0" y="0" width="246.34" height="73.17" rx="28.05" ry="28.05"/>
        <text class="cls-2" transform="translate(82.96 51.49)"><tspan x="0" y="0">HOME</tspan></text>
        <g>
          <path class="cls-1" d="M195.5,53.77c.38-.38.73-.7,1.13-.94s.47-.67.7-.99c.6-.84,1.38-1.52,2.23-2.18.23-.18.65.43.64.73l-.17,5.23c2.03.76,3.85,1.44,5.75,2.6-2.21.6-4.19.96-6.27,1.39l-.5,5.64c-.02.22-.25.59-.42.67-.2.09-.71-.09-.83-.29l-2.17-3.59c-.28-.47-.63-.97-1-1.29l-4.73,1.07c-.1.02-.42-.08-.47-.16-.06-.11,0-.37.1-.49l2.98-3.82-2.19-5.01c.51-.38,1.1-.35,1.68-.1l3.54,1.53ZM196.33,54.41c-.27.31-.49.5-.91.33l-3.85-1.55,1.4,3.04.64,1.38-2.33,3.15,2.15-.62-1.69.74,3.04-.71c.2.31.32.26.19-.16l-1.4.19c.52-.41,1.1-.44,1.66-.31l2.85,4.6.28-3.77c.04-.48.02-.98.21-1.43l.12-.29c.02-.06.29.04.36.02l2.42-.71-1.25.66,3.4-.77-.95-.02.44-.24-3.31-1.44c-.57-.25-.84-.56-.8-1.21.1-1.35.13-2.61.07-4.05l-2.74,3.16Z"/>
          <path class="cls-1" d="M221.39,45.9l-1.51-.81,1.58-.56.19-1.06c.02-.11.15-.34.23-.41.23-.22.43.78.98,1.2l1.43-.13-.92,1.16.46,1.67-1.59-.58-.84.93v-1.4Z"/>
          <path class="cls-1" d="M231.53,49.33c-.57-.11-.73-.85-.59-1.15.08-.07.54-.14.59-.03l.24.57.16.38c.03.08-.3.26-.4.24Z"/>
        </g>
        <g>
          <path class="cls-1" d="M39.01,53.79c.43-.32.83-.59,1.25-.77s.55-.6.83-.89c.71-.75,1.58-1.31,2.51-1.85.25-.15.58.52.53.81l-.9,5.15c1.9,1.03,3.61,1.97,5.33,3.38-2.27.29-4.28.36-6.4.5l-1.28,5.51c-.05.22-.33.55-.51.61-.21.07-.69-.19-.78-.4l-1.65-3.85c-.22-.5-.49-1.05-.81-1.42l-4.84.4c-.11,0-.4-.13-.44-.23-.04-.12.05-.36.17-.47l3.49-3.37-1.48-5.26c.56-.31,1.14-.19,1.67.13l3.3,2ZM39.74,54.54c-.31.27-.56.42-.95.2l-3.6-2.07.96,3.21.44,1.45-2.75,2.8,2.21-.31-1.77.5,3.11-.28c.16.33.28.3.21-.14h-1.42c.57-.33,1.15-.29,1.68-.08l2.18,4.96.81-3.69c.1-.47.16-.97.41-1.39l.16-.27c.03-.05.28.08.35.07l2.49-.37-1.33.48,3.48-.29-.94-.15.47-.18-3.07-1.88c-.53-.32-.76-.67-.62-1.31.29-1.32.49-2.56.64-4l-3.15,2.75Z"/>
          <path class="cls-1" d="M222.44,15.49l.42-1.66.93,1.4,1.08-.07c.11,0,.36.06.45.12.27.17-.65.6-.93,1.24l.47,1.36-1.34-.61-1.51.85.18-1.69-1.1-.6,1.36-.34Z"/>
          <path class="cls-1" d="M236.46,28.79c-.03-.58.65-.91.98-.85.09.06.26.49.17.56l-.49.37-.33.25c-.07.05-.33-.22-.33-.32Z"/>
        </g>
        <path class="cls-1" d="M18.53,34.57l-1.86-3.07c-1.56.18-2.96.34-4.68.34l3-2.78c-.76-1.06-1.44-2.06-2.08-3.3,1.39.25,2.4.64,3.63,1.14l3.32-3.04c.11,0,.35.03.39.1.05.1.09.37.06.51l-.87,3.68,3.67,1.64-3.87,1.28-.14,3.74c-.11.07-.49-.09-.58-.22ZM16.83,31.18l1.98,3.19.15-3.54,3.37-1.1-3.18-1.44.92-4.19-3.45,3.11c-1.1-.46-1.95-.82-3.15-1.04.68,1.11,1.26,1.97,1.94,2.91l-2.66,2.45c1.45-.05,2.74-.2,4.09-.35Z"/>
        <path class="cls-1" d="M21.09,57.18l.03,1.72-1.26-1.11-1.02.35c-.1.04-.37.03-.47,0-.31-.09.47-.75.57-1.44l-.81-1.19,1.46.24,1.23-1.22.27,1.67,1.22.29-1.22.69Z"/>
        <path class="cls-1" d="M60.84,57.18l.03,1.72-1.26-1.11-1.02.35c-.1.04-.37.03-.47,0-.31-.09.47-.75.57-1.44l-.81-1.19,1.46.24,1.23-1.22.27,1.67,1.22.29-1.22.69Z"/>
        <path class="cls-1" d="M185.14,57.18l.03,1.72-1.26-1.11-1.02.35c-.1.04-.37.03-.47,0-.31-.09.47-.75.57-1.44l-.81-1.19,1.46.24,1.23-1.22.27,1.67,1.22.29-1.22.69Z"/>
        <path class="cls-1" d="M19.15,46.65c.18.55-.39,1.05-.72,1.08-.1-.03-.38-.41-.31-.5l.38-.48.25-.32c.05-.07.38.13.41.23Z"/>
        <path class="cls-1" d="M34.24,31.57c.18.55-.39,1.05-.72,1.08-.1-.03-.38-.41-.31-.5l.38-.48.25-.32c.05-.07.38.13.41.23Z"/>
        <path class="cls-1" d="M52,10.81l.03,1.72-1.26-1.11-1.02.35c-.1.04-.37.03-.47,0-.31-.09.47-.75.57-1.44l-.81-1.19,1.46.24,1.23-1.22.27,1.67,1.22.29-1.22.69Z"/>
        <path class="cls-1" d="M51.42,38.42c-.72,2.94-.92,5.37-1.36,8.4l-2.06-3.71-2.05-4.09c-1.68-.22-3.29.65-4.8,1.37-.51.14-1.28-.05-1.77.6l-1.73-.3,5.71-6.62c-.56-1.22-1.07-2.24-1.73-3.3l-3.24-5.18,3.54,1.89c1-.61,1.25.35,1.82.93.9.9,2.25,1.27,3.54,1.77,1.96-1.69,3.63-3.37,5.49-5.46.75.73.27,1.62.16,2.48l-.48,4.02c-.13,2.34,4.55,3.05,7.48,5.32l-6.49,1.02c-.51.08-1.93.35-2.05.87Z"/>
      </g>
      <g>
        <path class="cls-1" d="M195.42,31.34c-.79.03-1.49.03-2.16-.1s-1.17.25-1.74.37c-1.48.31-3.01.27-4.58.15-.43-.03-.28-1.09.02-1.39l5.37-5.39c-1.45-2.77-2.74-5.27-3.65-8.34,2.99,1.5,5.49,3.05,8.19,4.61l6.14-5.5c.24-.22.85-.39,1.12-.31.31.09.68.78.61,1.11l-1.2,5.92c-.16.77-.27,1.64-.2,2.34l6.2,3.46c.14.08.38.49.34.63-.04.17-.37.39-.59.43l-7.03,1.16-2.59,7.45c-.94-.09-1.54-.7-1.92-1.52l-2.33-5.06ZM195.15,29.86c.6-.07,1.03-.05,1.31.53l2.64,5.38,1.5-4.59.68-2.08,5.66-1.08-2.94-1.43,2.57.85-4-2.2c.08-.52-.09-.59-.36,0l1.72,1.16c-.97-.07-1.63-.59-2.11-1.28l1.47-7.66-4.04,3.72c-.52.48-1,1.02-1.65,1.32l-.42.19c-.08.04-.28-.32-.37-.36l-3.33-1.6,2.01.51-4.45-2.48,1.01.94-.72-.17,2.16,4.73c.37.81.36,1.41-.34,2.06-1.45,1.34-2.72,2.64-4.1,4.23l6.11-.7Z"/>
        <path class="cls-1" d="M172.52,18.34l-1.89,1.63.04-2.41-1.37-.79c-.14-.08-.39-.37-.45-.51-.19-.42,1.29-.18,2.16-.71l.56-2,1.12,1.82,2.54.22-1.62,1.85.84,1.6-1.93-.7Z"/>
        <path class="cls-1" d="M182.48,6.42c-.45.71-1.54.55-1.89.21-.06-.14.09-.8.26-.81l.9-.04.6-.03c.13,0,.21.53.13.66Z"/>
      </g>
    </g>
  </g>
</svg>